{
  "asset": {
    "version": "2.0",
    "generator": "THREE.GLTFExporter"
  },
  "scenes": [
    {
      "name": "AuxScene",
      "nodes": [
        5
      ]
    }
  ],
  "scene": 0,
  "nodes": [
    {
      "matrix": [
        0.999999999999997,
        2.6469779601696886e-23,
        -7.805466140098338e-8,
        0,
        -7.805466140098337e-8,
        2.2204460492503128e-16,
        -0.9999999999999968,
        0,
        -1.3234889800848443e-23,
        1,
        2.220446049250313e-16,
        0,
        0,
        0.0013406351208686829,
        0,
        1
      ],
      "name": "can",
      "mesh": 0
    },
    {
      "children": [
        0
      ]
    },
    {
      "matrix": [
        0.7071067811865475,
        -0.7071067811865476,
        0,
        0,
        0.7071067811865476,
        0.7071067811865475,
        0,
        0,
        0,
        0,
        1,
        0,
        -3.655254037804938,
        -3.8375145251832645,
        0,
        1
      ],
      "name": "Beverage can",
      "children": [
        1
      ]
    },
    {
      "matrix": [
        0.1307631885737554,
        -0.13001509645655976,
        -0.28380361809171006,
        0,
        0.10908997120136264,
        0.11477746342329417,
        -0.002317977856423735,
        0,
        0.20759244395899715,
        -0.19358308575995184,
        0.18433229926769498,
        0,
        0.08647037554216919,
        -0.2797367519323686,
        0,
        1
      ],
      "name": "Cylinder 1",
      "mesh": 1
    },
    {
      "matrix": [
        0.9998476951563912,
        -0.017452406437283508,
        0,
        0,
        0.017452406437283508,
        0.9998476951563912,
        0,
        0,
        0,
        0,
        1,
        0,
        2.655254037804938,
        8.837514525183265,
        0,
        1
      ],
      "name": "Group",
      "children": [
        2,
        3
      ]
    },
    {
      "name": "BezelScene",
      "children": [
        4
      ]
    }
  ],
  "bufferViews": [
    {
      "buffer": 0,
      "byteOffset": 0,
      "byteLength": 488736,
      "target": 34962,
      "byteStride": 12
    },
    {
      "buffer": 0,
      "byteOffset": 488736,
      "byteLength": 488736,
      "target": 34962,
      "byteStride": 12
    },
    {
      "buffer": 0,
      "byteOffset": 977472,
      "byteLength": 325824,
      "target": 34962,
      "byteStride": 8
    },
    {
      "buffer": 0,
      "byteOffset": 1303296,
      "byteLength": 325824,
      "target": 34962,
      "byteStride": 8
    },
    {
      "buffer": 0,
      "byteOffset": 1629120,
      "byteLength": 18288,
      "target": 34962,
      "byteStride": 12
    },
    {
      "buffer": 0,
      "byteOffset": 1647408,
      "byteLength": 18288,
      "target": 34962,
      "byteStride": 12
    },
    {
      "buffer": 0,
      "byteOffset": 1665696,
      "byteLength": 12192,
      "target": 34962,
      "byteStride": 8
    }
  ],
  "buffers": [
    {
      "byteLength": 1677888,
      "uri": "data:application/octet-stream;base64,"
    }
  ],
  "accessors": [
    {
      "bufferView": 0,
      "componentType": 5126,
      "count": 40728,
      "max": [
        2.786658525466919,
        2.79032039642334,
        10.633186340332031
      ],
      "min": [
        -3.0444138050079346,
        -3.128619909286499,
        -0.039492689073085785
      ],
      "type": "VEC3"
    },
    {
      "bufferView": 1,
      "componentType": 5126,
      "count": 40728,
      "max": [
        0.9999995231628418,
        0.9999861121177673,
        0.9999995231628418
      ],
      "min": [
        -0.9999997615814209,
        -0.9999875426292419,
        -0.9999998211860657
      ],
      "type": "VEC3"
    },
    {
      "bufferView": 2,
      "componentType": 5126,
      "count": 40728,
      "max": [
        0.999500036239624,
        0.9915978908538818
      ],
      "min": [
        0.0005000000237487257,
        0.0005000000237487257
      ],
      "type": "VEC2"
    },
    {
      "bufferView": 3,
      "componentType": 5126,
      "count": 40728,
      "max": [
        1.1125800609588623,
        1.4025267362594604
      ],
      "min": [
        -0.5245121121406555,
        -0.5245121121406555
      ],
      "type": "VEC2"
    },
    {
      "bufferView": 4,
      "componentType": 5126,
      "count": 1524,
      "max": [
        16.198997497558594,
        10.913841247558594,
        16.198999404907227
      ],
      "min": [
        -16.198999404907227,
        -10.91384220123291,
        -16.198999404907227
      ],
      "type": "VEC3"
    },
    {
      "bufferView": 5,
      "componentType": 5126,
      "count": 1524,
      "max": [
        1,
        1,
        1
      ],
      "min": [
        -1,
        -1,
        -1
      ],
      "type": "VEC3"
    },
    {
      "bufferView": 6,
      "componentType": 5126,
      "count": 1524,
      "max": [
        1,
        1
      ],
      "min": [
        0,
        0
      ],
      "type": "VEC2"
    }
  ],
  "materials": [
    {
      "pbrMetallicRoughness": {
        "baseColorFactor": [
          0.04373502925049377,
          0.2917706498067336,
          1,
          1
        ],
        "metallicFactor": 0,
        "roughnessFactor": 0.24009999999999992
      },
      "alphaMode": "MASK",
      "alphaCutoff": 0.001
    },
    {
      "pbrMetallicRoughness": {
        "baseColorFactor": [
          1,
          1,
          1,
          0.52
        ],
        "metallicFactor": 0,
        "roughnessFactor": 0.17,
        "baseColorTexture": {
          "index": 0,
          "extensions": {
            "KHR_texture_transform": {
              "offset": [
                1,
                1
              ]
            }
          }
        }
      },
      "alphaMode": "BLEND"
    }
  ],
  "meshes": [
    {
      "primitives": [
        {
          "mode": 4,
          "attributes": {
            "POSITION": 0,
            "NORMAL": 1,
            "TEXCOORD_0": 2,
            "TEXCOORD_1": 3
          },
          "material": 0
        }
      ]
    },
    {
      "primitives": [
        {
          "mode": 4,
          "attributes": {
            "POSITION": 4,
            "NORMAL": 5,
            "TEXCOORD_0": 6
          },
          "material": 1
        }
      ]
    }
  ],
  "textures": [
    {
      "sampler": 0,
      "source": 0
    }
  ],
  "samplers": [
    {
      "magFilter": 9729,
      "minFilter": 9987,
      "wrapS": 10497,
      "wrapT": 10497
    }
  ],
  "images": [
    {
      "mimeType": "image/png",
      "uri": "data:image/png;base64,"
    }
  ],
  "extensionsUsed": [
    "KHR_texture_transform"
  ]
}