<svg id="Layer_1" data-name="Layer 1" xmlns="http://www.w3.org/2000/svg" viewBox="0 0 114.85 62.5"><defs><style>.cls-1{fill:#fff;}</style></defs><title>amazon-cart</title><path class="cls-1" d="M107.5,61.5h-51a3,3,0,0,1-2.7-1.68L35.45,22.18a3,3,0,0,0-2.7-1.68H14.5a3,3,0,0,1-3-3h0a3,3,0,0,1,3-3h22a3,3,0,0,1,2.7,1.68L57.55,53.82a3,3,0,0,0,2.7,1.68h43.24a3,3,0,0,0,2.77-1.85l14.32-34.53a3,3,0,0,1,3.92-1.62h0a3,3,0,0,1,1.62,3.92L110.27,59.65A3,3,0,0,1,107.5,61.5Z" transform="translate(-11.5 -14.5)"/><circle class="cls-1" cx="47.5" cy="56.5" r="6"/><circle class="cls-1" cx="91.5" cy="56.5" r="6"/></svg>