<?xml version="1.0" encoding="utf-8"?>
<!-- Generator: Adobe Illustrator 19.0.0, SVG Export Plug-In . SVG Version: 6.00 Build 0)  -->
<svg version="1.1" id="Layer_1" xmlns="http://www.w3.org/2000/svg" xmlns:xlink="http://www.w3.org/1999/xlink" x="0px" y="0px"
	 viewBox="0 0 398.7 406.4" style="enable-background:new 0 0 398.7 406.4;" xml:space="preserve">
<style type="text/css">
	.st0{fill:#FFFFFF;}
</style>
<path class="st0" d="M341.3,171.2h-14.9c-2.9-11.4-7.3-22.2-13.1-32.1l10.4-10.4c11.5-11.5,11.5-30.3,0-41.7l-5.2-5.2
	c-11.5-11.5-30.3-11.5-41.7,0L266,92.5c-9.8-5.5-20.5-9.7-31.7-12.5V64.2c0-16.2-13.3-29.5-29.5-29.5h-7.4
	c-16.2,0-29.5,13.3-29.5,29.5V82c-10.3,3.2-20,7.6-29,13.2l-13.4-13.4c-11.5-11.5-30.3-11.5-41.7,0L78.5,87
	c-11.5,11.5-11.5,30.3,0,41.7l15.1,15.1c-4.5,8.6-8,17.7-10.4,27.3H60.9c-16.2,0-29.5,13.3-29.5,29.5v7.4
	c0,16.2,13.3,29.5,29.5,29.5h23.6c2.7,9,6.3,17.6,10.8,25.6L78.5,280c-11.5,11.5-11.5,30.3,0,41.7l5.2,5.2
	c11.5,11.5,30.3,11.5,41.7,0l16.5-16.5c8.1,4.7,16.8,8.6,25.9,11.4v22.7c0,16.2,13.3,29.5,29.5,29.5h7.4c16.2,0,29.5-13.3,29.5-29.5
	v-20.7c10-2.4,19.6-6.1,28.6-10.7l13.9,13.9c11.5,11.5,30.3,11.5,41.7,0l5.2-5.2c11.5-11.5,11.5-30.3,0-41.7l-12.2-12.2
	c5.8-9.3,10.4-19.5,13.5-30.2h16.2c16.2,0,29.5-13.3,29.5-29.5v-7.4C370.8,184.4,357.5,171.2,341.3,171.2z M202.3,260.9
	c-31.2,0-56.6-25.3-56.6-56.6c0-31.2,25.3-56.6,56.6-56.6s56.6,25.3,56.6,56.6C258.9,235.6,233.6,260.9,202.3,260.9z"/>
</svg>
