<?xml version="1.0" encoding="utf-8"?>
<!-- Generator: Adobe Illustrator 21.1.0, SVG Export Plug-In . SVG Version: 6.00 Build 0)  -->
<svg version="1.1" id="Layer_1" xmlns="http://www.w3.org/2000/svg" xmlns:xlink="http://www.w3.org/1999/xlink" x="0px" y="0px"
	 viewBox="0 0 58 98" style="enable-background:new 0 0 58 98;" xml:space="preserve">
<style type="text/css">
	.st0{opacity:0.56;}
	.st1{fill:#5ABA47;}
	.st2{fill:#FFFFFF;}
</style>


<path class="st1" d="M46.3,26L46.3,26C45.8,16.7,38.2,9.2,29,9.2c-8.7,0-16,6.8-17.1,15.4c0,0.8-5.7,39.3,2,42.3
	c5.2,2,7.9-0.2,9.1-3.2c0.3,0.1,0.5,0.3,0.8,0.4c0.2,4.1,2.1,9,7.4,6.3c1.2-0.6,2-2.8,2.5-5.8c0.3-0.1,0.7-0.2,1-0.4
	c0.9,3.4,3.6,6.4,9.4,4.2C51.9,65.5,46.3,26.7,46.3,26z">

	<animateTransform id="test"
	attributeName = "transform"
	attributeType = "XML"
	type= "translate"
	dur="1.5s"
	values="0,8;0,-8;0,8"
	repeatCount="indefinite"
	/>

</path>

<path class="st2" d="M26.2,38.1L26.2,38.1c-2.3,0-4.1-1.8-4.1-4.1v-7.2c0-2.3,1.8-4.1,4.1-4.1h0c2.3,0,4.1,1.8,4.1,4.1V34
	C30.3,36.2,28.4,38.1,26.2,38.1z">
	
	<animateTransform id="test2"
	attributeName = "transform"
	attributeType = "XML"
	type= "translate"
	dur="1.5s"
	values="0,8;0,-8;0,8"
	repeatCount="indefinite"
	/>
	
</path>

<path class="st2" d="M37.7,38.1L37.7,38.1c-2.3,0-4.1-1.8-4.1-4.1v-7.2c0-2.3,1.8-4.1,4.1-4.1h0c2.3,0,4.1,1.8,4.1,4.1V34
	C41.8,36.2,39.9,38.1,37.7,38.1z">
	<animateTransform id="test3"
	attributeName = "transform"
	attributeType = "XML"
	type= "translate"
	dur="1.5s"
	values="0,8;0,-8;0,8"
	repeatCount="indefinite"
	/>
	
</path>


</svg>
