<?xml version="1.0" encoding="utf-8"?>
<!-- Generator: Adobe Illustrator 19.0.0, SVG Export Plug-In . SVG Version: 6.00 Build 0)  -->
<svg version="1.1" id="Layer_1" xmlns="http://www.w3.org/2000/svg" xmlns:xlink="http://www.w3.org/1999/xlink" x="0px" y="0px"
	 viewBox="0 0 398.7 406.4" style="enable-background:new 0 0 398.7 406.4;" xml:space="preserve">
<style type="text/css">
	.st0{fill:#5AB947;}
	.st1{fill:#FFFFFF;}
	.st2{fill:#30302F;}
</style>
<g id="XMLID_70_">
	<g id="XMLID_34_">
		<g id="XMLID_35_">
			<circle id="XMLID_36_" class="st0" cx="198.2" cy="205.6" r="179.2"/>
		</g>
	</g>
</g>
<ellipse id="XMLID_4_" class="st1" cx="206.1" cy="168.5" rx="50.8" ry="45.1"/>
<path id="XMLID_15_" class="st2" d="M260.4,153l-0.1,0.1c-1.7-33-28.5-59.4-60.9-59.4c-30.9,0-56.5,23.9-60.5,54.6l-0.5-0.6
	c0,2.7-19.8,139.8,7.7,150.4c18.4,7.1,28-0.9,32-11.5c0.9,0.5,1.9,1,2.9,1.4c0.7,14.5,7.4,31.9,26.2,22.4c4.3-2.2,7.1-9.9,8.8-20.6
	c1.2-0.4,2.4-0.8,3.6-1.3c3.2,12.1,12.7,22.7,33.1,14.8C280.1,292.8,260.4,155.6,260.4,153z M173.6,156.1c0-8.5,6.8-15.5,15-15.5
	c8.3,0,15,7,15,15.5v23c0,8.5-6.8,15.5-15,15.5c-8.3,0-15-7-15-15.5V156.1z M244,179.1c0,8.5-6.8,15.5-15,15.5h0
	c-8.3,0-15-7-15-15.5v-23c0-8.5,6.8-15.5,15-15.5h0c8.3,0,15,7,15,15.5V179.1z"/>
</svg>
