<?xml version="1.0" encoding="utf-8"?>
<!-- Generator: Adobe Illustrator 19.0.0, SVG Export Plug-In . SVG Version: 6.00 Build 0)  -->
<svg version="1.1" id="Layer_1" xmlns="http://www.w3.org/2000/svg" xmlns:xlink="http://www.w3.org/1999/xlink" x="0px" y="0px"
	 viewBox="0 0 398.7 406.4" style="enable-background:new 0 0 398.7 406.4;" xml:space="preserve">
<style type="text/css">
	.st0{fill:#5AB947;}
</style>
<g>
	<g id="XMLID_93_">
		<path id="XMLID_97_" class="st0" d="M330,360.3H71.5c-2.5,0-4.6-2.1-4.6-4.6v-195c0-2.5,2.1-4.6,4.6-4.6H330
			c2.5,0,4.6,2.1,4.6,4.6v195C334.5,358.2,332.5,360.3,330,360.3z"/>
		<path id="XMLID_94_" class="st0" d="M207.4,50C54.5,52,103.9,196,103.9,196l184.4,31.1C288.3,227.1,360.3,48.1,207.4,50z
			 M259.6,220.9L135.7,200c0,0-33.3-96.8,69.5-98.1C308,100.6,259.6,220.9,259.6,220.9z"/>
	</g>
</g>
</svg>
