<?xml version="1.0" encoding="utf-8"?>
<!-- Generator: Adobe Illustrator 19.0.0, SVG Export Plug-In . SVG Version: 6.00 Build 0)  -->
<svg version="1.1" id="Layer_1" xmlns="http://www.w3.org/2000/svg" xmlns:xlink="http://www.w3.org/1999/xlink" x="0px" y="0px"
	 viewBox="0 0 398.7 406.4" style="enable-background:new 0 0 398.7 406.4;" xml:space="preserve">
<style type="text/css">
	.st0{fill:#FFFFFF;}
</style>
<g>
	<path class="st0" d="M161.3,280.1c-61,0-110.5-49.6-110.5-110.5c0-61,49.6-110.5,110.5-110.5c61,0,110.5,49.6,110.5,110.5
		C271.9,230.5,222.3,280.1,161.3,280.1z M161.3,89.6c-44.1,0-79.9,35.9-79.9,79.9c0,44.1,35.9,79.9,79.9,79.9
		c44.1,0,79.9-35.9,79.9-79.9C241.3,125.5,205.4,89.6,161.3,89.6z"/>
	<path id="XMLID_1_" class="st0" d="M232.6,221.6l-20.9,23.8c-0.5,0.6-0.5,1.5,0.1,2l123.1,108.4c0.6,0.5,1.5,0.5,2-0.1l20.9-23.8
		c0.5-0.6,0.5-1.5-0.1-2L234.5,221.4C234,220.9,233.1,221,232.6,221.6z"/>
</g>
</svg>
