<?xml version="1.0" encoding="utf-8"?>
<!-- Generator: Adobe Illustrator 19.0.0, SVG Export Plug-In . SVG Version: 6.00 Build 0)  -->
<svg version="1.1" id="Layer_1" xmlns="http://www.w3.org/2000/svg" xmlns:xlink="http://www.w3.org/1999/xlink" x="0px" y="0px"
	 viewBox="0 0 398.7 406.4" style="enable-background:new 0 0 398.7 406.4;" xml:space="preserve">
<style type="text/css">
	.st0{opacity:0.5;}
	.st1{fill:#8D8D8D;}
</style>
<g class="st0">
	<g id="XMLID_85_">
		<path id="XMLID_86_" class="st1" d="M266.2,341.6H135.3c-39.2,0-71-31.9-71-71V139.8c0-39.2,31.9-71,71-71h130.8
			c39.2,0,71,31.9,71,71v130.8C337.2,309.7,305.3,341.6,266.2,341.6z M135.3,119c-11.5,0-20.8,9.3-20.8,20.8v130.8
			c0,11.5,9.3,20.8,20.8,20.8h130.8c11.5,0,20.8-9.3,20.8-20.8V139.8c0-11.5-9.3-20.8-20.8-20.8H135.3z"/>
	</g>
</g>
</svg>
