<?xml version="1.0" encoding="utf-8"?>
<!-- Generator: Adobe Illustrator 19.0.0, SVG Export Plug-In . SVG Version: 6.00 Build 0)  -->
<svg version="1.1" id="Layer_1" xmlns="http://www.w3.org/2000/svg" xmlns:xlink="http://www.w3.org/1999/xlink" x="0px" y="0px"
	 viewBox="0 0 398.7 406.4" style="enable-background:new 0 0 398.7 406.4;" xml:space="preserve">
<style type="text/css">
	.st0{fill:#FFFFFF;}
</style>
<g>
	<path id="XMLID_2_" class="st0" d="M250,214.9l-178.7,151c-1.1,0.9-2.7,0.8-3.7-0.3l-42.9-50.8c-0.9-1.1-0.8-2.7,0.3-3.7l178.7-151
		c1.1-0.9,2.7-0.8,3.7,0.3l42.9,50.8C251.3,212.3,251.1,214,250,214.9z"/>
	<g>
		<path id="XMLID_1_" class="st0" d="M256.1,167.7c-12.7-15.1-10.8-37.8,4.2-50.6l54.5-46.1c-15.7-9.7-34.1-15.2-53.9-15.2
			c-56.8,0-102.8,46-102.8,102.8s46,102.8,102.8,102.8s102.8-46,102.8-102.8c0-10.8-1.7-21.2-4.8-31l-52.4,44.3
			C291.6,184.7,268.8,182.8,256.1,167.7z"/>
	</g>
</g>
</svg>
