<?xml version="1.0" encoding="utf-8"?>
<!-- Generator: Adobe Illustrator 26.0.2, SVG Export Plug-In . SVG Version: 6.00 Build 0)  -->
<svg version="1.1" id="Layer_1" xmlns="http://www.w3.org/2000/svg" xmlns:xlink="http://www.w3.org/1999/xlink" x="0px" y="0px"
	 viewBox="0 0 1557.2 860.7" style="enable-background:new 0 0 1557.2 860.7;" xml:space="preserve">
<style type="text/css">
	.st0{opacity:0.2;}
	.st1{fill:#003ABA;}
	.st2{fill:#83A9FF;}
	.st3{fill:#E5E5E5;}
	.st4{fill:#EFEFEF;}
	.st5{fill:#E05353;stroke:#003ABA;stroke-width:1.42;stroke-miterlimit:10;}
	.st6{fill:#E5E53C;stroke:#003ABA;stroke-width:1.42;stroke-miterlimit:10;}
	.st7{fill:#54DD5A;stroke:#003ABA;stroke-width:1.42;stroke-miterlimit:10;}
	.st8{opacity:0.6;}
	.st9{fill:#FFFFFF;}
	.st10{fill:#B7B7B7;}
	.st11{opacity:9.000000e-02;}
	.st12{opacity:0.22;}
	.st13{opacity:0.28;}
	.st14{opacity:0.18;}
	.st15{opacity:0.61;}
	.st16{fill:#A0A0A0;}
	.st17{fill:#062E9B;}
	.st18{enable-background:new    ;}
	.st19{fill:#014B87;}
	.st20{fill:#024C87;}
	.st21{fill:#FE8202;}
	.st22{fill:#0285CA;}
	.st23{fill:#FE8202;stroke:#CE5300;stroke-width:3;stroke-miterlimit:10;}
</style>
<g class="st0">
	
		<image style="overflow:visible;enable-background:new    ;" width="579" height="579" xlink:href="40A966E1.png"  transform="matrix(1 0 0 1 699.22 270.66)">
	</image>
</g>
<g class="st0">
	
		<image style="overflow:visible;enable-background:new    ;" width="704" height="704" xlink:href="40A966E3.png"  transform="matrix(1 0 0 1 853.22 156.66)">
	</image>
</g>
<circle class="st1" cx="1190.7" cy="473.2" r="315.8"/>
<circle class="st2" cx="991.6" cy="545.9" r="248.6"/>
<path class="st3" d="M828.2,315.6h611.7c16.4,0,29.7,13.3,29.7,29.7V667c0,16.4-13.3,29.7-29.7,29.7H828.2
	c-16.4,0-29.7-13.3-29.7-29.7V345.3C798.5,328.9,811.8,315.6,828.2,315.6z"/>
<path class="st1" d="M1439.8,316.3c16,0,29,13,29,29l0,0v321.6c0,16-13,29-29,29l0,0H828.2c-16,0-29-13-29-29l0,0V345.3
	c0-16,13-29,29-29L1439.8,316.3 M1439.8,314.9H828.2c-16.8,0-30.4,13.6-30.4,30.4c0,0,0,0,0,0v321.7c0,16.8,13.6,30.4,30.4,30.4l0,0
	h611.7c16.8,0,30.4-13.6,30.4-30.4V345.3C1470.2,328.5,1456.6,314.9,1439.8,314.9L1439.8,314.9L1439.8,314.9z"/>
<path class="st4" d="M798.5,361v-15.8c0-16.4,13.3-29.7,29.7-29.7h611.7c16.4,0,29.7,13.3,29.7,29.7V361H798.5z"/>
<path class="st1" d="M1439.8,316.3c16,0,29,13,29,29l0,0v15H799.2v-15c0-16,13-29,29-29l0,0H1439.8 M1439.9,314.9H828.2
	c-16.8,0-30.4,13.6-30.4,30.4c0,0,0,0,0,0v16.5h672.4v-16.5C1470.2,328.5,1456.6,314.9,1439.9,314.9L1439.9,314.9L1439.9,314.9z"/>
<circle class="st5" cx="1436" cy="339" r="8.9"/>
<circle class="st6" cx="1406.9" cy="339" r="8.9"/>
<circle class="st7" cx="1377.8" cy="339" r="8.9"/>
<g class="st8">
	
		<image style="overflow:visible;enable-background:new    ;" width="201" height="356" xlink:href="40A966E6.png"  transform="matrix(1 0 0 1 783.22 355.66)">
	</image>
</g>
<path class="st4" d="M834.9,376.2h104.8c5.9,0,10.6,4.8,10.6,10.6v260.4c0,5.9-4.8,10.6-10.6,10.6H834.9c-5.9,0-10.6-4.8-10.6-10.6
	V386.8C824.3,380.9,829,376.2,834.9,376.2z"/>
<path class="st1" d="M939.7,376.9c5.5,0,9.9,4.4,9.9,9.9v260.4c0,5.5-4.4,9.9-9.9,9.9H834.9c-5.5,0-9.9-4.4-9.9-9.9V386.8
	c0-5.5,4.4-9.9,9.9-9.9H939.7 M939.6,375.5H834.9c-6.3,0-11.3,5.1-11.3,11.3l0,0v260.4c0,6.3,5.1,11.3,11.3,11.3c0,0,0,0,0,0h104.8
	c6.3,0,11.3-5.1,11.3-11.3V386.8C951,380.5,945.9,375.5,939.6,375.5L939.6,375.5z"/>
<g class="st8">
	
		<image style="overflow:visible;enable-background:new    ;" width="465" height="340" xlink:href="40A966E7.png"  transform="matrix(1 0 0 1 928.22 361.66)">
	</image>
</g>
<path class="st9" d="M994.8,380h352.5c10.3,0,18.6,8.3,18.6,18.6V627c0,10.3-8.3,18.6-18.6,18.6H994.8c-10.3,0-18.6-8.3-18.6-18.6
	V398.5C976.3,388.3,984.6,380,994.8,380z"/>
<path class="st1" d="M1347.4,380.7c9.9,0,17.8,8,17.8,17.9V627c0,9.9-8,17.8-17.9,17.9H994.8c-9.9,0-17.8-8-17.9-17.9V398.5
	c0-9.9,8-17.9,17.9-17.9H1347.4 M1347.4,379.2H994.8c-10.6,0-19.3,8.6-19.3,19.3v0V627c0,10.6,8.6,19.3,19.3,19.3l0,0h352.5
	c10.6,0,19.3-8.6,19.3-19.3v0V398.5C1366.7,387.9,1358,379.2,1347.4,379.2L1347.4,379.2L1347.4,379.2z"/>
<g class="st8">
	
		<image style="overflow:visible;enable-background:new    ;" width="169" height="200" xlink:href="40A966E2.png"  transform="matrix(1 0 0 1 1280.22 382.66)">
	</image>
</g>
<path class="st4" d="M1330.9,411.8h73.4c5.9,0,10.7,4.8,10.7,10.7v105.1c0,5.9-4.8,10.7-10.7,10.7h-73.4c-5.9,0-10.7-4.8-10.7-10.7
	V422.5C1320.3,416.6,1325,411.8,1330.9,411.8z"/>
<path class="st1" d="M1404.4,412.6c5.5,0,10,4.5,10,10v105.1c0,5.5-4.5,10-10,10h-73.4c-5.5,0-10-4.5-10-10V422.5
	c0-5.5,4.5-10,10-10L1404.4,412.6 M1404.4,411.1h-73.4c-6.3,0-11.4,5.1-11.4,11.4l0,0v105.2c0,6.3,5.1,11.4,11.4,11.4l0,0h73.4
	c6.3,0,11.4-5.1,11.4-11.4c0,0,0,0,0,0V422.5C1415.8,416.2,1410.7,411.1,1404.4,411.1C1404.4,411.1,1404.4,411.1,1404.4,411.1
	L1404.4,411.1z"/>
<g class="st8">
	<path class="st10" d="M1002.7,426.4c-1.2-0.1-2.2-1.2-2.1-2.4c0.1-1.1,1-2,2.1-2.1h111.4c1.2-0.1,2.3,0.9,2.4,2.1
		c0.1,1.2-0.9,2.3-2.1,2.4c-0.1,0-0.2,0-0.3,0H1002.7z"/>
	<path class="st1" d="M1114.1,422.6c0.8-0.1,1.6,0.6,1.7,1.4c0.1,0.8-0.6,1.6-1.4,1.7c-0.1,0-0.2,0-0.2,0h-111.4
		c-0.8-0.1-1.5-0.8-1.4-1.7c0.1-0.8,0.7-1.4,1.4-1.4H1114.1 M1114.1,421.2h-111.4c-1.6,0.3-2.7,1.8-2.4,3.5c0.2,1.2,1.2,2.2,2.4,2.4
		h111.4c1.6,0.3,3.2-0.8,3.5-2.4c0.3-1.6-0.8-3.2-2.4-3.5C1114.8,421.1,1114.4,421.1,1114.1,421.2z"/>
</g>
<g class="st8">
	<path class="st10" d="M1003,406c-2.9,0.1-5.3-2.1-5.4-5c-0.1-2.9,2.1-5.3,5-5.4c0.2,0,0.3,0,0.5,0h223.6c2.9,0.1,5.1,2.6,5,5.4
		c-0.1,2.7-2.3,4.9-5,5H1003z"/>
	<path class="st1" d="M1226.6,396.3c2.5,0.2,4.4,2.3,4.2,4.8c-0.2,2.3-1.9,4-4.2,4.2H1003c-2.5,0.2-4.6-1.7-4.8-4.2s1.7-4.6,4.2-4.8
		c0.2,0,0.4,0,0.6,0H1226.6 M1226.6,394.9H1003c-3.3,0-5.9,2.7-5.9,5.9l0,0c0,3.3,2.7,5.9,5.9,5.9h223.6c3.3,0,5.9-2.7,5.9-5.9
		c0,0,0,0,0,0l0,0C1232.5,397.5,1229.8,394.9,1226.6,394.9z"/>
</g>
<g class="st8">
	<path class="st10" d="M834.3,342.9c-2.3,0-4.2-1.9-4.2-4.2c0-2.3,1.9-4.2,4.2-4.2h185.2c2.3,0,4.2,1.9,4.2,4.2
		c0,2.3-1.9,4.2-4.2,4.2c0,0,0,0,0,0H834.3z"/>
	<path class="st1" d="M1019.5,335.2c1.9,0,3.5,1.6,3.5,3.5s-1.6,3.5-3.5,3.5H834.3c-1.9,0-3.5-1.6-3.5-3.5s1.6-3.5,3.5-3.5H1019.5
		 M1019.5,333.8H834.3c-2.7,0-4.9,2.2-4.9,4.9s2.2,4.9,4.9,4.9h185.2c2.7,0,4.9-2.2,4.9-4.9S1022.3,333.8,1019.5,333.8z"/>
</g>
<g class="st11">
	<path class="st10" d="M1002.7,438.8c-1.2-0.1-2.2-1.2-2.1-2.4c0.1-1.1,1-2,2.1-2.1h111.4c1.2-0.1,2.3,0.9,2.4,2.1
		c0.1,1.2-0.9,2.3-2.1,2.4c-0.1,0-0.2,0-0.3,0H1002.7z"/>
	<path class="st1" d="M1114.1,435c0.8-0.1,1.6,0.6,1.7,1.4c0.1,0.8-0.6,1.6-1.4,1.7c-0.1,0-0.2,0-0.2,0h-111.4
		c-0.8-0.1-1.5-0.8-1.4-1.7c0.1-0.8,0.7-1.4,1.4-1.4H1114.1 M1114.1,433.6h-111.4c-1.6,0.3-2.7,1.8-2.4,3.5c0.2,1.2,1.2,2.2,2.4,2.4
		h111.4c1.6,0.3,3.2-0.8,3.5-2.4c0.3-1.6-0.8-3.2-2.4-3.5C1114.8,433.5,1114.4,433.5,1114.1,433.6z"/>
</g>
<g class="st8">
	<path class="st10" d="M1002.7,451c-1.2-0.1-2.2-1.2-2.1-2.4c0.1-1.1,1-2,2.1-2.1h111.4c1.2-0.1,2.3,0.9,2.4,2.1
		c0.1,1.2-0.9,2.3-2.1,2.4c-0.1,0-0.2,0-0.3,0H1002.7z"/>
	<path class="st1" d="M1114.1,447.2c0.8-0.1,1.6,0.6,1.7,1.4c0.1,0.8-0.6,1.6-1.4,1.7c-0.1,0-0.2,0-0.2,0h-111.4
		c-0.8-0.1-1.5-0.8-1.4-1.7c0.1-0.8,0.7-1.4,1.4-1.4H1114.1 M1114.1,445.8h-111.4c-1.6,0.3-2.7,1.8-2.4,3.5c0.2,1.2,1.2,2.2,2.4,2.4
		h111.4c1.6,0.3,3.2-0.8,3.5-2.4c0.3-1.6-0.8-3.2-2.4-3.5C1114.8,445.7,1114.4,445.7,1114.1,445.8z"/>
</g>
<g class="st12">
	<path class="st10" d="M1005.3,613.2c-1.2-0.1-2.2-1.2-2.1-2.4c0.1-1.1,1-2,2.1-2.1h321.6c1.2,0.1,2.2,1.2,2.1,2.4
		c-0.1,1.1-1,2-2.1,2.1H1005.3z"/>
	<path class="st1" d="M1326.9,609.4c0.8,0.1,1.5,0.8,1.4,1.7c-0.1,0.8-0.7,1.4-1.4,1.4h-321.6c-0.8-0.1-1.5-0.8-1.4-1.7
		c0.1-0.8,0.7-1.4,1.4-1.4H1326.9 M1326.9,608h-321.6c-1.6,0.3-2.7,1.9-2.4,3.5c0.2,1.2,1.2,2.2,2.4,2.4h321.6
		c1.6-0.3,2.7-1.9,2.4-3.5C1329,609.1,1328.1,608.2,1326.9,608z"/>
</g>
<g class="st12">
	<path class="st10" d="M1005.3,625.6c-1.2-0.1-2.2-1.2-2.1-2.4c0.1-1.1,1-2,2.1-2.1h321.6c1.2,0.1,2.2,1.2,2.1,2.4
		c-0.1,1.1-1,2-2.1,2.1H1005.3z"/>
	<path class="st1" d="M1326.9,621.8c0.8,0.1,1.5,0.8,1.4,1.7c-0.1,0.8-0.7,1.4-1.4,1.4h-321.6c-0.8-0.1-1.5-0.8-1.4-1.7
		c0.1-0.8,0.7-1.4,1.4-1.4H1326.9 M1326.9,620.4h-321.6c-1.6,0.3-2.7,1.8-2.4,3.5c0.2,1.2,1.2,2.2,2.4,2.4h321.6
		c1.6-0.3,2.7-1.8,2.4-3.5C1329.1,621.6,1328.1,620.6,1326.9,620.4z"/>
</g>
<g class="st8">
	<path class="st10" d="M847.9,389.8h76.2c4.3,0,7.7,3.5,7.7,7.7v6.3c0,4.3-3.5,7.7-7.7,7.7h-76.2c-4.3,0-7.7-3.5-7.7-7.7v-6.3
		C840.2,393.2,843.6,389.8,847.9,389.8z"/>
	<path class="st1" d="M924.1,390.5c3.9,0,7,3.1,7,7v6.3c0,3.9-3.1,7-7,7h-76.2c-3.9,0-7-3.1-7-7v-6.3c0-3.9,3.1-7,7-7L924.1,390.5
		 M924.1,389.1h-76.2c-4.7,0-8.4,3.8-8.4,8.4c0,0,0,0,0,0v6.3c0,4.7,3.8,8.4,8.4,8.4l0,0h76.2c4.7,0,8.4-3.8,8.4-8.4c0,0,0,0,0,0
		v-6.3C932.6,392.8,928.8,389.1,924.1,389.1L924.1,389.1z"/>
</g>
<g class="st8">
	<path class="st10" d="M847.9,424h76.2c4.3,0,7.7,3.5,7.7,7.7v6.3c0,4.3-3.5,7.7-7.7,7.7h-76.2c-4.3,0-7.7-3.5-7.7-7.7v-6.3
		C840.2,427.4,843.6,424,847.9,424z"/>
	<path class="st1" d="M924.1,424.7c3.9,0,7,3.1,7,7v6.3c0,3.9-3.1,7-7,7h-76.2c-3.9,0-7-3.1-7-7v-6.3c0-3.9,3.1-7,7-7H924.1
		 M924.1,423.2h-76.2c-4.7,0-8.4,3.8-8.4,8.4c0,0,0,0,0,0v6.3c0,4.7,3.8,8.4,8.4,8.5h76.2c4.7,0,8.4-3.8,8.4-8.5v-6.3
		C932.6,427,928.8,423.2,924.1,423.2L924.1,423.2z"/>
</g>
<g class="st8">
	<path class="st10" d="M847.9,458.2h76.2c4.3,0,7.7,3.5,7.7,7.7v6.3c0,4.3-3.5,7.7-7.7,7.7h-76.2c-4.3,0-7.7-3.5-7.7-7.7v-6.3
		C840.2,461.6,843.6,458.2,847.9,458.2z"/>
	<path class="st1" d="M924.1,458.9c3.9,0,7,3.1,7,7v6.3c0,3.9-3.1,7-7,7h-76.2c-3.9,0-7-3.1-7-7v-6.3c0-3.9,3.1-7,7-7H924.1
		 M924.1,457.5h-76.2c-4.7,0-8.4,3.8-8.4,8.4c0,0,0,0,0,0v6.3c0,4.7,3.8,8.4,8.4,8.5h76.2c4.7,0,8.4-3.8,8.4-8.5v-6.3
		C932.6,461.2,928.8,457.5,924.1,457.5z"/>
</g>
<g class="st8">
	<path class="st10" d="M1006.5,477c-1.6-0.2-2.8-1.7-2.6-3.4c0.2-1.4,1.2-2.4,2.6-2.6h48.3c1.6-0.2,3.1,0.9,3.4,2.6
		s-0.9,3.1-2.6,3.4c-0.3,0-0.5,0-0.8,0H1006.5z"/>
	<path class="st1" d="M1054.9,471.7c1.3-0.1,2.3,0.9,2.4,2.1c0.1,1.3-0.9,2.3-2.1,2.4c-0.1,0-0.2,0-0.3,0h-48.3
		c-1.3-0.1-2.2-1.2-2.1-2.4c0.1-1.1,1-2,2.1-2.1H1054.9 M1054.9,470.3h-48.3c-2,0.1-3.6,1.8-3.5,3.9c0.1,1.9,1.6,3.4,3.5,3.5h48.3
		c2,0.1,3.8-1.5,3.9-3.5s-1.5-3.8-3.5-3.9C1055.1,470.3,1055,470.3,1054.9,470.3z"/>
</g>
<g class="st8">
	<path class="st10" d="M1006.5,498c-1.7,0-3-1.3-3-3s1.3-3,3-3h48.3c1.7,0,3,1.3,3,3s-1.3,3-3,3H1006.5z"/>
	<path class="st1" d="M1054.9,492.8c1.3-0.1,2.3,0.9,2.4,2.1c0.1,1.3-0.9,2.3-2.1,2.4c-0.1,0-0.2,0-0.3,0h-48.3
		c-1.3-0.1-2.2-1.2-2.1-2.4c0.1-1.1,1-2,2.1-2.1H1054.9 M1054.9,491.4h-48.3c-2,0.1-3.6,1.8-3.5,3.9c0.1,1.9,1.6,3.4,3.5,3.5h48.3
		c2,0.1,3.8-1.5,3.9-3.5s-1.5-3.8-3.5-3.9C1055.1,491.3,1055,491.3,1054.9,491.4z"/>
</g>
<g class="st13">
	<path class="st10" d="M1006.5,519.1c-1.6-0.2-2.8-1.8-2.5-3.4c0.2-1.3,1.2-2.4,2.5-2.5h48.3c1.6-0.2,3.2,0.9,3.4,2.5
		c0.2,1.6-0.9,3.2-2.5,3.4c-0.3,0-0.6,0-0.8,0H1006.5z"/>
	<path class="st1" d="M1054.9,513.8c1.3-0.1,2.3,0.9,2.4,2.1c0.1,1.3-0.9,2.3-2.1,2.4c-0.1,0-0.2,0-0.3,0h-48.3
		c-1.3-0.1-2.2-1.2-2.1-2.4c0.1-1.1,1-2,2.1-2.1H1054.9 M1054.9,512.4h-48.3c-2,0-3.7,1.6-3.7,3.7c0,2,1.6,3.7,3.7,3.7c0,0,0,0,0,0
		h48.3c2,0,3.7-1.6,3.7-3.7C1058.6,514.1,1056.9,512.4,1054.9,512.4C1054.9,512.4,1054.9,512.4,1054.9,512.4z"/>
</g>
<g class="st8">
	<path class="st10" d="M1006.5,569c-1.7,0-3-1.3-3-3s1.3-3,3-3h48.3c1.7,0,3,1.3,3,3s-1.3,3-3,3H1006.5z"/>
	<path class="st1" d="M1054.9,563.8c1.3-0.1,2.3,0.9,2.4,2.1c0.1,1.3-0.9,2.3-2.1,2.4c-0.1,0-0.2,0-0.3,0h-48.3
		c-1.3-0.1-2.2-1.2-2.1-2.4c0.1-1.1,1-2,2.1-2.1H1054.9 M1054.9,562.4h-48.3c-2,0.1-3.6,1.8-3.5,3.9c0.1,1.9,1.6,3.4,3.5,3.5h48.3
		c2,0.1,3.8-1.5,3.9-3.5s-1.5-3.8-3.5-3.9C1055.1,562.4,1055,562.4,1054.9,562.4z"/>
</g>
<g class="st8">
	<path class="st10" d="M1177.5,558.5c-1.7,0-3-1.3-3-3s1.3-3,3-3h48.3c1.7,0,3,1.3,3,3s-1.3,3-3,3H1177.5z"/>
	<path class="st1" d="M1225.9,553.3c1.3,0.1,2.2,1.2,2.1,2.4c-0.1,1.1-1,2-2.1,2.1h-48.3c-1.3,0.1-2.3-0.9-2.4-2.1
		c-0.1-1.3,0.9-2.3,2.1-2.4c0.1,0,0.2,0,0.3,0H1225.9 M1225.9,551.9h-48.3c-2-0.1-3.8,1.5-3.9,3.5s1.5,3.8,3.5,3.9
		c0.1,0,0.3,0,0.4,0h48.3c2-0.1,3.6-1.8,3.5-3.9C1229.3,553.5,1227.8,552,1225.9,551.9z"/>
</g>
<g class="st14">
	<path class="st10" d="M1177.5,576.9c-1.6,0.2-3.1-0.9-3.4-2.6s0.9-3.1,2.6-3.4c0.3,0,0.5,0,0.8,0h48.3c1.6,0.2,2.8,1.7,2.6,3.4
		c-0.2,1.4-1.2,2.4-2.6,2.6H1177.5z"/>
	<path class="st1" d="M1225.9,571.7c1.3,0.1,2.2,1.2,2.1,2.4c-0.1,1.1-1,2-2.1,2.1h-48.3c-1.3,0.1-2.3-0.9-2.4-2.1
		c-0.1-1.3,0.9-2.3,2.1-2.4c0.1,0,0.2,0,0.3,0H1225.9 M1225.9,570.2h-48.3c-2-0.1-3.8,1.5-3.9,3.5s1.5,3.8,3.5,3.9
		c0.1,0,0.3,0,0.4,0h48.3c2-0.1,3.6-1.8,3.5-3.9C1229.3,571.8,1227.8,570.3,1225.9,570.2z"/>
</g>
<g class="st8">
	<path class="st10" d="M1399.3,435.8c-3.8,0-6.9-3.1-6.9-6.9s3.1-6.9,6.9-6.9c3.8,0,6.9,3.1,6.9,6.9
		C1406.2,432.7,1403.1,435.7,1399.3,435.8z"/>
	<path class="st1" d="M1399.3,422.7c3.4,0,6.2,2.8,6.2,6.2s-2.8,6.2-6.2,6.2c-3.4,0-6.2-2.8-6.2-6.2
		C1393.1,425.4,1395.9,422.7,1399.3,422.7 M1399.3,421.2c-4.2,0-7.6,3.4-7.6,7.6c0,4.2,3.4,7.6,7.6,7.6c4.2,0,7.6-3.4,7.6-7.6v0
		C1406.9,424.6,1403.5,421.2,1399.3,421.2z"/>
</g>
<g class="st15">
	<path class="st16" d="M1205.2,450l34.3,20.6l-37.7,17.1l-32.6-20.6L1205.2,450 M1205.2,446.6c-0.5,0-1,0.1-1.5,0.3l-36,17.1
		c-1.1,0.5-1.9,1.6-1.9,2.9c-0.1,1.2,0.5,2.4,1.6,3.1l32.6,20.6c0.5,0.3,1.2,0.5,1.8,0.5c0.5,0,1-0.1,1.4-0.3l37.7-17.1
		c1.7-0.8,2.4-2.8,1.6-4.6c-0.3-0.6-0.7-1.1-1.3-1.4l-34.3-20.6C1206.5,446.9,1205.9,446.7,1205.2,446.6L1205.2,446.6z"/>
	<path class="st16" d="M1199.2,533.1c-0.3,0-0.6-0.1-0.9-0.2l-32.6-18.8c-0.5-0.3-0.9-0.9-0.8-1.6l1.7-46.2c0.1-0.9,0.9-1.6,1.9-1.5
		c0.9,0.1,1.5,0.8,1.5,1.7l-1.7,45.2l29.2,16.9l1.6-40c0-0.9,0.8-1.7,1.8-1.6s1.7,0.8,1.6,1.8l0,0l-1.7,42.8c0,0.6-0.4,1.1-0.9,1.4
		C1199.8,533,1199.5,533.1,1199.2,533.1z"/>
	<path class="st16" d="M1200.1,534c-0.9,0-1.7-0.8-1.7-1.7c0-0.7,0.4-1.3,1-1.5l37.6-17.5l1.7-41.8c0.1-0.9,0.9-1.6,1.9-1.5
		c0.9,0.1,1.5,0.8,1.5,1.7l-1.7,42.8c0,0.6-0.4,1.2-1,1.5l-38.5,18C1200.6,533.9,1200.4,534,1200.1,534z"/>
</g>
<path class="st17" d="M762.5,199.7"/>
<g class="st18">
	<path class="st1" d="M82.1,472l-2.5,9.2h-8.3l10.9-35.7h10.6l11.1,35.7h-8.7l-2.7-9.2H82.1z M91.1,466l-2.2-7.6
		c-0.6-2.1-1.2-4.8-1.8-6.9H87c-0.5,2.1-1.1,4.8-1.6,6.9l-2.1,7.6H91.1z"/>
	<path class="st1" d="M144,443.6v29.8c0,2.9,0.1,6,0.2,7.7h-7.2l-0.3-3.8h-0.1c-1.6,2.9-4.8,4.4-8.1,4.4c-6.1,0-11.1-5.2-11.1-13.3
		c0-8.7,5.4-13.8,11.6-13.8c3.2,0,5.7,1.1,6.8,2.9h0.1v-14H144z M135.9,466.3c0-0.5,0-1-0.1-1.5c-0.5-2.2-2.2-3.9-4.7-3.9
		c-3.7,0-5.6,3.3-5.6,7.4c0,4.4,2.1,7.1,5.5,7.1c2.3,0,4.2-1.6,4.7-3.9c0.1-0.6,0.2-1.2,0.2-1.8V466.3z"/>
	<path class="st1" d="M176,468c0,9.5-6.7,13.8-13.6,13.8c-7.5,0-13.4-5-13.4-13.3c0-8.4,5.5-13.7,13.8-13.7
		C170.7,454.7,176,460.1,176,468z M157.3,468.2c0,4.4,1.9,7.8,5.3,7.8c3.1,0,5.1-3.1,5.1-7.8c0-3.8-1.5-7.7-5.1-7.7
		C158.7,460.4,157.3,464.4,157.3,468.2z"/>
	<path class="st1" d="M200.6,480.5c-1.4,0.7-4.1,1.2-7.2,1.2c-8.4,0-13.7-5.1-13.7-13.3c0-7.6,5.2-13.8,14.8-13.8
		c2.1,0,4.5,0.4,6.1,1l-1.3,6c-1-0.4-2.4-0.8-4.5-0.8c-4.3,0-7,3-7,7.3c0,4.8,3.2,7.3,7.1,7.3c1.9,0,3.4-0.3,4.6-0.8L200.6,480.5z"
		/>
	<path class="st1" d="M229.5,472.9c0,3.4,0.1,6.1,0.2,8.3h-7l-0.4-3.7h-0.2c-1,1.6-3.4,4.2-8.1,4.2c-5.3,0-9.1-3.3-9.1-11.3v-15.2
		h8.1v13.9c0,3.8,1.2,6.1,4.1,6.1c2.2,0,3.5-1.5,4-2.8c0.2-0.5,0.3-1.1,0.3-1.7v-15.4h8.1V472.9z"/>
	<path class="st1" d="M235.9,463.5c0-3.2-0.1-6-0.2-8.3h6.8l0.3,3.5h0.2c1.1-1.6,3.4-4.1,7.8-4.1c3.4,0,6,1.7,7.1,4.4h0.1
		c1-1.4,2.1-2.4,3.4-3.2c1.4-0.8,3-1.3,4.9-1.3c4.9,0,8.7,3.5,8.7,11.2v15.2h-7.8v-14.1c0-3.8-1.2-5.9-3.8-5.9
		c-1.9,0-3.2,1.3-3.7,2.8c-0.2,0.6-0.3,1.4-0.3,2v15.1h-7.8v-14.5c0-3.3-1.2-5.5-3.7-5.5c-2.1,0-3.3,1.6-3.8,2.9
		c-0.2,0.6-0.3,1.4-0.3,2v15.1h-7.8V463.5z"/>
	<path class="st1" d="M287.6,470.8c0.2,3.3,3.5,4.9,7.3,4.9c2.7,0,5-0.4,7.1-1.1l1.1,5.4c-2.7,1.1-5.9,1.6-9.4,1.6
		c-8.8,0-13.8-5.1-13.8-13.2c0-6.6,4.1-13.9,13.1-13.9c8.4,0,11.6,6.5,11.6,12.9c0,1.4-0.1,2.6-0.3,3.2H287.6z M297.1,465.3
		c0-1.9-0.9-5.2-4.5-5.2c-3.4,0-4.8,3.1-5,5.2H297.1z"/>
	<path class="st1" d="M309.4,463.5c0-3.2-0.1-6-0.2-8.3h7l0.4,3.6h0.2c1-1.7,3.7-4.2,8-4.2c5.3,0,9.3,3.5,9.3,11.1v15.3h-8.1v-14.4
		c0-3.3-1.2-5.6-4.1-5.6c-2.2,0-3.5,1.6-4.1,3c-0.2,0.5-0.3,1.3-0.3,2v14.9h-8.1V463.5z"/>
	<path class="st1" d="M349,447.9v7.4h5.8v5.9H349v9.4c0,3.1,0.8,4.6,3.2,4.6c1,0,1.8-0.1,2.4-0.2l0.1,6.1c-1,0.4-3,0.7-5.2,0.7
		c-2.6,0-4.8-0.9-6.1-2.2c-1.5-1.5-2.2-4-2.2-7.7v-10.6h-3.4v-5.9h3.4v-5.6L349,447.9z"/>
	<path class="st1" d="M384.9,481.2l-0.5-2.6h-0.2c-1.7,2.1-4.3,3.2-7.4,3.2c-5.3,0-8.4-3.8-8.4-7.9c0-6.7,6-9.9,15.2-9.9v-0.3
		c0-1.4-0.7-3.3-4.7-3.3c-2.6,0-5.4,0.9-7.1,1.9l-1.5-5.2c1.8-1,5.3-2.3,10.1-2.3c8.6,0,11.3,5.1,11.3,11.2v9c0,2.5,0.1,4.8,0.4,6.3
		H384.9z M383.9,468.9c-4.2,0-7.5,1-7.5,4.1c0,2.1,1.4,3.1,3.2,3.1c2,0,3.6-1.3,4.2-3c0.1-0.4,0.2-0.9,0.2-1.4V468.9z"/>
	<path class="st1" d="M422.5,472.9c0,3.4,0.1,6.1,0.2,8.3h-7l-0.4-3.7h-0.2c-1,1.6-3.4,4.2-8.1,4.2c-5.3,0-9.1-3.3-9.1-11.3v-15.2
		h8.1v13.9c0,3.8,1.2,6.1,4.1,6.1c2.2,0,3.5-1.5,4-2.8c0.2-0.5,0.3-1.1,0.3-1.7v-15.4h8.1V472.9z"/>
	<path class="st1" d="M437.9,447.9v7.4h5.8v5.9h-5.8v9.4c0,3.1,0.8,4.6,3.2,4.6c1,0,1.8-0.1,2.4-0.2l0.1,6.1c-1,0.4-3,0.7-5.2,0.7
		c-2.6,0-4.8-0.9-6.1-2.2c-1.5-1.5-2.2-4-2.2-7.7v-10.6h-3.4v-5.9h3.4v-5.6L437.9,447.9z"/>
	<path class="st1" d="M473.6,468c0,9.5-6.7,13.8-13.6,13.8c-7.5,0-13.4-5-13.4-13.3c0-8.4,5.5-13.7,13.8-13.7
		C468.3,454.7,473.6,460.1,473.6,468z M454.9,468.2c0,4.4,1.9,7.8,5.3,7.8c3.1,0,5.1-3.1,5.1-7.8c0-3.8-1.5-7.7-5.1-7.7
		C456.4,460.4,454.9,464.4,454.9,468.2z"/>
	<path class="st1" d="M478.6,463.5c0-3.2-0.1-6-0.2-8.3h6.8l0.3,3.5h0.2c1.1-1.6,3.4-4.1,7.8-4.1c3.4,0,6,1.7,7.1,4.4h0.1
		c1-1.4,2.1-2.4,3.4-3.2c1.4-0.8,3-1.3,4.9-1.3c4.9,0,8.7,3.5,8.7,11.2v15.2h-7.8v-14.1c0-3.8-1.2-5.9-3.8-5.9
		c-1.9,0-3.2,1.3-3.7,2.8c-0.2,0.6-0.3,1.4-0.3,2v15.1h-7.8v-14.5c0-3.3-1.2-5.5-3.7-5.5c-2.1,0-3.3,1.6-3.8,2.9
		c-0.2,0.6-0.3,1.4-0.3,2v15.1h-7.8V463.5z"/>
	<path class="st1" d="M538.8,481.2l-0.5-2.6h-0.2c-1.7,2.1-4.3,3.2-7.4,3.2c-5.3,0-8.4-3.8-8.4-7.9c0-6.7,6-9.9,15.2-9.9v-0.3
		c0-1.4-0.7-3.3-4.7-3.3c-2.6,0-5.4,0.9-7.1,1.9l-1.5-5.2c1.8-1,5.3-2.3,10.1-2.3c8.6,0,11.3,5.1,11.3,11.2v9c0,2.5,0.1,4.8,0.4,6.3
		H538.8z M537.8,468.9c-4.2,0-7.5,1-7.5,4.1c0,2.1,1.4,3.1,3.2,3.1c2,0,3.6-1.3,4.2-3c0.1-0.4,0.1-0.9,0.1-1.4V468.9z"/>
	<path class="st1" d="M560.6,447.9v7.4h5.8v5.9h-5.8v9.4c0,3.1,0.8,4.6,3.2,4.6c1,0,1.8-0.1,2.4-0.2l0.1,6.1c-1,0.4-3,0.7-5.2,0.7
		c-2.6,0-4.8-0.9-6.1-2.2c-1.5-1.5-2.2-4-2.2-7.7v-10.6h-3.4v-5.9h3.4v-5.6L560.6,447.9z"/>
	<path class="st1" d="M579.3,448.1c0,2.2-1.6,4-4.3,4c-2.5,0-4.2-1.8-4.2-4c0-2.3,1.7-4,4.3-4C577.6,444.1,579.3,445.8,579.3,448.1z
		 M571,481.2v-25.9h8.1v25.9H571z"/>
	<path class="st1" d="M611,468c0,9.5-6.7,13.8-13.6,13.8c-7.5,0-13.4-5-13.4-13.3c0-8.4,5.5-13.7,13.8-13.7
		C605.8,454.7,611,460.1,611,468z M592.3,468.2c0,4.4,1.9,7.8,5.3,7.8c3.1,0,5.1-3.1,5.1-7.8c0-3.8-1.5-7.7-5.1-7.7
		C593.8,460.4,592.3,464.4,592.3,468.2z"/>
	<path class="st1" d="M616,463.5c0-3.2-0.1-6-0.2-8.3h7l0.4,3.6h0.2c1-1.7,3.7-4.2,8-4.2c5.3,0,9.3,3.5,9.3,11.1v15.3h-8.1v-14.4
		c0-3.3-1.2-5.6-4.1-5.6c-2.2,0-3.5,1.6-4.1,3c-0.2,0.5-0.3,1.3-0.3,2v14.9H616V463.5z"/>
</g>
<g class="st18">
	<path class="st1" d="M273.8,544.7c-0.8-0.8-1.5-1.6-2.4-2.5c-2.3,1.8-5.6,3.1-9.8,3.1c-8.6,0-12.4-5.1-12.4-10.1
		c0-4.7,2.7-8.1,6.8-10.2l0-0.2c-1.5-1.7-2.7-4.3-2.7-6.9c0-4.5,3.6-9.4,10.7-9.4c5.5,0,9.7,3.2,9.7,8.4c0,3.6-2.1,6.7-7,9.2l0,0.2
		c2,2.3,4.2,4.9,5.9,6.7c1.5-2.2,2.5-5.5,3-8.7h7.2c-1,5.4-2.7,10-5.9,13.5c2,2.3,4.1,4.6,6.3,7H273.8z M267.7,537.6
		c-2.2-2.2-5.1-5.5-8-8.7c-1.5,1.1-2.8,2.6-2.8,4.9c0,3,2.3,5.6,5.9,5.6C264.9,539.4,266.6,538.6,267.7,537.6z M260.5,517.1
		c0,1.8,0.8,3.4,2.4,5.1c2.6-1.8,3.9-3.2,3.9-5.2c0-1.7-1-3.5-3.1-3.5C261.7,513.5,260.5,515.2,260.5,517.1z"/>
	<path class="st1" d="M314.4,541.4h-0.1c-1.6,2.5-4.2,3.8-7.7,3.8c-5.6,0-10.7-4.9-10.7-13.2c0-9.3,5.9-13.9,11.4-13.9
		c3.3,0,5.7,1.2,7.2,3.6l0.1,0l0.2-3h7.8c-0.1,2.5-0.2,5.1-0.2,7.8v28.6h-8.1V541.4z M314.4,529.6c0-0.4,0-0.9-0.1-1.3
		c-0.5-2.1-2.2-3.9-4.6-3.9c-3.7,0-5.6,3.1-5.6,7.3c0,4.3,2.1,7.2,5.5,7.2c2.3,0,4.1-1.6,4.6-3.7c0.2-0.5,0.2-1.2,0.2-1.8V529.6z"/>
	<path class="st1" d="M353.3,536.4c0,3.4,0.1,6.1,0.2,8.3h-7l-0.4-3.7h-0.2c-1,1.6-3.4,4.2-8.1,4.2c-5.3,0-9.1-3.3-9.1-11.3v-15.2
		h8.1v13.9c0,3.8,1.2,6.1,4.1,6.1c2.2,0,3.5-1.5,4-2.8c0.2-0.5,0.3-1.1,0.3-1.7v-15.4h8.1V536.4z"/>
	<path class="st1" d="M374.4,544.7l-0.5-2.6h-0.2c-1.7,2.1-4.3,3.2-7.4,3.2c-5.3,0-8.4-3.8-8.4-7.9c0-6.7,6-9.9,15.2-9.9V527
		c0-1.4-0.7-3.3-4.7-3.3c-2.6,0-5.4,0.9-7.1,1.9l-1.5-5.2c1.8-1,5.3-2.3,10.1-2.3c8.6,0,11.3,5.1,11.3,11.2v9c0,2.5,0.1,4.8,0.4,6.3
		H374.4z M373.5,532.4c-4.2,0-7.5,1-7.5,4.1c0,2.1,1.4,3.1,3.2,3.1c2,0,3.6-1.3,4.2-3c0.1-0.4,0.1-0.9,0.1-1.4V532.4z"/>
	<path class="st1" d="M387.6,507.1h8.1v37.6h-8.1V507.1z"/>
	<path class="st1" d="M410.5,511.6c0,2.2-1.6,4-4.3,4c-2.5,0-4.2-1.8-4.2-4c0-2.3,1.7-4,4.3-4C408.8,507.5,410.4,509.3,410.5,511.6z
		 M402.2,544.7v-25.9h8.1v25.9H402.2z"/>
	<path class="st1" d="M425.7,511.4v7.4h5.8v5.9h-5.8v9.4c0,3.1,0.8,4.6,3.2,4.6c1,0,1.8-0.1,2.4-0.2l0.1,6.1c-1,0.4-3,0.7-5.2,0.7
		c-2.6,0-4.8-0.9-6.1-2.2c-1.5-1.5-2.2-4-2.2-7.7v-10.6h-3.4v-5.9h3.4v-5.6L425.7,511.4z"/>
	<path class="st1" d="M442.4,518.8l3.9,12.7c0.4,1.5,0.9,3.5,1.3,4.8h0.2c0.4-1.4,0.8-3.3,1.1-4.8l3.2-12.7h8.6l-6,17
		c-3.7,10.3-6.2,14.4-9.1,17c-2.8,2.4-5.7,3.3-7.8,3.5l-1.7-6.8c1-0.2,2.3-0.7,3.5-1.4c1.2-0.6,2.6-1.9,3.3-3.2
		c0.3-0.4,0.5-0.8,0.5-1.2c0-0.3-0.1-0.7-0.4-1.3l-9.5-23.7H442.4z"/>
	<path class="st1" d="M474.7,537.6c1.5,0.9,4.6,1.9,6.9,1.9c2.4,0,3.5-0.8,3.5-2.1c0-1.3-0.8-2-3.8-3c-5.4-1.8-7.4-4.7-7.4-7.7
		c0-4.9,4.1-8.5,10.5-8.5c3,0,5.7,0.7,7.3,1.5l-1.4,5.5c-1.2-0.6-3.4-1.5-5.6-1.5c-2,0-3.1,0.8-3.1,2.1c0,1.2,1,1.9,4.2,3
		c4.9,1.7,7,4.2,7,8c0,4.8-3.8,8.4-11.2,8.4c-3.4,0-6.4-0.8-8.4-1.8L474.7,537.6z"/>
	<path class="st1" d="M523.2,531.4c0,9.5-6.7,13.8-13.6,13.8c-7.5,0-13.4-5-13.4-13.3c0-8.4,5.5-13.7,13.8-13.7
		C517.9,518.2,523.2,523.6,523.2,531.4z M504.5,531.7c0,4.4,1.9,7.8,5.3,7.8c3.1,0,5.1-3.1,5.1-7.8c0-3.8-1.5-7.7-5.1-7.7
		C506,523.9,504.5,527.9,504.5,531.7z"/>
	<path class="st1" d="M528.2,507.1h8.1v37.6h-8.1V507.1z"/>
	<path class="st1" d="M567.1,536.4c0,3.4,0.1,6.1,0.2,8.3h-7L560,541h-0.2c-1,1.6-3.4,4.2-8.1,4.2c-5.3,0-9.1-3.3-9.1-11.3v-15.2
		h8.1v13.9c0,3.8,1.2,6.1,4.1,6.1c2.2,0,3.5-1.5,4-2.8c0.2-0.5,0.3-1.1,0.3-1.7v-15.4h8.1V536.4z"/>
	<path class="st1" d="M582.6,511.4v7.4h5.8v5.9h-5.8v9.4c0,3.1,0.8,4.6,3.2,4.6c1,0,1.8-0.1,2.4-0.2l0.1,6.1c-1,0.4-3,0.7-5.2,0.7
		c-2.6,0-4.8-0.9-6.1-2.2c-1.5-1.5-2.2-4-2.2-7.7v-10.6h-3.4v-5.9h3.4v-5.6L582.6,511.4z"/>
	<path class="st1" d="M601.3,511.6c0,2.2-1.6,4-4.3,4c-2.5,0-4.2-1.8-4.2-4c0-2.3,1.7-4,4.3-4C599.6,507.5,601.2,509.3,601.3,511.6z
		 M593,544.7v-25.9h8.1v25.9H593z"/>
	<path class="st1" d="M633,531.4c0,9.5-6.7,13.8-13.6,13.8c-7.5,0-13.4-5-13.4-13.3c0-8.4,5.5-13.7,13.8-13.7
		C627.8,518.2,633,523.6,633,531.4z M614.3,531.7c0,4.4,1.9,7.8,5.3,7.8c3.1,0,5.1-3.1,5.1-7.8c0-3.8-1.5-7.7-5.1-7.7
		C615.8,523.9,614.3,527.9,614.3,531.7z"/>
	<path class="st1" d="M638,527c0-3.2-0.1-6-0.2-8.3h7l0.4,3.6h0.2c1-1.7,3.7-4.2,8-4.2c5.3,0,9.3,3.5,9.3,11.1v15.3h-8.1v-14.4
		c0-3.3-1.2-5.6-4.1-5.6c-2.2,0-3.5,1.6-4.1,3c-0.2,0.5-0.3,1.3-0.3,2v14.9H638V527z"/>
	<path class="st1" d="M668.4,540.4c0-2.9,2-4.9,4.8-4.9c2.8,0,4.7,2,4.7,4.9c0,2.8-1.9,4.9-4.8,4.9
		C670.4,545.2,668.4,543.2,668.4,540.4z"/>
</g>
<path class="st19" d="M99.4,27.8c-1,1.9-2,3.8-3,5.7l-6.6,12.6c-0.1,0.1-0.1,0.4-0.3,0.4s-0.5,0-0.6-0.3c-2-6.8-3.9-13.6-5.9-20.3
	l-3.7-12.8c-0.1-0.5-0.1-0.5,0.4-0.5c1.9,0,3.7,0,5.5,0c0.3,0,0.5,0.1,0.6,0.4c0,0,0,0,0,0c1.9,6.1,3.8,12.2,5.6,18.3
	c0,0.1,0.1,0.2,0.1,0.4l1.6-3.3c2-4.1,4-8.2,5.9-12.3c0.1-0.2,0.2-0.3,0.4-0.3c0.2,0,0.4,0.1,0.4,0.3l7.1,14.9l0.3,0.7
	c0.6-1.9,1.2-3.8,1.8-5.7l4-13c0.1-0.2,0.1-0.4,0.4-0.4c2,0,4.1,0,6.1,0h0.2c-0.5,1.9-1.1,3.8-1.7,5.8c-2.7,9.3-5.3,18.5-8,27.8
	c0,0.2,0,0.4-0.3,0.4s-0.4-0.1-0.6-0.4c-3.2-5.9-6.4-11.9-9.6-17.8L99.4,27.8z"/>
<path class="st19" d="M207.5,46h-7.2c-0.3,0-0.5-0.1-0.7-0.3c-3.3-4.1-6.6-8.1-9.9-12.2l-0.2-0.3v0.6c0,3.9,0,7.9,0,11.8
	c0,0.4-0.1,0.5-0.5,0.5c-1.9,0-3.7,0-5.6,0c-0.4,0-0.4-0.1-0.4-0.4V12.9c0-0.2-0.1-0.4,0.3-0.4c3.9,0,7.8,0,11.7,0
	c2.2,0,4.3,0.5,6.3,1.4c2,1.1,3.5,2.9,4.2,5.1c1.5,3.8,0.6,8.2-2.2,11.2c-1.3,1.4-3.1,2.2-4.9,2.5c-0.5,0.1-0.9,0.2-1.5,0.3
	L207.5,46z M189.4,22.8v5c0,0.2-0.1,0.4,0.2,0.4c1.9,0,3.8,0.1,5.8-0.1c2.6-0.1,4.6-2.2,4.7-4.8c0.2-3-1.1-5.3-4.6-5.8
	c-1.9-0.2-3.9-0.1-5.8-0.1c-0.3,0-0.2,0.2-0.2,0.4V22.8z"/>
<path class="st19" d="M279.8,21.5l-3.1,3.2c-2,2-4,4.1-6,6.1c-0.2,0.2-0.2,0.4,0,0.6l9.4,14.1c0.1,0.1,0.2,0.3,0.2,0.4
	c-0.1,0.1-0.3,0.1-0.4,0.1h-6.5c-0.3,0-0.5-0.1-0.6-0.4c-2.1-3.2-4.2-6.4-6.3-9.5c-0.2-0.3-0.3-0.4-0.6-0.1
	c-0.7,0.7-1.4,1.4-2.1,2.1c-0.2,0.2-0.2,0.4-0.2,0.6c0,2.3,0,4.6,0,6.9c0,0.3-0.1,0.4-0.4,0.4c-1.9,0-3.7,0-5.5,0
	c-0.3,0-0.4,0-0.4-0.4c0-10.9,0-21.9,0-32.8c0-0.3,0.1-0.4,0.4-0.4c1.9,0,3.7,0,5.6,0c0.4,0,0.4,0.1,0.4,0.4v18.5l2.6-2.9l6-6.6
	c0.1-0.1,0.2-0.3,0.4-0.3L279.8,21.5z"/>
<path class="st19" d="M231.6,33.7c0.1,2.3-0.4,4.6-1.5,6.7c-1.5,3-4.3,5.1-7.5,5.8c-2.6,0.7-5.4,0.5-8-0.3c-3.2-1-5.8-3.4-6.9-6.6
	c-1.5-3.8-1.4-8.1,0.4-11.8c1.5-3.2,4.5-5.5,8-6.1c2.7-0.6,5.4-0.4,8,0.6c3.6,1.3,6.2,4.4,7,8.2C231.4,31.2,231.6,32.4,231.6,33.7z
	 M225,33.9c0.1-1.6-0.2-3.3-0.9-4.8c-0.8-1.9-2.6-3.3-4.7-3.3c-2.3-0.2-4.5,1.1-5.3,3.3c-1,2.4-1.2,5-0.6,7.5
	c0.3,1.4,0.9,2.6,1.9,3.6c2.2,2,5.6,1.9,7.6-0.3c0.3-0.3,0.5-0.6,0.7-0.9C224.6,37.4,225.1,35.7,225,33.9L225,33.9z"/>
<path class="st20" d="M132.2,35.3h-8c-0.2,0-0.4-0.1-0.4,0.3c0.1,1.7,0.7,3.2,1.9,4.4c1.2,1.1,2.7,1.7,4.3,1.7
	c2.7,0.1,5.3-0.7,7.5-2.3c0.2-0.2,0.3-0.2,0.5,0.1c0.6,1,1.1,2.1,1.8,3.1c0.2,0.4,0.1,0.6-0.2,0.8c-1.6,1.2-3.4,2.1-5.4,2.5
	c-2.6,0.7-5.4,0.7-8.1,0.1c-3.8-0.8-6.9-3.7-8-7.4c-1.2-3.5-1.1-7.2,0.3-10.6c1.4-3.5,4.5-6.1,8.2-6.7c2.4-0.6,4.9-0.4,7.2,0.5
	c3.1,1.2,5.4,3.9,6.2,7.2c0.5,2,0.6,4,0.5,6c0,0.3-0.2,0.3-0.4,0.3L132.2,35.3L132.2,35.3z M129.2,31.1h4.3c1.2,0,1.2,0,1-1.2
	c-0.1-1.9-1.3-3.5-3-4.1c-1.9-0.8-4.1-0.4-5.7,0.9c-1.1,1-1.8,2.4-2,3.9c-0.1,0.6-0.1,0.6,0.5,0.6H129.2z"/>
<path class="st19" d="M145.1,38.4c1.6,1.5,3.6,2.6,5.8,3c1.3,0.3,2.6,0.3,3.9-0.1c0.6-0.2,1.1-0.6,1.4-1.1c0.4-0.8,0.2-1.7-0.5-2.2
	c-0.7-0.5-1.5-0.9-2.4-1.1c-1.9-0.5-3.7-1.2-5.5-1.9c-1.3-0.5-2.4-1.3-3.2-2.3c-2.2-3.2-1.5-7.5,1.6-9.8c0,0,0,0,0.1,0
	c1.6-1,3.4-1.7,5.3-1.8c3.5-0.4,7.1,0.5,10,2.5c0.9,0.6,0.9,0.6,0.3,1.6s-1.2,1.9-1.7,2.8c-0.1,0.3-0.3,0.3-0.5,0.1
	c-1.5-1.2-3.3-1.9-5.1-2.3c-1.1-0.2-2.3-0.2-3.5,0.1c-1,0.1-1.8,1.1-1.6,2.1c0.1,0.6,0.4,1.1,1,1.4c0.7,0.4,1.5,0.7,2.3,0.9
	c1.7,0.5,3.5,1.1,5.1,1.7c1.7,0.6,3.2,1.8,4.1,3.4c1.4,2.9,0.7,6.4-1.7,8.5c-1.4,1.3-3.2,2.1-5.1,2.3c-4,0.7-8.2-0.2-11.5-2.6
	c-0.5-0.3-0.9-0.7-1.4-1.1c-0.1-0.1-0.2-0.2-0.1-0.4L145.1,38.4z"/>
<path class="st19" d="M233.2,34.1c-0.1-2.8,0.6-5.6,2.2-7.9c1.8-2.7,4.7-4.5,8-4.9c3.2-0.6,6.6,0,9.3,1.8c0.8,0.5,1.5,1.1,2.1,1.8
	c0.1,0.1,0.2,0.3,0,0.5c0,0,0,0,0,0c-0.9,1.1-1.7,2.3-2.5,3.4c-0.2,0.2-0.3,0.2-0.5,0c-1.2-1.2-2.8-2.1-4.5-2.4
	c-3.2-0.5-6.9,0.9-7.6,5.4c-0.4,2-0.2,4.1,0.7,5.9c0.9,1.9,2.7,3.2,4.8,3.3c2.5,0.3,5-0.6,6.8-2.4c0.2-0.2,0.3-0.2,0.5,0
	c0.8,1.2,1.5,2.4,2.4,3.5c0.2,0.3,0.1,0.5-0.1,0.8c-1.5,1.6-3.5,2.7-5.7,3.1c-2.8,0.8-5.9,0.6-8.6-0.4c-3.7-1.4-6.4-4.7-7-8.6
	C233.3,36,233.2,35,233.2,34.1z"/>
<path class="st20" d="M166.9,33.4c0-2.2,0-4.5,0-6.7c0-0.4-0.1-0.5-0.5-0.5c-0.9,0-1.8,0-2.6,0c-0.2,0-0.4-0.1-0.4-0.3
	c0-1.3,0-2.7,0-4c0-0.3,0.1-0.3,0.4-0.3c0.9,0,1.8,0,2.7,0c0.4,0,0.5-0.1,0.5-0.5c0-1.8,0-3.6,0-5.5c0-0.3,0.1-0.4,0.4-0.4h5.3
	c0.3,0,0.4,0.1,0.4,0.4c0,1.8,0,3.7,0,5.5c0,0.3,0.1,0.4,0.4,0.4c1.9,0,3.8,0,5.6,0c0.4,0,0.5,0.1,0.4,0.5c0,1.3,0,2.5,0,3.8
	c0,0.4-0.1,0.4-0.5,0.4h-5.6c-0.3,0-0.4,0.1-0.4,0.4c0,3.7,0,7.5,0,11.2c0,0.5,0.1,1.1,0.2,1.6c0.2,1.4,1.5,2.3,2.9,2.2
	c0.8,0,1.6-0.1,2.4-0.3c0.3-0.1,0.4,0,0.4,0.3c0.2,1.3,0.4,2.6,0.5,3.9c0,0.1,0.1,0.3-0.2,0.3c-2.6,0.8-5.3,0.9-8,0.4
	c-2.4-0.6-4.2-2.7-4.4-5.2c-0.1-0.8-0.1-1.6-0.1-2.4L166.9,33.4z"/>
<path class="st21" d="M10.6,29.2l5.2-0.7l8.7-1.2l10-1.4c1.8-0.3,3.6-0.5,5.4-0.8c0.8-0.1,1.6,0,2.3,0.2c4.4,0.6,8.8,1.2,13.3,1.9
	l11.2,1.6c1.2,0.2,2.4,0.3,3.6,0.6l-3.9,0.6L57.8,31l-10.1,1.4l-6.7,1c-0.7,0-1.4,0-2.1-0.2c-4-0.6-8.1-1.1-12.1-1.7l-12.5-1.8
	L10.6,29.2L10.6,29.2z"/>
<path class="st22" d="M70.2,33l-3.1,1.4L40.9,45.9c-0.2,0.1-0.5,0.1-0.7,0l-29-12.8c-0.1-0.1-0.2-0.1-0.3-0.2c1,0.2,2,0.4,3,0.6
	l19.6,4.1c2.2,0.5,4.5,0.9,6.8,1.4c0.3,0,0.6,0,0.9-0.1l24.6-5.1l4.1-0.9L70.2,33L70.2,33z"/>
<path class="st22" d="M70.2,25.6L67.3,25l-18.4-3.8l-8-1.7c-0.6,0-1.2,0-1.8,0.2c-9.3,1.9-18.6,3.8-27.9,5.8c-0.1,0.1-0.2,0.1-0.3,0
	l3.2-1.4l25.9-11.4c0.4-0.2,0.9-0.2,1.4,0C50.8,17,60.4,21.2,70,25.4L70.2,25.6L70.2,25.6z"/>
<path class="st20" d="M70.1,21.8L67,20.2l-17.4-9c-2.9-1.5-5.8-3-8.7-4.5c-0.3-0.2-0.6-0.2-0.9,0L16.3,19l-5,2.6
	c-0.1,0.1-0.3,0.2-0.4,0.1L40.1,0.2c0.2-0.2,0.6-0.2,0.8,0c0,0,0,0,0,0l28.8,21.2C69.8,21.5,70,21.6,70.1,21.8z"/>
<path class="st20" d="M70.1,36.8l-0.7,0.5c-9.5,7-19,14-28.4,21c-0.2,0.2-0.6,0.2-0.8,0c0,0,0,0,0,0C30.5,51.2,20.9,44.1,11.2,37
	c-0.1-0.1-0.3-0.1-0.3-0.3c0.1-0.1,0.2,0.1,0.3,0.1c9.4,4.8,18.7,9.6,28,14.5c0.8,0.5,1.7,0.5,2.5,0c6.9-3.6,13.8-7.2,20.7-10.8
	l7.1-3.6C69.7,36.8,69.9,36.7,70.1,36.8z"/>
<path class="st22" d="M10.7,25.6L10.7,25.6L10.7,25.6z"/>
<path class="st22" d="M10.6,32.9L10.6,32.9L10.6,32.9L10.6,32.9z"/>
<path class="st20" d="M70.1,21.8L70.1,21.8L70.1,21.8L70.1,21.8L70.1,21.8z"/>
<path class="st20" d="M10.8,36.7L10.8,36.7L10.8,36.7L10.8,36.7z"/>
<path class="st23" d="M833.4,78.3H19.3c-9.8,0-17.8,8-17.8,17.8l0,0v95.3c0,9.8,8,17.8,17.8,17.8h713l76.4,55.9
	c3.7,2.7,8.8,1.9,11.4-1.8c1.3-1.7,1.8-3.9,1.5-6l-7.3-48h19.1c9.8,0,17.8-8,17.8-17.8v0V96.1C851.2,86.3,843.2,78.3,833.4,78.3
	C833.4,78.3,833.4,78.3,833.4,78.3z"/>
<g class="st18">
	<path class="st9" d="M69.2,115.3c4.5-0.7,10.3-1.2,16.3-1.2c10.2,0,16.8,1.9,21.9,5.7c5.6,4.2,9.1,10.7,9.1,20.1
		c0,10.3-3.7,17.4-8.9,21.7c-5.6,4.7-14.3,6.9-24.7,6.9c-6.3,0-10.8-0.4-13.7-0.8V115.3z M81.3,159c1.1,0.2,2.7,0.2,4.2,0.2
		c11,0.1,18.2-6,18.2-18.8c0-11.1-6.5-17-16.9-17c-2.6,0-4.4,0.2-5.5,0.5V159z"/>
	<path class="st9" d="M129.3,152.6c0.4,5,5.3,7.4,11,7.4c4.1,0,7.4-0.5,10.7-1.6l1.6,8.2c-4,1.6-8.9,2.5-14.1,2.5
		c-13.2,0-20.7-7.7-20.7-19.8c0-9.9,6.2-20.8,19.6-20.8c12.6,0,17.4,9.8,17.4,19.4c0,2.1-0.2,3.9-0.4,4.8H129.3z M143.5,144.3
		c0-2.9-1.3-7.9-6.8-7.9c-5.1,0-7.2,4.7-7.5,7.9H143.5z"/>
	<path class="st9" d="M157.9,157.6c2.2,1.4,6.8,2.9,10.4,2.9c3.6,0,5.2-1.2,5.2-3.2c0-2-1.2-3-5.7-4.5c-8.1-2.7-11.1-7.1-11.1-11.6
		c0-7.3,6.2-12.8,15.8-12.8c4.5,0,8.6,1.1,10.9,2.3l-2.1,8.3c-1.7-0.9-5.1-2.2-8.4-2.2c-3,0-4.6,1.2-4.6,3.1c0,1.9,1.5,2.8,6.3,4.5
		c7.4,2.5,10.5,6.3,10.5,12c0,7.3-5.7,12.6-16.8,12.6c-5.1,0-9.6-1.1-12.6-2.7L157.9,157.6z"/>
	<path class="st9" d="M200.9,118.4c0,3.4-2.5,6-6.5,6c-3.8,0-6.3-2.7-6.3-6c0-3.5,2.5-6.1,6.4-6.1
		C198.4,112.4,200.8,115,200.9,118.4z M188.4,168.1v-38.9h12.1v38.9H188.4z"/>
	<path class="st9" d="M243.4,129.2c-0.2,2.5-0.3,5.8-0.3,11.6v21.6c0,7.5-1.5,13.6-5.9,17.5c-4.3,3.7-10,4.8-15.8,4.8
		c-5.1,0-10.5-1-14-3l2.4-9.2c2.4,1.4,6.7,2.9,11.3,2.9c5.7,0,10.1-3.1,10.1-10.2v-2.5H231c-2.3,3.2-6,5-10.5,5
		c-9.6,0-16.4-7.8-16.4-18.9c0-12.5,8.1-20.5,17.6-20.5c5.3,0,8.7,2.3,10.6,5.5h0.2l0.4-4.6H243.4z M230.9,145.1
		c0-0.8-0.1-1.6-0.2-2.2c-0.8-3.2-3.1-5.3-6.5-5.3c-4.4,0-7.9,4-7.9,11.1c0,5.8,2.9,10.3,7.9,10.3c3.1,0,5.6-2.1,6.4-4.9
		c0.3-0.9,0.3-2.2,0.3-3.2V145.1z"/>
	<path class="st9" d="M248.6,141.7c0-4.8-0.2-8.9-0.3-12.4h10.5l0.6,5.4h0.3c1.6-2.5,5.5-6.3,12-6.3c7.9,0,13.9,5.3,13.9,16.7v23
		h-12.1v-21.5c0-5-1.8-8.4-6.1-8.4c-3.3,0-5.3,2.3-6.1,4.6c-0.3,0.8-0.4,1.9-0.4,3v22.4h-12.1V141.7z"/>
	<path class="st9" d="M303.6,115.3c4.5-0.7,10.3-1.2,16.3-1.2c10.2,0,16.8,1.9,21.9,5.7c5.6,4.2,9.1,10.7,9.1,20.1
		c0,10.3-3.7,17.4-8.9,21.7c-5.6,4.7-14.3,6.9-24.7,6.9c-6.3,0-10.8-0.4-13.7-0.8V115.3z M315.7,159c1.1,0.2,2.7,0.2,4.2,0.2
		c11,0.1,18.2-6,18.2-18.8c0-11.1-6.5-17-16.9-17c-2.6,0-4.4,0.2-5.5,0.5V159z"/>
	<path class="st9" d="M392.8,148.3c0,14.2-10.1,20.7-20.5,20.7c-11.3,0-20.1-7.5-20.1-20c0-12.5,8.3-20.6,20.8-20.6
		C384.9,128.4,392.8,136.5,392.8,148.3z M364.7,148.7c0,6.6,2.8,11.7,8,11.7c4.7,0,7.7-4.7,7.7-11.7c0-5.7-2.2-11.6-7.7-11.6
		C366.9,137,364.7,142.9,364.7,148.7z"/>
	<path class="st9" d="M425.7,167.1c-2.2,1-6.2,1.8-10.8,1.8c-12.6,0-20.6-7.7-20.6-19.9c0-11.4,7.8-20.7,22.2-20.7
		c3.2,0,6.7,0.6,9.2,1.5l-1.9,9c-1.5-0.6-3.6-1.2-6.8-1.2c-6.4,0-10.5,4.5-10.4,10.9c0,7.1,4.8,10.9,10.6,10.9c2.9,0,5.1-0.5,7-1.3
		L425.7,167.1z"/>
	<path class="st9" d="M465.1,155.6c0,5.1,0.2,9.2,0.3,12.5H455l-0.6-5.5h-0.3c-1.5,2.4-5.1,6.4-12.1,6.4c-7.9,0-13.7-4.9-13.7-16.9
		v-22.9h12.1v20.9c0,5.7,1.8,9.1,6.1,9.1c3.3,0,5.2-2.3,6-4.3c0.3-0.7,0.4-1.6,0.4-2.6v-23.2h12.1V155.6z"/>
	<path class="st9" d="M470.9,141.7c0-4.8-0.2-8.9-0.3-12.4h10.2l0.5,5.3h0.3c1.6-2.5,5.1-6.1,11.7-6.1c5.1,0,9,2.6,10.6,6.7h0.2
		c1.5-2.1,3.2-3.6,5.1-4.7c2.1-1.3,4.5-1.9,7.4-1.9c7.4,0,13.1,5.3,13.1,16.9v22.9h-11.8V147c0-5.6-1.8-8.9-5.7-8.9
		c-2.8,0-4.7,1.9-5.6,4.2c-0.3,0.9-0.4,2.1-0.4,3.1v22.7h-11.8v-21.8c0-4.9-1.7-8.2-5.6-8.2c-3.1,0-4.9,2.4-5.7,4.3
		c-0.4,0.9-0.5,2-0.5,3.1v22.6h-11.8V141.7z"/>
	<path class="st9" d="M544.5,152.6c0.4,5,5.3,7.4,11,7.4c4.1,0,7.4-0.5,10.7-1.6l1.6,8.2c-4,1.6-8.9,2.5-14.1,2.5
		c-13.2,0-20.7-7.7-20.7-19.8c0-9.9,6.2-20.8,19.6-20.8c12.6,0,17.4,9.8,17.4,19.4c0,2.1-0.2,3.9-0.4,4.8H544.5z M558.7,144.3
		c0-2.9-1.3-7.9-6.8-7.9c-5.1,0-7.2,4.7-7.5,7.9H558.7z"/>
	<path class="st9" d="M573.2,141.7c0-4.8-0.2-8.9-0.3-12.4h10.5l0.6,5.4h0.3c1.6-2.5,5.5-6.3,12-6.3c7.9,0,13.9,5.3,13.9,16.7v23
		H598v-21.5c0-5-1.8-8.4-6.1-8.4c-3.3,0-5.3,2.3-6.1,4.6c-0.3,0.8-0.4,1.9-0.4,3v22.4h-12.1V141.7z"/>
	<path class="st9" d="M628.7,118.1v11.1h8.7v8.9h-8.7v14.1c0,4.7,1.2,6.8,4.8,6.8c1.6,0,2.8-0.2,3.6-0.4l0.1,9.2
		c-1.6,0.6-4.4,1-7.8,1c-3.9,0-7.2-1.4-9.1-3.4c-2.2-2.3-3.3-6-3.3-11.5v-15.9h-5.2v-8.9h5.2v-8.4L628.7,118.1z"/>
	<path class="st9" d="M653.3,155.6c3.2,1.7,8.2,3.4,13.4,3.4c5.6,0,8.5-2.3,8.5-5.8c0-3.3-2.6-5.2-9-7.5c-8.9-3.2-14.8-8-14.8-15.9
		c0-9.1,7.7-16.1,20.2-16.1c6.1,0,10.5,1.2,13.7,2.7l-2.7,9.7c-2.1-1-6-2.5-11.2-2.5c-5.3,0-7.8,2.4-7.8,5.2c0,3.4,3,4.9,9.9,7.5
		c9.5,3.5,13.9,8.5,13.9,16c0,8.9-6.8,16.6-21.6,16.6c-6.1,0-12.1-1.7-15.1-3.3L653.3,155.6z"/>
	<path class="st9" d="M728.1,155.6c0,5.1,0.2,9.2,0.3,12.5h-10.5l-0.6-5.5h-0.3c-1.5,2.4-5.1,6.4-12.1,6.4
		c-7.9,0-13.7-4.9-13.7-16.9v-22.9h12.1v20.9c0,5.7,1.8,9.1,6.1,9.1c3.3,0,5.2-2.3,6-4.3c0.3-0.7,0.4-1.6,0.4-2.6v-23.2h12.1V155.6z
		"/>
	<path class="st9" d="M746.3,118.4c0,3.4-2.5,6-6.5,6c-3.8,0-6.3-2.7-6.3-6c0-3.5,2.5-6.1,6.4-6.1
		C743.8,112.4,746.2,115,746.3,118.4z M733.8,168.1v-38.9h12.1v38.9H733.8z"/>
	<path class="st9" d="M765.1,118.1v11.1h8.7v8.9h-8.7v14.1c0,4.7,1.2,6.8,4.8,6.8c1.6,0,2.8-0.2,3.6-0.4l0.1,9.2
		c-1.6,0.6-4.4,1-7.8,1c-3.9,0-7.2-1.4-9.1-3.4c-2.2-2.3-3.3-6-3.3-11.5v-15.9h-5.2v-8.9h5.2v-8.4L765.1,118.1z"/>
	<path class="st9" d="M785.7,152.6c0.4,5,5.3,7.4,11,7.4c4.1,0,7.4-0.5,10.7-1.6l1.6,8.2c-4,1.6-8.9,2.5-14.1,2.5
		c-13.2,0-20.7-7.7-20.7-19.8c0-9.9,6.2-20.8,19.6-20.8c12.6,0,17.4,9.8,17.4,19.4c0,2.1-0.2,3.9-0.4,4.8H785.7z M799.9,144.3
		c0-2.9-1.3-7.9-6.8-7.9c-5.1,0-7.2,4.7-7.5,7.9H799.9z"/>
</g>
</svg>
