<?xml version="1.0" encoding="utf-8"?>
<!-- Generator: Adobe Illustrator 23.0.3, SVG Export Plug-In . SVG Version: 6.00 Build 0)  -->
<svg version="1.1" id="Layer_1" xmlns="http://www.w3.org/2000/svg" xmlns:xlink="http://www.w3.org/1999/xlink" x="0px" y="0px"
	 viewBox="0 0 1920 1080" style="enable-background:new 0 0 1920 1080;" xml:space="preserve">
<style type="text/css">
	.st0{fill:#174EFF;}
	.st1{fill:#003ABA;}
	.st2{fill:url(#SVGID_3_);}
</style>
<g>
	<path class="st0" d="M154.2,471.1h-7.4v-29.4h7.4V471.1z"/>
	<path class="st0" d="M181.2,471.1h-7.1v-12.4c0-1.4-0.2-2.4-0.7-3.1c-0.5-0.7-1.3-1-2.5-1c-1.1,0-2.1,0.4-2.7,1.2
		c-0.7,0.8-1.1,1.7-1.3,2.7v12.7h-7.1v-22h6.7l0.4,3.4c1.8-2.6,4.1-3.8,6.8-3.8c5,0,7.5,2.9,7.5,8.6V471.1z"/>
	<path class="st0" d="M207.6,471.1h-7.1v-12.4c0-1.4-0.2-2.4-0.7-3.1c-0.5-0.7-1.3-1-2.5-1c-1.1,0-2.1,0.4-2.7,1.2
		c-0.7,0.8-1.1,1.7-1.3,2.7v12.7h-7.1v-22h6.7l0.4,3.4c1.8-2.6,4.1-3.8,6.8-3.8c5,0,7.5,2.9,7.5,8.6V471.1z"/>
	<path class="st0" d="M231.1,451.7c2.1,2,3.2,4.8,3.2,8.4c0,3.6-1.1,6.4-3.2,8.4c-2.1,2.1-4.9,3.1-8.5,3.1s-6.4-1-8.5-3.1
		c-2.1-2.1-3.2-4.9-3.2-8.4c0-3.5,1.1-6.3,3.2-8.4c2.1-2.1,4.9-3.1,8.5-3.1C226.2,448.6,229,449.6,231.1,451.7z M227,460
		c0-1.8-0.4-3.3-1.1-4.4c-0.7-1.2-1.8-1.7-3.2-1.7c-1.5,0-2.6,0.6-3.3,1.7c-0.7,1.2-1.1,2.6-1.1,4.4c0,1.8,0.4,3.3,1.1,4.5
		c0.7,1.2,1.8,1.7,3.2,1.7c1.5,0,2.6-0.6,3.3-1.7C226.7,463.4,227,461.9,227,460z"/>
	<path class="st0" d="M259.1,449.1l-8.4,22h-7.5l-8.3-22h7.7l4.5,14.8l4.5-14.8H259.1z"/>
	<path class="st0" d="M281.4,471.1h-7.5c-0.3-0.8-0.5-1.6-0.5-2.4c-1.8,1.9-4,2.8-6.4,2.8c-2,0-3.7-0.5-5.2-1.6
		c-1.5-1.1-2.2-2.8-2.2-5.2c0-3.5,2.3-5.8,6.8-6.8c1.9-0.4,4.2-0.6,6.8-0.6v-0.7c0-2-1.4-3-4.1-3c-2.3,0-4.6,0.7-6.7,2l-1.8-4.8
		c2.8-1.5,5.9-2.2,9.3-2.2c3.4,0,6,0.7,7.7,2.1c1.8,1.5,2.7,3.8,2.7,6.8v8.3C280.3,468.1,280.7,469.8,281.4,471.1z M273.2,464.5
		v-3.3c-1.1,0-2.2,0.1-3.3,0.3c-2.1,0.4-3.1,1.3-3.1,2.7c0,0.9,0.3,1.6,0.8,2c0.5,0.4,1.2,0.6,2,0.6
		C271.2,466.8,272.4,466.1,273.2,464.5z"/>
	<path class="st0" d="M298,465.7l0.6,5c-1.6,0.6-3.4,0.8-5.5,0.8c-2.4,0-4.2-0.6-5.3-1.7c-1.2-1.1-1.8-3-1.8-5.5v-10.2h-3v-5.1h2.9
		l0.4-5.5h6.7v5.5h5.4v5.1h-5.4v8.6c0,1.3,0.2,2.1,0.5,2.5c0.4,0.5,1.1,0.7,2,0.7C296.7,466,297.4,465.9,298,465.7z"/>
	<path class="st0" d="M308.2,440.3c0.7,0.7,1.1,1.6,1.1,2.7c0,1.1-0.4,2-1.1,2.7s-1.7,1-2.8,1c-1.1,0-2.1-0.3-2.8-1
		c-0.7-0.7-1.1-1.6-1.1-2.7s0.4-2,1.1-2.7c0.7-0.7,1.7-1,2.8-1C306.5,439.3,307.4,439.7,308.2,440.3z M308.9,471.1h-7.1v-22h7.1
		V471.1z"/>
	<path class="st0" d="M332.7,451.7c2.1,2,3.2,4.8,3.2,8.4c0,3.6-1.1,6.4-3.2,8.4c-2.1,2.1-4.9,3.1-8.5,3.1s-6.4-1-8.5-3.1
		c-2.1-2.1-3.2-4.9-3.2-8.4c0-3.5,1.1-6.3,3.2-8.4c2.1-2.1,4.9-3.1,8.5-3.1C327.8,448.6,330.6,449.6,332.7,451.7z M328.6,460
		c0-1.8-0.4-3.3-1.1-4.4c-0.7-1.2-1.8-1.7-3.2-1.7c-1.5,0-2.6,0.6-3.3,1.7c-0.7,1.2-1.1,2.6-1.1,4.4c0,1.8,0.4,3.3,1.1,4.5
		c0.7,1.2,1.8,1.7,3.2,1.7c1.5,0,2.6-0.6,3.3-1.7C328.3,463.4,328.6,461.9,328.6,460z"/>
	<path class="st0" d="M361.1,471.1h-7.1v-12.4c0-1.4-0.2-2.4-0.7-3.1c-0.5-0.7-1.3-1-2.5-1c-1.1,0-2.1,0.4-2.7,1.2
		c-0.7,0.8-1.1,1.7-1.3,2.7v12.7h-7.1v-22h6.7l0.4,3.4c1.8-2.6,4.1-3.8,6.8-3.8c5,0,7.5,2.9,7.5,8.6V471.1z"/>
	<path class="st0" d="M386.8,465.7l0.6,5c-1.6,0.6-3.4,0.8-5.5,0.8c-2.4,0-4.2-0.6-5.3-1.7c-1.2-1.1-1.8-3-1.8-5.5v-10.2h-3v-5.1
		h2.9l0.4-5.5h6.7v5.5h5.4v5.1H382v8.6c0,1.3,0.2,2.1,0.5,2.5c0.4,0.5,1.1,0.7,2,0.7C385.5,466,386.2,465.9,386.8,465.7z"/>
	<path class="st0" d="M412.1,471.1h-7.1v-12.4c0-1.4-0.2-2.4-0.7-3.1c-0.5-0.7-1.3-1-2.5-1c-1.1,0-2.1,0.4-2.7,1.2
		c-0.7,0.8-1.1,1.7-1.3,2.7v12.7h-7.1v-30.3h7.1v11.7c1.8-2.6,4.1-3.8,6.8-3.8c5,0,7.5,2.9,7.5,8.6V471.1z"/>
	<path class="st0" d="M432,448.8l-0.8,6.7c-0.6-0.2-1.3-0.3-2-0.3c-1,0-1.8,0.2-2.5,0.7c-1.3,0.9-2.2,2.2-2.6,4v11.1h-7.1v-22h6.7
		l0.4,3.6c0.5-1.1,1.4-2.1,2.5-2.9c1.1-0.8,2.4-1.2,3.7-1.2c0.4,0,0.7,0,1,0.1c0.3,0,0.5,0.1,0.6,0.1L432,448.8z"/>
	<path class="st0" d="M452.7,451.7c2.1,2,3.2,4.8,3.2,8.4c0,3.6-1.1,6.4-3.2,8.4c-2.1,2.1-4.9,3.1-8.5,3.1s-6.4-1-8.5-3.1
		c-2.1-2.1-3.2-4.9-3.2-8.4c0-3.5,1.1-6.3,3.2-8.4c2.1-2.1,4.9-3.1,8.5-3.1C447.7,448.6,450.5,449.6,452.7,451.7z M448.5,460
		c0-1.8-0.4-3.3-1.1-4.4c-0.7-1.2-1.8-1.7-3.2-1.7c-1.5,0-2.6,0.6-3.3,1.7c-0.7,1.2-1.1,2.6-1.1,4.4c0,1.8,0.4,3.3,1.1,4.5
		c0.7,1.2,1.8,1.7,3.2,1.7c1.5,0,2.6-0.6,3.3-1.7C448.2,463.4,448.5,461.9,448.5,460z"/>
	<path class="st0" d="M480.5,471.1h-6.7l-0.4-3.4c-1.9,2.6-4.1,3.8-6.6,3.8c-5,0-7.5-2.9-7.5-8.6v-13.9h7.1v12.6c0,2.7,1.1,4,3.2,4
		c1.1,0,1.9-0.4,2.6-1.1c0.6-0.8,1-1.6,1.2-2.7v-12.8h7.1V471.1z"/>
	<path class="st0" d="M507.1,466c0,4.5-0.9,7.7-2.8,9.6c-2.3,2.3-5.4,3.5-9.5,3.5c-2,0-3.9-0.3-5.7-0.8c-1.8-0.5-3.2-1.1-4.3-1.7
		l2.2-5c2.4,1.4,4.9,2,7.4,2c2,0,3.5-0.5,4.4-1.4c0.8-0.8,1.3-2.1,1.3-3.8v-1.7c-0.2,0.4-0.6,0.8-1,1.3c-0.4,0.4-1.1,0.9-2.1,1.4
		c-1,0.5-2.1,0.7-3.3,0.7c-2.9,0-5.3-1-7-3c-1.7-2-2.6-4.6-2.6-7.8c0-3.2,0.9-5.8,2.6-7.8s4.1-3,7-3c1,0,1.8,0.1,2.6,0.4
		s1.4,0.6,1.9,1.1c0.5,0.4,0.8,0.8,1,1.1c0.2,0.3,0.4,0.6,0.6,0.8l0.5-2.9h6.7V466z M499,463.1c0.8-1,1.2-2.3,1.2-3.8
		s-0.4-2.8-1.1-3.8c-0.8-1-1.8-1.5-3.2-1.5s-2.5,0.5-3.2,1.5c-0.8,1-1.2,2.3-1.2,3.8c0,1.5,0.4,2.8,1.1,3.8c0.8,1,1.8,1.5,3.2,1.5
		C497.2,464.6,498.3,464.1,499,463.1z"/>
	<path class="st0" d="M533.6,471.1h-7.1v-12.4c0-1.4-0.2-2.4-0.7-3.1c-0.5-0.7-1.3-1-2.5-1c-1.1,0-2.1,0.4-2.7,1.2
		c-0.7,0.8-1.1,1.7-1.3,2.7v12.7h-7.1v-30.3h7.1v11.7c1.8-2.6,4.1-3.8,6.8-3.8c5,0,7.5,2.9,7.5,8.6V471.1z"/>
	<path class="st0" d="M566.7,471.1h-7.5c-0.3-0.8-0.5-1.6-0.5-2.4c-1.8,1.9-4,2.8-6.4,2.8c-2,0-3.7-0.5-5.2-1.6
		c-1.5-1.1-2.2-2.8-2.2-5.2c0-3.5,2.3-5.8,6.8-6.8c1.9-0.4,4.2-0.6,6.8-0.6v-0.7c0-2-1.4-3-4.1-3c-2.3,0-4.6,0.7-6.7,2l-1.8-4.8
		c2.8-1.5,5.9-2.2,9.3-2.2c3.4,0,6,0.7,7.7,2.1c1.8,1.5,2.7,3.8,2.7,6.8v8.3C565.7,468.1,566,469.8,566.7,471.1z M558.5,464.5v-3.3
		c-1.1,0-2.2,0.1-3.3,0.3c-2.1,0.4-3.1,1.3-3.1,2.7c0,0.9,0.3,1.6,0.8,2c0.5,0.4,1.2,0.6,2,0.6C556.6,466.8,557.8,466.1,558.5,464.5
		z"/>
	<path class="st0" d="M591.4,471.1h-6.7l-0.4-3.4c-1.9,2.6-4.1,3.8-6.6,3.8c-5,0-7.5-2.9-7.5-8.6v-13.9h7.1v12.6c0,2.7,1.1,4,3.2,4
		c1.1,0,1.9-0.4,2.6-1.1c0.6-0.8,1-1.6,1.2-2.7v-12.8h7.1V471.1z"/>
	<path class="st0" d="M609.5,465.7l0.6,5c-1.6,0.6-3.4,0.8-5.5,0.8c-2.4,0-4.2-0.6-5.3-1.7c-1.2-1.1-1.8-3-1.8-5.5v-10.2h-3v-5.1
		h2.9l0.4-5.5h6.7v5.5h5.4v5.1h-5.4v8.6c0,1.3,0.2,2.1,0.5,2.5c0.4,0.5,1.1,0.7,2,0.7C608.1,466,608.9,465.9,609.5,465.7z"/>
	<path class="st0" d="M632,451.7c2.1,2,3.2,4.8,3.2,8.4c0,3.6-1.1,6.4-3.2,8.4c-2.1,2.1-4.9,3.1-8.5,3.1s-6.4-1-8.5-3.1
		c-2.1-2.1-3.2-4.9-3.2-8.4c0-3.5,1.1-6.3,3.2-8.4c2.1-2.1,4.9-3.1,8.5-3.1C627,448.6,629.8,449.6,632,451.7z M627.9,460
		c0-1.8-0.4-3.3-1.1-4.4c-0.7-1.2-1.8-1.7-3.2-1.7c-1.5,0-2.6,0.6-3.3,1.7c-0.7,1.2-1.1,2.6-1.1,4.4c0,1.8,0.4,3.3,1.1,4.5
		c0.7,1.2,1.8,1.7,3.2,1.7c1.5,0,2.6-0.6,3.3-1.7C627.5,463.4,627.9,461.9,627.9,460z"/>
	<path class="st0" d="M673.1,471.1H666v-12.6c0-2.6-1-3.9-2.9-3.9c-1.1,0-1.9,0.4-2.5,1.2s-1,1.7-1.1,2.6v12.8h-7.1v-12.6
		c0-2.6-1-3.9-2.9-3.9c-1.1,0-1.9,0.4-2.5,1.2s-1,1.7-1.1,2.6v12.8h-7.1v-22h6.7l0.4,3.4c1.7-2.6,3.8-3.8,6.5-3.8
		c3.2,0,5.4,1.4,6.4,4.1c2-2.7,4.4-4.1,7.2-4.1c2.3,0,4,0.7,5.3,2.1c1.2,1.4,1.9,3.5,1.9,6.2V471.1z"/>
	<path class="st0" d="M698.4,471.1h-7.5c-0.3-0.8-0.5-1.6-0.5-2.4c-1.8,1.9-4,2.8-6.4,2.8c-2,0-3.7-0.5-5.2-1.6
		c-1.5-1.1-2.2-2.8-2.2-5.2c0-3.5,2.3-5.8,6.8-6.8c1.9-0.4,4.2-0.6,6.8-0.6v-0.7c0-2-1.4-3-4.1-3c-2.3,0-4.6,0.7-6.7,2l-1.8-4.8
		c2.8-1.5,5.9-2.2,9.3-2.2c3.4,0,6,0.7,7.7,2.1c1.8,1.5,2.7,3.8,2.7,6.8v8.3C697.3,468.1,697.7,469.8,698.4,471.1z M690.2,464.5
		v-3.3c-1.1,0-2.2,0.1-3.3,0.3c-2.1,0.4-3.1,1.3-3.1,2.7c0,0.9,0.3,1.6,0.8,2c0.5,0.4,1.2,0.6,2,0.6
		C688.2,466.8,689.4,466.1,690.2,464.5z"/>
	<path class="st0" d="M715,465.7l0.6,5c-1.6,0.6-3.4,0.8-5.5,0.8c-2.4,0-4.2-0.6-5.3-1.7c-1.2-1.1-1.8-3-1.8-5.5v-10.2h-3v-5.1h2.9
		l0.4-5.5h6.7v5.5h5.4v5.1h-5.4v8.6c0,1.3,0.2,2.1,0.5,2.5c0.4,0.5,1.1,0.7,2,0.7C713.6,466,714.4,465.9,715,465.7z"/>
	<path class="st0" d="M725.2,440.3c0.7,0.7,1.1,1.6,1.1,2.7c0,1.1-0.4,2-1.1,2.7s-1.7,1-2.8,1c-1.1,0-2.1-0.3-2.8-1
		c-0.7-0.7-1.1-1.6-1.1-2.7s0.4-2,1.1-2.7c0.7-0.7,1.7-1,2.8-1C723.5,439.3,724.4,439.7,725.2,440.3z M725.9,471.1h-7.1v-22h7.1
		V471.1z"/>
	<path class="st0" d="M749.7,451.7c2.1,2,3.2,4.8,3.2,8.4c0,3.6-1.1,6.4-3.2,8.4c-2.1,2.1-4.9,3.1-8.5,3.1s-6.4-1-8.5-3.1
		c-2.1-2.1-3.2-4.9-3.2-8.4c0-3.5,1.1-6.3,3.2-8.4c2.1-2.1,4.9-3.1,8.5-3.1C744.8,448.6,747.6,449.6,749.7,451.7z M745.6,460
		c0-1.8-0.4-3.3-1.1-4.4c-0.7-1.2-1.8-1.7-3.2-1.7c-1.5,0-2.6,0.6-3.3,1.7c-0.7,1.2-1.1,2.6-1.1,4.4c0,1.8,0.4,3.3,1.1,4.5
		c0.7,1.2,1.8,1.7,3.2,1.7c1.5,0,2.6-0.6,3.3-1.7C745.3,463.4,745.6,461.9,745.6,460z"/>
	<path class="st0" d="M778,471.1h-7.1v-12.4c0-1.4-0.2-2.4-0.7-3.1c-0.5-0.7-1.3-1-2.5-1c-1.1,0-2.1,0.4-2.7,1.2
		c-0.7,0.8-1.1,1.7-1.3,2.7v12.7h-7.1v-22h6.7l0.4,3.4c1.8-2.6,4.1-3.8,6.8-3.8c5,0,7.5,2.9,7.5,8.6V471.1z"/>
	<path class="st0" d="M791,467.7c0,1.1-0.4,2-1.1,2.8c-0.7,0.7-1.7,1.1-2.9,1.1c-1.2,0-2.1-0.4-2.9-1.1c-0.7-0.7-1.1-1.6-1.1-2.8
		c0-1.1,0.4-2,1.1-2.7c0.7-0.7,1.7-1.1,2.9-1.1s2.1,0.4,2.9,1.1C790.6,465.7,791,466.6,791,467.7z"/>
</g>
<g>
	<g>
		<path class="st1" d="M184.2,511.2h-4.3v12.8h-4v-12.8h-4.3v-3.1h12.5V511.2z"/>
		<path class="st1" d="M197.3,523.9h-3.9v-6.7c0-0.7-0.1-1.3-0.4-1.7c-0.3-0.4-0.7-0.6-1.3-0.6c-0.6,0-1.1,0.2-1.5,0.6
			c-0.4,0.4-0.6,0.9-0.7,1.4v6.8h-3.8v-16.3h3.8v6.3c1-1.4,2.2-2.1,3.7-2.1c2.7,0,4,1.5,4,4.6V523.9z"/>
		<path class="st1" d="M208,511.9l-0.4,3.6c-0.3-0.1-0.7-0.2-1.1-0.2c-0.5,0-1,0.1-1.4,0.4c-0.7,0.5-1.2,1.2-1.4,2.2v6h-3.8v-11.9
			h3.6l0.2,2c0.3-0.6,0.7-1.1,1.3-1.5s1.3-0.7,2-0.7c0.2,0,0.4,0,0.5,0C207.8,511.9,207.9,511.9,208,511.9L208,511.9z"/>
		<path class="st1" d="M219.2,513.5c1.1,1.1,1.7,2.6,1.7,4.5c0,1.9-0.6,3.4-1.7,4.5c-1.1,1.1-2.7,1.7-4.6,1.7
			c-1.9,0-3.4-0.6-4.6-1.7c-1.2-1.1-1.7-2.6-1.7-4.5c0-1.9,0.6-3.4,1.7-4.5c1.1-1.1,2.7-1.7,4.6-1.7
			C216.5,511.8,218,512.4,219.2,513.5z M217,518c0-1-0.2-1.8-0.6-2.4c-0.4-0.6-1-0.9-1.8-0.9c-0.8,0-1.4,0.3-1.8,0.9
			s-0.6,1.4-0.6,2.4c0,1,0.2,1.8,0.6,2.4s1,0.9,1.8,0.9c0.8,0,1.4-0.3,1.8-0.9C216.8,519.8,217,519,217,518z"/>
		<path class="st1" d="M234.2,523.9h-3.6l-0.2-1.8c-1,1.4-2.2,2.1-3.5,2.1c-2.7,0-4-1.5-4-4.6v-7.5h3.8v6.8c0,1.4,0.6,2.1,1.8,2.1
			c0.6,0,1-0.2,1.4-0.6c0.3-0.4,0.5-0.9,0.6-1.4v-6.9h3.9V523.9z"/>
		<path class="st1" d="M248.5,521.2c0,2.4-0.5,4.1-1.5,5.2c-1.2,1.3-2.9,1.9-5.1,1.9c-1.1,0-2.1-0.1-3.1-0.4c-1-0.3-1.7-0.6-2.3-0.9
			l1.2-2.7c1.3,0.7,2.7,1.1,4,1.1c1.1,0,1.9-0.3,2.4-0.8c0.5-0.5,0.7-1.1,0.7-2v-0.9c-0.1,0.2-0.3,0.4-0.5,0.7s-0.6,0.5-1.2,0.7
			c-0.5,0.3-1.1,0.4-1.8,0.4c-1.6,0-2.8-0.5-3.8-1.6c-0.9-1.1-1.4-2.5-1.4-4.2c0-1.7,0.5-3.1,1.4-4.2c0.9-1.1,2.2-1.6,3.8-1.6
			c0.5,0,1,0.1,1.4,0.2c0.4,0.2,0.8,0.3,1,0.6c0.3,0.2,0.4,0.4,0.6,0.6c0.1,0.2,0.2,0.3,0.3,0.4l0.3-1.6h3.6V521.2z M244.2,519.6
			c0.4-0.5,0.6-1.2,0.6-2s-0.2-1.5-0.6-2c-0.4-0.5-1-0.8-1.7-0.8s-1.3,0.3-1.8,0.8c-0.4,0.5-0.6,1.2-0.6,2c0,0.8,0.2,1.5,0.6,2
			c0.4,0.5,1,0.8,1.7,0.8S243.8,520.2,244.2,519.6z"/>
		<path class="st1" d="M262.8,523.9H259v-6.7c0-0.7-0.1-1.3-0.4-1.7c-0.3-0.4-0.7-0.6-1.3-0.6c-0.6,0-1.1,0.2-1.5,0.6
			c-0.4,0.4-0.6,0.9-0.7,1.4v6.8h-3.8v-16.3h3.8v6.3c1-1.4,2.2-2.1,3.7-2.1c2.7,0,4,1.5,4,4.6V523.9z"/>
		<path class="st1" d="M280.7,523.9h-4c-0.2-0.4-0.3-0.9-0.3-1.3c-1,1-2.1,1.5-3.5,1.5c-1.1,0-2-0.3-2.8-0.9
			c-0.8-0.6-1.2-1.5-1.2-2.8c0-1.9,1.2-3.1,3.7-3.7c1-0.2,2.3-0.3,3.7-0.3v-0.4c0-1.1-0.7-1.6-2.2-1.6c-1.3,0-2.5,0.4-3.6,1.1
			l-1-2.6c1.5-0.8,3.2-1.2,5-1.2c1.8,0,3.2,0.4,4.2,1.2c1,0.8,1.5,2,1.5,3.6v4.5C280.1,522.3,280.3,523.3,280.7,523.9z M276.3,520.4
			v-1.8c-0.6,0-1.2,0-1.8,0.2c-1.1,0.2-1.7,0.7-1.7,1.5c0,0.5,0.1,0.8,0.4,1.1c0.3,0.2,0.6,0.4,1.1,0.4
			C275.2,521.6,275.9,521.2,276.3,520.4z"/>
		<path class="st1" d="M294,523.9h-3.6l-0.2-1.8c-1,1.4-2.2,2.1-3.5,2.1c-2.7,0-4-1.5-4-4.6v-7.5h3.8v6.8c0,1.4,0.6,2.1,1.8,2.1
			c0.6,0,1-0.2,1.4-0.6c0.3-0.4,0.5-0.9,0.6-1.4v-6.9h3.9V523.9z"/>
		<path class="st1" d="M303.7,521l0.3,2.7c-0.9,0.3-1.8,0.5-3,0.5c-1.3,0-2.3-0.3-2.9-0.9c-0.6-0.6-1-1.6-1-3v-5.5h-1.6v-2.8h1.6
			l0.2-3h3.6v3h2.9v2.8h-2.9v4.6c0,0.7,0.1,1.1,0.3,1.3c0.2,0.3,0.6,0.4,1.1,0.4C303,521.2,303.4,521.2,303.7,521z"/>
		<path class="st1" d="M315.8,513.5c1.1,1.1,1.7,2.6,1.7,4.5c0,1.9-0.6,3.4-1.7,4.5c-1.1,1.1-2.7,1.7-4.6,1.7
			c-1.9,0-3.4-0.6-4.6-1.7c-1.2-1.1-1.7-2.6-1.7-4.5c0-1.9,0.6-3.4,1.7-4.5c1.1-1.1,2.7-1.7,4.6-1.7
			C313.2,511.8,314.7,512.4,315.8,513.5z M313.6,518c0-1-0.2-1.8-0.6-2.4c-0.4-0.6-1-0.9-1.8-0.9c-0.8,0-1.4,0.3-1.8,0.9
			s-0.6,1.4-0.6,2.4c0,1,0.2,1.8,0.6,2.4s1,0.9,1.8,0.9c0.8,0,1.4-0.3,1.8-0.9C313.4,519.8,313.6,519,313.6,518z"/>
		<path class="st1" d="M338,523.9h-3.8v-6.8c0-1.4-0.5-2.1-1.6-2.1c-0.6,0-1,0.2-1.3,0.6c-0.3,0.4-0.5,0.9-0.6,1.4v6.9h-3.8v-6.8
			c0-1.4-0.5-2.1-1.5-2.1c-0.6,0-1,0.2-1.3,0.6c-0.3,0.4-0.5,0.9-0.6,1.4v6.9h-3.8v-11.9h3.6l0.2,1.8c0.9-1.4,2.1-2.1,3.5-2.1
			c1.8,0,2.9,0.7,3.4,2.2c1.1-1.5,2.4-2.2,3.9-2.2c1.2,0,2.2,0.4,2.8,1.2c0.7,0.8,1,1.9,1,3.3V523.9z"/>
		<path class="st1" d="M351.7,523.9h-4c-0.2-0.4-0.3-0.9-0.3-1.3c-1,1-2.1,1.5-3.5,1.5c-1.1,0-2-0.3-2.8-0.9
			c-0.8-0.6-1.2-1.5-1.2-2.8c0-1.9,1.2-3.1,3.7-3.7c1-0.2,2.3-0.3,3.7-0.3v-0.4c0-1.1-0.7-1.6-2.2-1.6c-1.3,0-2.5,0.4-3.6,1.1
			l-1-2.6c1.5-0.8,3.2-1.2,5-1.2c1.8,0,3.2,0.4,4.2,1.2c1,0.8,1.5,2,1.5,3.6v4.5C351.1,522.3,351.3,523.3,351.7,523.9z M347.2,520.4
			v-1.8c-0.6,0-1.2,0-1.8,0.2c-1.1,0.2-1.7,0.7-1.7,1.5c0,0.5,0.1,0.8,0.4,1.1c0.3,0.2,0.6,0.4,1.1,0.4
			C346.2,521.6,346.8,521.2,347.2,520.4z"/>
		<path class="st1" d="M360.6,521l0.3,2.7c-0.9,0.3-1.8,0.5-3,0.5c-1.3,0-2.3-0.3-2.9-0.9c-0.6-0.6-1-1.6-1-3v-5.5h-1.6v-2.8h1.6
			l0.2-3h3.6v3h2.9v2.8H358v4.6c0,0.7,0.1,1.1,0.3,1.3c0.2,0.3,0.6,0.4,1.1,0.4C359.9,521.2,360.3,521.2,360.6,521z"/>
		<path class="st1" d="M366.1,507.4c0.4,0.4,0.6,0.9,0.6,1.5s-0.2,1.1-0.6,1.5c-0.4,0.4-0.9,0.6-1.5,0.6s-1.1-0.2-1.5-0.6
			c-0.4-0.4-0.6-0.8-0.6-1.4c0-0.6,0.2-1.1,0.6-1.5c0.4-0.4,0.9-0.6,1.5-0.6S365.7,507,366.1,507.4z M366.5,523.9h-3.8v-11.9h3.8
			V523.9z"/>
		<path class="st1" d="M379.3,513.5c1.1,1.1,1.7,2.6,1.7,4.5c0,1.9-0.6,3.4-1.7,4.5c-1.1,1.1-2.7,1.7-4.6,1.7
			c-1.9,0-3.4-0.6-4.6-1.7c-1.2-1.1-1.7-2.6-1.7-4.5c0-1.9,0.6-3.4,1.7-4.5c1.1-1.1,2.7-1.7,4.6-1.7
			C376.7,511.8,378.2,512.4,379.3,513.5z M377.1,518c0-1-0.2-1.8-0.6-2.4c-0.4-0.6-1-0.9-1.8-0.9c-0.8,0-1.4,0.3-1.8,0.9
			s-0.6,1.4-0.6,2.4c0,1,0.2,1.8,0.6,2.4s1,0.9,1.8,0.9c0.8,0,1.4-0.3,1.8-0.9C376.9,519.8,377.1,519,377.1,518z"/>
		<path class="st1" d="M394.6,523.9h-3.9v-6.7c0-0.7-0.1-1.3-0.4-1.7c-0.3-0.4-0.7-0.6-1.3-0.6c-0.6,0-1.1,0.2-1.5,0.6
			c-0.4,0.4-0.6,0.9-0.7,1.4v6.8H383v-11.9h3.6l0.2,1.8c1-1.4,2.2-2.1,3.7-2.1c2.7,0,4,1.5,4,4.6V523.9z"/>
		<path class="st1" d="M398.7,519.8l3,1c0,1.1-0.3,2.2-1,3.4c-0.7,1.2-1.4,2.1-2.3,2.8l-2.5-1.1C397.8,524,398.7,522,398.7,519.8z"
			/>
		<path class="st1" d="M426.4,512.1l-3.4,11.9h-3.9l-2.2-7.6l-2.2,7.6h-3.8l-3.4-11.9h3.9l1.7,8l2-8h3.7l2,8l1.7-8H426.4z"/>
		<path class="st1" d="M438.8,518.9h-7.9c0,0.8,0.3,1.4,0.9,1.8s1.2,0.6,2,0.6c0.7,0,1.3-0.1,2-0.4c0.7-0.2,1.1-0.5,1.4-0.7l1.3,2.2
			c0,0-0.1,0.1-0.2,0.2c-0.1,0.1-0.3,0.2-0.6,0.4c-0.3,0.2-0.7,0.4-1,0.5c-0.4,0.2-0.9,0.3-1.5,0.4c-0.6,0.1-1.3,0.2-1.9,0.2
			c-1.9,0-3.4-0.5-4.5-1.6c-1.2-1.1-1.7-2.6-1.7-4.5c0-2,0.6-3.5,1.7-4.6c1.1-1.1,2.6-1.6,4.5-1.6c1.8,0,3.1,0.6,4.1,1.7
			c1,1.1,1.5,2.6,1.5,4.5V518.9z M435.1,516.6c0-0.6-0.2-1.2-0.5-1.6c-0.4-0.4-0.9-0.6-1.6-0.6c-0.7,0-1.2,0.2-1.6,0.6
			c-0.4,0.4-0.6,1-0.7,1.6H435.1z"/>
		<path class="st1" d="M442.2,507.1l3.1,1c0,1.1-0.3,2.2-1,3.4c-0.7,1.2-1.4,2.1-2.3,2.7l-2.5-1.1
			C441.3,511.3,442.2,509.3,442.2,507.1z"/>
		<path class="st1" d="M458.5,512.1l-4.5,11.9h-4l-4.5-11.9h4.1l2.4,8l2.4-8H458.5z"/>
		<path class="st1" d="M470.7,518.9h-7.9c0,0.8,0.3,1.4,0.9,1.8s1.2,0.6,2,0.6c0.7,0,1.3-0.1,2-0.4c0.7-0.2,1.1-0.5,1.4-0.7l1.3,2.2
			c0,0-0.1,0.1-0.2,0.2c-0.1,0.1-0.3,0.2-0.6,0.4c-0.3,0.2-0.7,0.4-1,0.5c-0.4,0.2-0.9,0.3-1.5,0.4c-0.6,0.1-1.3,0.2-1.9,0.2
			c-1.9,0-3.4-0.5-4.5-1.6c-1.2-1.1-1.7-2.6-1.7-4.5c0-2,0.6-3.5,1.7-4.6c1.1-1.1,2.6-1.6,4.5-1.6c1.8,0,3.1,0.6,4.1,1.7
			c1,1.1,1.5,2.6,1.5,4.5V518.9z M467,516.6c0-0.6-0.2-1.2-0.5-1.6c-0.4-0.4-0.9-0.6-1.6-0.6c-0.7,0-1.2,0.2-1.6,0.6
			c-0.4,0.4-0.6,1-0.7,1.6H467z"/>
		<path class="st1" d="M484.9,511.9l-0.4,3.6c-0.3-0.1-0.7-0.2-1.1-0.2c-0.5,0-1,0.1-1.4,0.4c-0.7,0.5-1.2,1.2-1.4,2.2v6h-3.8v-11.9
			h3.6l0.2,2c0.3-0.6,0.7-1.1,1.3-1.5s1.3-0.7,2-0.7c0.2,0,0.4,0,0.5,0C484.7,511.9,484.8,511.9,484.9,511.9L484.9,511.9z"/>
		<path class="st1" d="M497,518.9h-7.9c0,0.8,0.3,1.4,0.9,1.8s1.2,0.6,2,0.6c0.7,0,1.3-0.1,2-0.4c0.7-0.2,1.1-0.5,1.4-0.7l1.3,2.2
			c0,0-0.1,0.1-0.2,0.2c-0.1,0.1-0.3,0.2-0.6,0.4c-0.3,0.2-0.7,0.4-1,0.5c-0.4,0.2-0.9,0.3-1.5,0.4c-0.6,0.1-1.3,0.2-1.9,0.2
			c-1.9,0-3.4-0.5-4.5-1.6c-1.2-1.1-1.7-2.6-1.7-4.5c0-2,0.6-3.5,1.7-4.6c1.1-1.1,2.6-1.6,4.5-1.6c1.8,0,3.1,0.6,4.1,1.7
			c1,1.1,1.5,2.6,1.5,4.5V518.9z M493.4,516.6c0-0.6-0.2-1.2-0.5-1.6c-0.4-0.4-0.9-0.6-1.6-0.6c-0.7,0-1.2,0.2-1.6,0.6
			c-0.4,0.4-0.6,1-0.7,1.6H493.4z"/>
		<path class="st1" d="M510.6,523.9h-3.5l-0.3-1.5l-0.1,0.1c-0.1,0.1-0.1,0.2-0.2,0.2c0,0-0.1,0.1-0.2,0.3s-0.2,0.2-0.3,0.3
			c-0.1,0.1-0.2,0.2-0.4,0.3c-0.1,0.1-0.3,0.2-0.5,0.3c-0.2,0.1-0.3,0.1-0.5,0.2s-0.4,0.1-0.6,0.1c-0.2,0-0.5,0-0.7,0
			c-1.5,0-2.8-0.6-3.7-1.7c-1-1.2-1.4-2.6-1.4-4.5c0-1.8,0.5-3.3,1.4-4.5c0.9-1.1,2.2-1.7,3.7-1.7c0.7,0,1.3,0.1,1.9,0.4
			c0.6,0.3,0.9,0.5,1.2,0.8c0.2,0.2,0.4,0.5,0.5,0.7v-6h3.8V523.9z M506.2,520.3c0.4-0.6,0.7-1.4,0.7-2.3s-0.2-1.7-0.6-2.3
			s-1-0.9-1.8-0.9c-0.8,0-1.4,0.3-1.8,0.9S502,517,502,518s0.2,1.7,0.6,2.3c0.4,0.6,1,0.9,1.8,0.9S505.8,520.9,506.2,520.3z"/>
		<path class="st1" d="M524.7,523.9h-3.6l-0.2-1.8c-1,1.4-2.2,2.1-3.5,2.1c-2.7,0-4-1.5-4-4.6v-7.5h3.8v6.8c0,1.4,0.6,2.1,1.8,2.1
			c0.6,0,1-0.2,1.4-0.6c0.3-0.4,0.5-0.9,0.6-1.4v-6.9h3.9V523.9z"/>
		<path class="st1" d="M536.2,519.9l1.4,2.6c-1.2,1.1-2.7,1.7-4.8,1.7c-1.7,0-3.1-0.5-4.3-1.6c-1.2-1.1-1.8-2.6-1.8-4.6
			c0-2,0.6-3.5,1.8-4.6s2.7-1.6,4.4-1.6c0.9,0,1.8,0.1,2.5,0.4c0.8,0.3,1.3,0.5,1.6,0.8c0.3,0.2,0.5,0.4,0.5,0.5l-1.4,2.5
			c-0.8-0.8-1.7-1.2-2.7-1.2c-0.8,0-1.5,0.3-2.1,0.8c-0.6,0.5-0.8,1.3-0.8,2.3s0.3,1.7,0.8,2.3c0.6,0.5,1.3,0.8,2.1,0.8
			C534.5,521,535.4,520.7,536.2,519.9z"/>
		<path class="st1" d="M550.1,518.9h-7.9c0,0.8,0.3,1.4,0.9,1.8s1.2,0.6,2,0.6c0.7,0,1.3-0.1,2-0.4c0.7-0.2,1.1-0.5,1.4-0.7l1.3,2.2
			c0,0-0.1,0.1-0.2,0.2c-0.1,0.1-0.3,0.2-0.6,0.4c-0.3,0.2-0.7,0.4-1,0.5c-0.4,0.2-0.9,0.3-1.5,0.4c-0.6,0.1-1.3,0.2-1.9,0.2
			c-1.9,0-3.4-0.5-4.5-1.6c-1.2-1.1-1.7-2.6-1.7-4.5c0-2,0.6-3.5,1.7-4.6c1.1-1.1,2.6-1.6,4.5-1.6c1.8,0,3.1,0.6,4.1,1.7
			c1,1.1,1.5,2.6,1.5,4.5V518.9z M546.5,516.6c0-0.6-0.2-1.2-0.5-1.6c-0.4-0.4-0.9-0.6-1.6-0.6c-0.7,0-1.2,0.2-1.6,0.6
			c-0.4,0.4-0.6,1-0.7,1.6H546.5z"/>
		<path class="st1" d="M563.8,523.9h-3.5l-0.3-1.5l-0.1,0.1c-0.1,0.1-0.1,0.2-0.2,0.2c0,0-0.1,0.1-0.2,0.3s-0.2,0.2-0.3,0.3
			c-0.1,0.1-0.2,0.2-0.4,0.3c-0.1,0.1-0.3,0.2-0.5,0.3c-0.2,0.1-0.3,0.1-0.5,0.2s-0.4,0.1-0.6,0.1c-0.2,0-0.5,0-0.7,0
			c-1.5,0-2.8-0.6-3.7-1.7c-1-1.2-1.4-2.6-1.4-4.5c0-1.8,0.5-3.3,1.4-4.5c0.9-1.1,2.2-1.7,3.7-1.7c0.7,0,1.3,0.1,1.9,0.4
			c0.6,0.3,0.9,0.5,1.2,0.8c0.2,0.2,0.4,0.5,0.5,0.7v-6h3.8V523.9z M559.4,520.3c0.4-0.6,0.7-1.4,0.7-2.3s-0.2-1.7-0.6-2.3
			s-1-0.9-1.8-0.9c-0.8,0-1.4,0.3-1.8,0.9s-0.6,1.4-0.6,2.3s0.2,1.7,0.6,2.3c0.4,0.6,1,0.9,1.8,0.9S559,520.9,559.4,520.3z"/>
		<path class="st1" d="M181.6,549.9l1.4,2.6c-1.2,1.2-2.7,1.7-4.8,1.7c-1.7,0-3.1-0.5-4.3-1.6c-1.2-1.1-1.8-2.6-1.8-4.6
			c0-2,0.6-3.5,1.8-4.6s2.7-1.6,4.4-1.6c0.9,0,1.8,0.1,2.5,0.4c0.8,0.3,1.3,0.6,1.6,0.8c0.3,0.2,0.5,0.4,0.5,0.5l-1.4,2.5
			c-0.8-0.8-1.7-1.2-2.7-1.2c-0.8,0-1.5,0.3-2.1,0.8c-0.6,0.5-0.8,1.3-0.8,2.3c0,1,0.3,1.7,0.8,2.3c0.6,0.5,1.3,0.8,2.1,0.8
			C179.9,551,180.8,550.7,181.6,549.9z"/>
		<path class="st1" d="M194.6,543.5c1.1,1.1,1.7,2.6,1.7,4.5s-0.6,3.4-1.7,4.5c-1.1,1.1-2.7,1.7-4.6,1.7c-1.9,0-3.4-0.6-4.6-1.7
			c-1.2-1.1-1.7-2.6-1.7-4.5c0-1.9,0.6-3.4,1.7-4.5c1.1-1.1,2.7-1.7,4.6-1.7C192,541.8,193.5,542.4,194.6,543.5z M192.4,548
			c0-1-0.2-1.8-0.6-2.4c-0.4-0.6-1-0.9-1.8-0.9c-0.8,0-1.4,0.3-1.8,0.9s-0.6,1.4-0.6,2.4c0,1,0.2,1.8,0.6,2.4s1,0.9,1.8,0.9
			c0.8,0,1.4-0.3,1.8-0.9C192.2,549.8,192.4,549,192.4,548z"/>
		<path class="st1" d="M216.8,553.9H213v-6.8c0-1.4-0.5-2.1-1.6-2.1c-0.6,0-1,0.2-1.3,0.6c-0.3,0.4-0.5,0.9-0.6,1.4v6.9h-3.8v-6.8
			c0-1.4-0.5-2.1-1.5-2.1c-0.6,0-1,0.2-1.3,0.6c-0.3,0.4-0.5,0.9-0.6,1.4v6.9h-3.8v-11.9h3.6l0.2,1.8c0.9-1.4,2.1-2.1,3.5-2.1
			c1.8,0,2.9,0.7,3.4,2.2c1.1-1.5,2.4-2.2,3.9-2.2c1.2,0,2.2,0.4,2.8,1.2c0.7,0.8,1,1.9,1,3.3V553.9z"/>
		<path class="st1" d="M230.6,543.5c0.9,1.1,1.4,2.6,1.4,4.5s-0.5,3.3-1.5,4.5c-1,1.2-2.2,1.7-3.8,1.7c-1.5,0-2.6-0.6-3.4-1.8v5.6
			h-3.8v-16h3.6l0.2,1.6c0.1-0.2,0.3-0.4,0.5-0.7c0.2-0.2,0.6-0.5,1.2-0.8c0.6-0.3,1.2-0.4,1.9-0.4
			C228.4,541.8,229.7,542.4,230.6,543.5z M227.4,550.3c0.4-0.6,0.6-1.4,0.6-2.3s-0.2-1.7-0.6-2.3c-0.4-0.6-1-0.9-1.8-0.9
			s-1.4,0.3-1.8,0.9c-0.4,0.6-0.7,1.4-0.7,2.3c0,0.9,0.2,1.7,0.6,2.3s1,0.9,1.8,0.9S227,550.9,227.4,550.3z"/>
		<path class="st1" d="M237.8,553.9H234v-16.3h3.8V553.9z"/>
		<path class="st1" d="M251.6,548.9h-7.9c0,0.8,0.3,1.4,0.9,1.8s1.2,0.6,2,0.6c0.7,0,1.3-0.1,2-0.4s1.1-0.5,1.4-0.7l1.3,2.2
			c0,0-0.1,0.1-0.2,0.2c-0.1,0.1-0.3,0.2-0.6,0.4c-0.3,0.2-0.7,0.4-1,0.5c-0.4,0.2-0.9,0.3-1.5,0.4c-0.6,0.1-1.3,0.2-1.9,0.2
			c-1.9,0-3.4-0.5-4.5-1.6c-1.2-1.1-1.7-2.6-1.7-4.5c0-2,0.6-3.5,1.7-4.6c1.1-1.1,2.6-1.6,4.5-1.6c1.8,0,3.1,0.6,4.1,1.7
			c1,1.1,1.5,2.6,1.5,4.4V548.9z M247.9,546.6c0-0.7-0.2-1.2-0.5-1.6c-0.4-0.4-0.9-0.7-1.6-0.7c-0.7,0-1.2,0.2-1.6,0.7
			s-0.6,1-0.7,1.6H247.9z"/>
		<path class="st1" d="M265,553.9h-4.4l-2.2-4l-2.2,4h-4.3l4.1-6l-3.9-5.8h4.3l2,3.8l2-3.8h4.2l-3.9,5.8L265,553.9z"/>
		<path class="st1" d="M269.6,537.4c0.4,0.4,0.6,0.9,0.6,1.5s-0.2,1.1-0.6,1.5c-0.4,0.4-0.9,0.6-1.5,0.6s-1.1-0.2-1.5-0.6
			c-0.4-0.4-0.6-0.8-0.6-1.4c0-0.6,0.2-1.1,0.6-1.5c0.4-0.4,0.9-0.6,1.5-0.6S269.2,537,269.6,537.4z M270,553.9h-3.8v-11.9h3.8
			V553.9z"/>
		<path class="st1" d="M279.8,551l0.3,2.7c-0.9,0.3-1.8,0.4-3,0.4c-1.3,0-2.3-0.3-2.9-0.9c-0.6-0.6-1-1.6-1-3v-5.5h-1.6v-2.8h1.6
			l0.2-3h3.6v3h2.9v2.8h-2.9v4.6c0,0.7,0.1,1.2,0.3,1.3c0.2,0.3,0.6,0.4,1.1,0.4C279.1,551.2,279.5,551.2,279.8,551z"/>
		<path class="st1" d="M293.6,542.1l-4.8,12.4c-0.6,1.5-1.1,2.5-1.7,3c-0.6,0.5-1.4,0.8-2.4,0.8c-0.6,0-1.2-0.1-1.7-0.2
			s-0.9-0.2-1.2-0.3l-0.4-0.1l0.8-2.8c0.5,0.3,1,0.4,1.4,0.4c0.3,0,0.6-0.1,0.7-0.2c0.2-0.1,0.3-0.4,0.4-0.7l0.3-0.7l-4.4-11.5h4.1
			l2.4,8.1l2.4-8.1H293.6z"/>
		<path class="st1" d="M302.6,537.4c0.4,0.4,0.6,0.9,0.6,1.5s-0.2,1.1-0.6,1.5c-0.4,0.4-0.9,0.6-1.5,0.6s-1.1-0.2-1.5-0.6
			c-0.4-0.4-0.6-0.8-0.6-1.4c0-0.6,0.2-1.1,0.6-1.5c0.4-0.4,0.9-0.6,1.5-0.6S302.2,537,302.6,537.4z M303,553.9h-3.8v-11.9h3.8
			V553.9z"/>
		<path class="st1" d="M317.4,553.9h-3.9v-6.7c0-0.7-0.1-1.3-0.4-1.7c-0.3-0.4-0.7-0.6-1.3-0.6c-0.6,0-1.1,0.2-1.5,0.6
			c-0.4,0.4-0.6,0.9-0.7,1.4v6.8h-3.8v-11.9h3.6l0.2,1.8c1-1.4,2.2-2.1,3.7-2.1c2.7,0,4,1.5,4,4.6V553.9z"/>
		<path class="st1" d="M334.3,543.5c1.1,1.1,1.7,2.6,1.7,4.5s-0.6,3.4-1.7,4.5c-1.1,1.1-2.7,1.7-4.6,1.7c-1.9,0-3.4-0.6-4.6-1.7
			c-1.2-1.1-1.7-2.6-1.7-4.5c0-1.9,0.6-3.4,1.7-4.5c1.1-1.1,2.7-1.7,4.6-1.7C331.6,541.8,333.2,542.4,334.3,543.5z M332.1,548
			c0-1-0.2-1.8-0.6-2.4c-0.4-0.6-1-0.9-1.8-0.9c-0.8,0-1.4,0.3-1.8,0.9s-0.6,1.4-0.6,2.4c0,1,0.2,1.8,0.6,2.4s1,0.9,1.8,0.9
			c0.8,0,1.4-0.3,1.8-0.9C331.9,549.8,332.1,549,332.1,548z"/>
		<path class="st1" d="M349.3,553.9h-3.6l-0.2-1.8c-1,1.4-2.2,2.1-3.5,2.1c-2.7,0-4-1.5-4-4.6v-7.5h3.8v6.8c0,1.4,0.6,2.2,1.8,2.2
			c0.6,0,1-0.2,1.4-0.6c0.3-0.4,0.5-0.9,0.6-1.4v-6.9h3.9V553.9z"/>
		<path class="st1" d="M360.2,541.9l-0.4,3.6c-0.3-0.1-0.7-0.2-1.1-0.2c-0.5,0-1,0.1-1.4,0.4c-0.7,0.5-1.2,1.2-1.4,2.2v6h-3.8v-11.9
			h3.6l0.2,2c0.3-0.6,0.7-1.1,1.3-1.6s1.3-0.7,2-0.7c0.2,0,0.4,0,0.5,0C359.9,541.9,360.1,541.9,360.2,541.9L360.2,541.9z"/>
		<path class="st1" d="M377.1,543.5c0.9,1.1,1.4,2.6,1.4,4.5s-0.5,3.3-1.5,4.5c-1,1.2-2.2,1.7-3.8,1.7c-1.5,0-2.6-0.6-3.4-1.8v5.6
			H366v-16h3.6l0.2,1.6c0.1-0.2,0.3-0.4,0.5-0.7c0.2-0.2,0.6-0.5,1.2-0.8c0.6-0.3,1.2-0.4,1.9-0.4
			C375,541.8,376.2,542.4,377.1,543.5z M374,550.3c0.4-0.6,0.6-1.4,0.6-2.3s-0.2-1.7-0.6-2.3c-0.4-0.6-1-0.9-1.8-0.9
			s-1.4,0.3-1.8,0.9c-0.4,0.6-0.7,1.4-0.7,2.3c0,0.9,0.2,1.7,0.6,2.3s1,0.9,1.8,0.9S373.5,550.9,374,550.3z"/>
		<path class="st1" d="M388.6,541.9l-0.4,3.6c-0.3-0.1-0.7-0.2-1.1-0.2c-0.5,0-1,0.1-1.4,0.4c-0.7,0.5-1.2,1.2-1.4,2.2v6h-3.8v-11.9
			h3.6l0.2,2c0.3-0.6,0.7-1.1,1.3-1.6s1.3-0.7,2-0.7c0.2,0,0.4,0,0.5,0C388.4,541.9,388.5,541.9,388.6,541.9L388.6,541.9z"/>
		<path class="st1" d="M399.8,543.5c1.1,1.1,1.7,2.6,1.7,4.5s-0.6,3.4-1.7,4.5c-1.1,1.1-2.7,1.7-4.6,1.7c-1.9,0-3.4-0.6-4.6-1.7
			c-1.2-1.1-1.7-2.6-1.7-4.5c0-1.9,0.6-3.4,1.7-4.5c1.1-1.1,2.7-1.7,4.6-1.7C397.1,541.8,398.6,542.4,399.8,543.5z M397.6,548
			c0-1-0.2-1.8-0.6-2.4c-0.4-0.6-1-0.9-1.8-0.9c-0.8,0-1.4,0.3-1.8,0.9s-0.6,1.4-0.6,2.4c0,1,0.2,1.8,0.6,2.4s1,0.9,1.8,0.9
			c0.8,0,1.4-0.3,1.8-0.9C397.4,549.8,397.6,549,397.6,548z"/>
		<path class="st1" d="M412.2,549.9l1.4,2.6c-1.2,1.2-2.7,1.7-4.8,1.7c-1.7,0-3.1-0.5-4.3-1.6c-1.2-1.1-1.8-2.6-1.8-4.6
			c0-2,0.6-3.5,1.8-4.6s2.7-1.6,4.4-1.6c0.9,0,1.8,0.1,2.5,0.4c0.8,0.3,1.3,0.6,1.6,0.8c0.3,0.2,0.5,0.4,0.5,0.5l-1.4,2.5
			c-0.8-0.8-1.7-1.2-2.7-1.2c-0.8,0-1.5,0.3-2.1,0.8c-0.6,0.5-0.8,1.3-0.8,2.3c0,1,0.3,1.7,0.8,2.3c0.6,0.5,1.3,0.8,2.1,0.8
			C410.5,551,411.4,550.7,412.2,549.9z"/>
		<path class="st1" d="M426.2,548.9h-7.9c0,0.8,0.3,1.4,0.9,1.8s1.2,0.6,2,0.6c0.7,0,1.3-0.1,2-0.4s1.1-0.5,1.4-0.7l1.3,2.2
			c0,0-0.1,0.1-0.2,0.2c-0.1,0.1-0.3,0.2-0.6,0.4c-0.3,0.2-0.7,0.4-1,0.5c-0.4,0.2-0.9,0.3-1.5,0.4c-0.6,0.1-1.3,0.2-1.9,0.2
			c-1.9,0-3.4-0.5-4.5-1.6c-1.2-1.1-1.7-2.6-1.7-4.5c0-2,0.6-3.5,1.7-4.6c1.1-1.1,2.6-1.6,4.5-1.6c1.8,0,3.1,0.6,4.1,1.7
			c1,1.1,1.5,2.6,1.5,4.4V548.9z M422.5,546.6c0-0.7-0.2-1.2-0.5-1.6c-0.4-0.4-0.9-0.7-1.6-0.7c-0.7,0-1.2,0.2-1.6,0.7
			s-0.6,1-0.7,1.6H422.5z"/>
		<path class="st1" d="M437.4,550.2c0,1.2-0.5,2.2-1.3,2.9c-0.9,0.8-2.3,1.2-4,1.2c-1.1,0-2.1-0.2-3-0.6c-0.9-0.4-1.6-0.8-2.1-1.3
			l1.5-2.4c0.5,0.5,1.1,0.8,1.9,1.1c0.7,0.3,1.3,0.4,1.8,0.4c1.1,0,1.6-0.3,1.6-0.8c0-0.4-0.6-0.8-1.7-1.1c-0.1,0-0.1,0-0.2,0
			c-0.9-0.3-1.6-0.5-2-0.6c-0.3-0.1-0.5-0.2-0.7-0.3c-0.1-0.1-0.4-0.3-0.7-0.5c-0.3-0.3-0.6-0.6-0.8-1c-0.2-0.4-0.3-0.9-0.3-1.4
			c0-1.2,0.5-2.1,1.4-2.8c0.9-0.7,2.1-1.1,3.7-1.1c0.9,0,1.8,0.1,2.6,0.4c0.8,0.3,1.4,0.5,1.7,0.8l0.5,0.4l-1.3,2.3
			c-1-0.8-2.2-1.2-3.3-1.2c-1,0-1.6,0.3-1.6,0.8c0,0.1,0,0.1,0,0.2c0,0.1,0.1,0.1,0.1,0.2s0.1,0.1,0.2,0.2s0.1,0.1,0.2,0.1
			c0.1,0,0.2,0.1,0.2,0.1s0.2,0.1,0.3,0.1s0.2,0.1,0.3,0.1c0.1,0,0.2,0.1,0.3,0.1c0.1,0,0.2,0.1,0.3,0.1c0.8,0.2,1.5,0.5,2,0.7
			C436.7,547.6,437.4,548.7,437.4,550.2z"/>
		<path class="st1" d="M448.4,550.2c0,1.2-0.5,2.2-1.3,2.9c-0.9,0.8-2.3,1.2-4,1.2c-1.1,0-2.1-0.2-3-0.6c-0.9-0.4-1.6-0.8-2.1-1.3
			l1.5-2.4c0.5,0.5,1.1,0.8,1.9,1.1c0.7,0.3,1.3,0.4,1.8,0.4c1.1,0,1.6-0.3,1.6-0.8c0-0.4-0.6-0.8-1.7-1.1c-0.1,0-0.1,0-0.2,0
			c-0.9-0.3-1.6-0.5-2-0.6c-0.3-0.1-0.5-0.2-0.7-0.3c-0.1-0.1-0.4-0.3-0.7-0.5c-0.3-0.3-0.6-0.6-0.8-1c-0.2-0.4-0.3-0.9-0.3-1.4
			c0-1.2,0.5-2.1,1.4-2.8c0.9-0.7,2.1-1.1,3.7-1.1c0.9,0,1.8,0.1,2.6,0.4c0.8,0.3,1.4,0.5,1.7,0.8l0.5,0.4l-1.3,2.3
			c-1-0.8-2.2-1.2-3.3-1.2c-1,0-1.6,0.3-1.6,0.8c0,0.1,0,0.1,0,0.2c0,0.1,0.1,0.1,0.1,0.2s0.1,0.1,0.2,0.2s0.1,0.1,0.2,0.1
			c0.1,0,0.2,0.1,0.2,0.1s0.2,0.1,0.3,0.1s0.2,0.1,0.3,0.1c0.1,0,0.2,0.1,0.3,0.1c0.1,0,0.2,0.1,0.3,0.1c0.8,0.2,1.5,0.5,2,0.7
			C447.7,547.6,448.4,548.7,448.4,550.2z"/>
		<path class="st1" d="M465.5,553.9h-4c-0.2-0.4-0.3-0.9-0.3-1.3c-1,1-2.1,1.5-3.5,1.5c-1.1,0-2-0.3-2.8-0.9s-1.2-1.5-1.2-2.8
			c0-1.9,1.2-3.1,3.7-3.7c1-0.2,2.3-0.3,3.7-0.3v-0.4c0-1.1-0.7-1.6-2.2-1.6c-1.3,0-2.5,0.4-3.6,1.1l-1-2.6c1.5-0.8,3.2-1.2,5-1.2
			c1.8,0,3.2,0.4,4.2,1.2c1,0.8,1.5,2,1.5,3.7v4.5C465,552.3,465.2,553.3,465.5,553.9z M461.1,550.4v-1.8c-0.6,0-1.2,0-1.8,0.2
			c-1.1,0.2-1.7,0.7-1.7,1.4c0,0.5,0.1,0.8,0.4,1.1c0.3,0.2,0.6,0.4,1.1,0.4C460.1,551.7,460.7,551.2,461.1,550.4z"/>
		<path class="st1" d="M479.1,553.9h-3.9v-6.7c0-0.7-0.1-1.3-0.4-1.7c-0.3-0.4-0.7-0.6-1.3-0.6c-0.6,0-1.1,0.2-1.5,0.6
			c-0.4,0.4-0.6,0.9-0.7,1.4v6.8h-3.8v-11.9h3.6l0.2,1.8c1-1.4,2.2-2.1,3.7-2.1c2.7,0,4,1.5,4,4.6V553.9z"/>
		<path class="st1" d="M493.4,553.9h-3.5l-0.3-1.5l-0.1,0.1c-0.1,0.1-0.1,0.2-0.2,0.2c0,0-0.1,0.1-0.2,0.3c-0.1,0.1-0.2,0.2-0.3,0.3
			c-0.1,0.1-0.2,0.2-0.4,0.3c-0.1,0.1-0.3,0.2-0.5,0.3c-0.2,0.1-0.3,0.1-0.5,0.2s-0.4,0.1-0.6,0.1c-0.2,0-0.5,0-0.7,0
			c-1.5,0-2.8-0.6-3.7-1.7c-1-1.2-1.4-2.6-1.4-4.5s0.5-3.3,1.4-4.5c0.9-1.1,2.2-1.7,3.7-1.7c0.7,0,1.3,0.1,1.9,0.4
			c0.6,0.3,0.9,0.5,1.2,0.8c0.2,0.2,0.4,0.4,0.5,0.7v-6.1h3.8V553.9z M489,550.3c0.4-0.6,0.7-1.4,0.7-2.3s-0.2-1.7-0.6-2.3
			c-0.4-0.6-1-0.9-1.8-0.9c-0.8,0-1.4,0.3-1.8,0.9c-0.4,0.6-0.6,1.4-0.6,2.3s0.2,1.7,0.6,2.3c0.4,0.6,1,0.9,1.8,0.9
			S488.6,550.9,489,550.3z"/>
		<path class="st1" d="M512,551.2c0,2.4-0.5,4.1-1.5,5.2c-1.2,1.3-2.9,1.9-5.1,1.9c-1.1,0-2.1-0.1-3.1-0.4s-1.7-0.6-2.3-0.9l1.2-2.7
			c1.3,0.7,2.7,1.1,4,1.1c1.1,0,1.9-0.3,2.4-0.8c0.5-0.4,0.7-1.1,0.7-2v-0.9c-0.1,0.2-0.3,0.4-0.5,0.7c-0.2,0.2-0.6,0.5-1.2,0.7
			c-0.5,0.3-1.1,0.4-1.8,0.4c-1.6,0-2.8-0.5-3.8-1.6s-1.4-2.5-1.4-4.2c0-1.7,0.5-3.1,1.4-4.2c0.9-1.1,2.2-1.6,3.8-1.6
			c0.5,0,1,0.1,1.4,0.2c0.4,0.2,0.8,0.3,1,0.6c0.3,0.2,0.4,0.4,0.6,0.6c0.1,0.2,0.2,0.3,0.3,0.4l0.3-1.6h3.6V551.2z M507.7,549.6
			c0.4-0.5,0.6-1.2,0.6-2s-0.2-1.5-0.6-2c-0.4-0.5-1-0.8-1.7-0.8s-1.3,0.3-1.8,0.8c-0.4,0.5-0.6,1.2-0.6,2c0,0.8,0.2,1.5,0.6,2.1
			c0.4,0.5,1,0.8,1.7,0.8S507.3,550.2,507.7,549.6z"/>
		<path class="st1" d="M518.2,537.4c0.4,0.4,0.6,0.9,0.6,1.5s-0.2,1.1-0.6,1.5c-0.4,0.4-0.9,0.6-1.5,0.6s-1.1-0.2-1.5-0.6
			c-0.4-0.4-0.6-0.8-0.6-1.4c0-0.6,0.2-1.1,0.6-1.5c0.4-0.4,0.9-0.6,1.5-0.6S517.8,537,518.2,537.4z M518.6,553.9h-3.8v-11.9h3.8
			V553.9z"/>
		<path class="st1" d="M533,542.1l-4.5,11.9h-4l-4.5-11.9h4.1l2.4,8l2.4-8H533z"/>
		<path class="st1" d="M545.1,548.9h-7.9c0,0.8,0.3,1.4,0.9,1.8s1.2,0.6,2,0.6c0.7,0,1.3-0.1,2-0.4s1.1-0.5,1.4-0.7l1.3,2.2
			c0,0-0.1,0.1-0.2,0.2c-0.1,0.1-0.3,0.2-0.6,0.4c-0.3,0.2-0.7,0.4-1,0.5c-0.4,0.2-0.9,0.3-1.5,0.4c-0.6,0.1-1.3,0.2-1.9,0.2
			c-1.9,0-3.4-0.5-4.5-1.6c-1.2-1.1-1.7-2.6-1.7-4.5c0-2,0.6-3.5,1.7-4.6c1.1-1.1,2.6-1.6,4.5-1.6c1.8,0,3.1,0.6,4.1,1.7
			c1,1.1,1.5,2.6,1.5,4.4V548.9z M541.5,546.6c0-0.7-0.2-1.2-0.5-1.6c-0.4-0.4-0.9-0.7-1.6-0.7c-0.7,0-1.2,0.2-1.6,0.7
			s-0.6,1-0.7,1.6H541.5z"/>
		<path class="st1" d="M558.6,553.9h-3.9v-6.7c0-0.7-0.1-1.3-0.4-1.7c-0.3-0.4-0.7-0.6-1.3-0.6c-0.6,0-1.1,0.2-1.5,0.6
			c-0.4,0.4-0.6,0.9-0.7,1.4v6.8H547v-11.9h3.6l0.2,1.8c1-1.4,2.2-2.1,3.7-2.1c2.7,0,4,1.5,4,4.6V553.9z"/>
		<path class="st1" d="M191.4,583.9h-3.8v-6.8c0-1.4-0.5-2.1-1.6-2.1c-0.6,0-1,0.2-1.3,0.6c-0.3,0.4-0.5,0.9-0.6,1.4v6.9h-3.8v-6.8
			c0-1.4-0.5-2.1-1.5-2.1c-0.6,0-1,0.2-1.3,0.6c-0.3,0.4-0.5,0.9-0.6,1.4v6.9h-3.8v-11.9h3.6l0.2,1.8c0.9-1.4,2.1-2.1,3.5-2.1
			c1.8,0,2.9,0.7,3.4,2.2c1.1-1.5,2.4-2.2,3.9-2.2c1.2,0,2.2,0.4,2.8,1.2c0.7,0.8,1,1.9,1,3.3V583.9z"/>
		<path class="st1" d="M204.1,573.5c1.1,1.1,1.7,2.6,1.7,4.5s-0.6,3.4-1.7,4.5c-1.1,1.1-2.7,1.7-4.6,1.7c-1.9,0-3.4-0.6-4.6-1.7
			c-1.2-1.1-1.7-2.6-1.7-4.5c0-1.9,0.6-3.4,1.7-4.5c1.1-1.1,2.7-1.7,4.6-1.7C201.4,571.8,202.9,572.4,204.1,573.5z M201.9,578
			c0-1-0.2-1.8-0.6-2.4c-0.4-0.6-1-0.9-1.8-0.9c-0.8,0-1.4,0.3-1.8,0.9s-0.6,1.4-0.6,2.4c0,1,0.2,1.8,0.6,2.4s1,0.9,1.8,0.9
			c0.8,0,1.4-0.3,1.8-0.9C201.7,579.8,201.9,579,201.9,578z"/>
		<path class="st1" d="M215.9,571.9l-0.4,3.6c-0.3-0.1-0.7-0.2-1.1-0.2c-0.5,0-1,0.1-1.4,0.4c-0.7,0.5-1.2,1.2-1.4,2.2v6h-3.8v-11.9
			h3.6l0.2,2c0.3-0.6,0.7-1.1,1.3-1.6s1.3-0.7,2-0.7c0.2,0,0.4,0,0.5,0C215.6,571.9,215.7,571.9,215.9,571.9L215.9,571.9z"/>
		<path class="st1" d="M227.9,578.9H220c0,0.8,0.3,1.4,0.9,1.8s1.2,0.6,2,0.6c0.7,0,1.3-0.1,2-0.4s1.1-0.5,1.4-0.7l1.3,2.2
			c0,0-0.1,0.1-0.2,0.2c-0.1,0.1-0.3,0.2-0.6,0.4c-0.3,0.2-0.7,0.4-1,0.5c-0.4,0.2-0.9,0.3-1.5,0.4c-0.6,0.1-1.3,0.2-1.9,0.2
			c-1.9,0-3.4-0.5-4.5-1.6c-1.2-1.1-1.7-2.6-1.7-4.5c0-2,0.6-3.5,1.7-4.6c1.1-1.1,2.6-1.6,4.5-1.6c1.8,0,3.1,0.6,4.1,1.7
			c1,1.1,1.5,2.6,1.5,4.4V578.9z M224.3,576.6c0-0.7-0.2-1.2-0.5-1.6c-0.4-0.4-0.9-0.7-1.6-0.7c-0.7,0-1.2,0.2-1.6,0.7
			s-0.6,1-0.7,1.6H224.3z"/>
		<path class="st1" d="M241.1,581l0.3,2.7c-0.9,0.3-1.8,0.4-3,0.4c-1.3,0-2.3-0.3-2.9-0.9c-0.6-0.6-1-1.6-1-3v-5.5h-1.6v-2.8h1.6
			l0.2-3h3.6v3h2.9v2.8h-2.9v4.6c0,0.7,0.1,1.2,0.3,1.3c0.2,0.3,0.6,0.4,1.1,0.4C240.4,581.2,240.8,581.2,241.1,581z"/>
		<path class="st1" d="M246.6,567.4c0.4,0.4,0.6,0.8,0.6,1.4s-0.2,1.1-0.6,1.5c-0.4,0.4-0.9,0.6-1.5,0.6s-1.1-0.2-1.5-0.6
			c-0.4-0.4-0.6-0.8-0.6-1.4s0.2-1.1,0.6-1.5c0.4-0.4,0.9-0.6,1.5-0.6S246.2,567,246.6,567.4z M247,583.9h-3.8v-11.9h3.8V583.9z"/>
		<path class="st1" d="M268.2,583.9h-3.8v-6.8c0-1.4-0.5-2.1-1.6-2.1c-0.6,0-1,0.2-1.3,0.6c-0.3,0.4-0.5,0.9-0.6,1.4v6.9h-3.8v-6.8
			c0-1.4-0.5-2.1-1.5-2.1c-0.6,0-1,0.2-1.3,0.6c-0.3,0.4-0.5,0.9-0.6,1.4v6.9h-3.8v-11.9h3.6l0.2,1.8c0.9-1.4,2.1-2.1,3.5-2.1
			c1.8,0,2.9,0.7,3.4,2.2c1.1-1.5,2.4-2.2,3.9-2.2c1.2,0,2.2,0.4,2.8,1.2c0.7,0.8,1,1.9,1,3.3V583.9z"/>
		<path class="st1" d="M281.9,578.9h-7.9c0,0.8,0.3,1.4,0.9,1.8s1.2,0.6,2,0.6c0.7,0,1.3-0.1,2-0.4s1.1-0.5,1.4-0.7l1.3,2.2
			c0,0-0.1,0.1-0.2,0.2c-0.1,0.1-0.3,0.2-0.6,0.4c-0.3,0.2-0.7,0.4-1,0.5c-0.4,0.2-0.9,0.3-1.5,0.4c-0.6,0.1-1.3,0.2-1.9,0.2
			c-1.9,0-3.4-0.5-4.5-1.6c-1.2-1.1-1.7-2.6-1.7-4.5c0-2,0.6-3.5,1.7-4.6c1.1-1.1,2.6-1.6,4.5-1.6c1.8,0,3.1,0.6,4.1,1.7
			c1,1.1,1.5,2.6,1.5,4.4V578.9z M278.2,576.6c0-0.7-0.2-1.2-0.5-1.6c-0.4-0.4-0.9-0.7-1.6-0.7c-0.7,0-1.2,0.2-1.6,0.7
			s-0.6,1-0.7,1.6H278.2z"/>
		<path class="st1" d="M299.1,573.5c0.9,1.1,1.4,2.6,1.4,4.5s-0.5,3.3-1.5,4.5c-1,1.2-2.2,1.7-3.8,1.7c-1.5,0-2.6-0.6-3.4-1.8
			l-0.3,1.5H288v-16.3h3.8v6.1c0.1-0.2,0.3-0.4,0.5-0.7c0.2-0.2,0.6-0.5,1.2-0.8c0.6-0.3,1.2-0.4,1.9-0.4
			C297,571.8,298.2,572.4,299.1,573.5z M296,580.3c0.4-0.6,0.6-1.4,0.6-2.3s-0.2-1.7-0.6-2.3c-0.4-0.6-1-0.9-1.8-0.9
			s-1.4,0.3-1.8,0.9c-0.4,0.6-0.7,1.4-0.7,2.3c0,0.9,0.2,1.7,0.6,2.3s1,0.9,1.8,0.9S295.5,580.9,296,580.3z"/>
		<path class="st1" d="M313.5,583.9h-4c-0.2-0.4-0.3-0.9-0.3-1.3c-1,1-2.1,1.5-3.5,1.5c-1.1,0-2-0.3-2.8-0.9s-1.2-1.5-1.2-2.8
			c0-1.9,1.2-3.1,3.7-3.7c1-0.2,2.3-0.3,3.7-0.3v-0.4c0-1.1-0.7-1.6-2.2-1.6c-1.3,0-2.5,0.4-3.6,1.1l-1-2.6c1.5-0.8,3.2-1.2,5-1.2
			c1.8,0,3.2,0.4,4.2,1.2c1,0.8,1.5,2,1.5,3.7v4.5C312.9,582.3,313.1,583.3,313.5,583.9z M309.1,580.4v-1.8c-0.6,0-1.2,0-1.8,0.2
			c-1.1,0.2-1.7,0.7-1.7,1.4c0,0.5,0.1,0.8,0.4,1.1c0.3,0.2,0.6,0.4,1.1,0.4C308,581.7,308.7,581.2,309.1,580.4z"/>
		<path class="st1" d="M324.2,579.9l1.4,2.6c-1.2,1.2-2.7,1.7-4.8,1.7c-1.7,0-3.1-0.5-4.3-1.6c-1.2-1.1-1.8-2.6-1.8-4.6
			c0-2,0.6-3.5,1.8-4.6s2.7-1.6,4.4-1.6c0.9,0,1.8,0.1,2.5,0.4c0.8,0.3,1.3,0.6,1.6,0.8c0.3,0.2,0.5,0.4,0.5,0.5l-1.4,2.5
			c-0.8-0.8-1.7-1.2-2.7-1.2c-0.8,0-1.5,0.3-2.1,0.8c-0.6,0.5-0.8,1.3-0.8,2.3c0,1,0.3,1.7,0.8,2.3c0.6,0.5,1.3,0.8,2.1,0.8
			C322.5,581,323.4,580.7,324.2,579.9z"/>
		<path class="st1" d="M339.2,583.9h-4.4l-2.7-4.5l-1.1,1.2v3.3h-3.8v-16.3h3.8v8.8l3.6-4.3h4.4l-4.4,4.6L339.2,583.9z"/>
		<path class="st1" d="M351.7,581l0.3,2.7c-0.9,0.3-1.8,0.4-3,0.4c-1.3,0-2.3-0.3-2.9-0.9c-0.6-0.6-1-1.6-1-3v-5.5h-1.6v-2.8h1.6
			l0.2-3h3.6v3h2.9v2.8h-2.9v4.6c0,0.7,0.1,1.2,0.3,1.3c0.2,0.3,0.6,0.4,1.1,0.4C351,581.2,351.4,581.2,351.7,581z"/>
		<path class="st1" d="M363.8,573.5c1.1,1.1,1.7,2.6,1.7,4.5s-0.6,3.4-1.7,4.5c-1.1,1.1-2.7,1.7-4.6,1.7c-1.9,0-3.4-0.6-4.6-1.7
			c-1.2-1.1-1.7-2.6-1.7-4.5c0-1.9,0.6-3.4,1.7-4.5c1.1-1.1,2.7-1.7,4.6-1.7C361.2,571.8,362.7,572.4,363.8,573.5z M361.6,578
			c0-1-0.2-1.8-0.6-2.4c-0.4-0.6-1-0.9-1.8-0.9c-0.8,0-1.4,0.3-1.8,0.9s-0.6,1.4-0.6,2.4c0,1,0.2,1.8,0.6,2.4s1,0.9,1.8,0.9
			c0.8,0,1.4-0.3,1.8-0.9C361.4,579.8,361.6,579,361.6,578z"/>
		<path class="st1" d="M383.5,583.9H380l-0.3-1.5l-0.1,0.1c-0.1,0.1-0.1,0.2-0.2,0.2c0,0-0.1,0.1-0.2,0.3c-0.1,0.1-0.2,0.2-0.3,0.3
			c-0.1,0.1-0.2,0.2-0.4,0.3c-0.1,0.1-0.3,0.2-0.5,0.3c-0.2,0.1-0.3,0.1-0.5,0.2s-0.4,0.1-0.6,0.1c-0.2,0-0.5,0-0.7,0
			c-1.5,0-2.8-0.6-3.7-1.7c-1-1.2-1.4-2.6-1.4-4.5s0.5-3.3,1.4-4.5c0.9-1.1,2.2-1.7,3.7-1.7c0.7,0,1.3,0.1,1.9,0.4
			c0.6,0.3,0.9,0.5,1.2,0.8c0.2,0.2,0.4,0.4,0.5,0.7v-6.1h3.8V583.9z M379.1,580.3c0.4-0.6,0.7-1.4,0.7-2.3s-0.2-1.7-0.6-2.3
			c-0.4-0.6-1-0.9-1.8-0.9c-0.8,0-1.4,0.3-1.8,0.9c-0.4,0.6-0.6,1.4-0.6,2.3s0.2,1.7,0.6,2.3c0.4,0.6,1,0.9,1.8,0.9
			S378.7,580.9,379.1,580.3z"/>
		<path class="st1" d="M397.3,578.9h-7.9c0,0.8,0.3,1.4,0.9,1.8s1.2,0.6,2,0.6c0.7,0,1.3-0.1,2-0.4s1.1-0.5,1.4-0.7l1.3,2.2
			c0,0-0.1,0.1-0.2,0.2c-0.1,0.1-0.3,0.2-0.6,0.4c-0.3,0.2-0.7,0.4-1,0.5c-0.4,0.2-0.9,0.3-1.5,0.4c-0.6,0.1-1.3,0.2-1.9,0.2
			c-1.9,0-3.4-0.5-4.5-1.6c-1.2-1.1-1.7-2.6-1.7-4.5c0-2,0.6-3.5,1.7-4.6c1.1-1.1,2.6-1.6,4.5-1.6c1.8,0,3.1,0.6,4.1,1.7
			c1,1.1,1.5,2.6,1.5,4.4V578.9z M393.7,576.6c0-0.7-0.2-1.2-0.5-1.6c-0.4-0.4-0.9-0.7-1.6-0.7c-0.7,0-1.2,0.2-1.6,0.7
			s-0.6,1-0.7,1.6H393.7z"/>
		<path class="st1" d="M408.6,580.2c0,1.2-0.5,2.2-1.3,2.9c-0.9,0.8-2.3,1.2-4,1.2c-1.1,0-2.1-0.2-3-0.6c-0.9-0.4-1.6-0.8-2.1-1.3
			l1.5-2.4c0.5,0.5,1.1,0.8,1.9,1.1c0.7,0.3,1.3,0.4,1.8,0.4c1.1,0,1.6-0.3,1.6-0.8c0-0.4-0.6-0.8-1.7-1.1c-0.1,0-0.1,0-0.2,0
			c-0.9-0.3-1.6-0.5-2-0.6c-0.3-0.1-0.5-0.2-0.7-0.3c-0.1-0.1-0.4-0.3-0.7-0.5c-0.3-0.3-0.6-0.6-0.8-1c-0.2-0.4-0.3-0.9-0.3-1.4
			c0-1.2,0.5-2.1,1.4-2.8c0.9-0.7,2.1-1.1,3.7-1.1c0.9,0,1.8,0.1,2.6,0.4c0.8,0.3,1.4,0.5,1.7,0.8l0.5,0.4l-1.3,2.3
			c-1-0.8-2.2-1.2-3.3-1.2c-1,0-1.6,0.3-1.6,0.8c0,0.1,0,0.1,0,0.2c0,0.1,0.1,0.1,0.1,0.2s0.1,0.1,0.2,0.2s0.1,0.1,0.2,0.1
			c0.1,0,0.2,0.1,0.2,0.1s0.2,0.1,0.3,0.1s0.2,0.1,0.3,0.1c0.1,0,0.2,0.1,0.3,0.1c0.1,0,0.2,0.1,0.3,0.1c0.8,0.2,1.5,0.5,2,0.7
			C407.8,577.6,408.6,578.7,408.6,580.2z"/>
		<path class="st1" d="M413.9,567.4c0.4,0.4,0.6,0.8,0.6,1.4s-0.2,1.1-0.6,1.5c-0.4,0.4-0.9,0.6-1.5,0.6s-1.1-0.2-1.5-0.6
			c-0.4-0.4-0.6-0.8-0.6-1.4s0.2-1.1,0.6-1.5c0.4-0.4,0.9-0.6,1.5-0.6S413.5,567,413.9,567.4z M414.3,583.9h-3.8v-11.9h3.8V583.9z"
			/>
		<path class="st1" d="M428.6,581.2c0,2.4-0.5,4.1-1.5,5.2c-1.2,1.3-2.9,1.9-5.1,1.9c-1.1,0-2.1-0.1-3.1-0.4s-1.7-0.6-2.3-0.9
			l1.2-2.7c1.3,0.7,2.7,1.1,4,1.1c1.1,0,1.9-0.3,2.4-0.8c0.5-0.4,0.7-1.1,0.7-2v-0.9c-0.1,0.2-0.3,0.4-0.5,0.7
			c-0.2,0.2-0.6,0.5-1.2,0.7c-0.5,0.3-1.1,0.4-1.8,0.4c-1.6,0-2.8-0.5-3.8-1.6s-1.4-2.5-1.4-4.2c0-1.7,0.5-3.1,1.4-4.2
			c0.9-1.1,2.2-1.6,3.8-1.6c0.5,0,1,0.1,1.4,0.2c0.4,0.2,0.8,0.3,1,0.6c0.3,0.2,0.4,0.4,0.6,0.6c0.1,0.2,0.2,0.3,0.3,0.4l0.3-1.6
			h3.6V581.2z M424.3,579.6c0.4-0.5,0.6-1.2,0.6-2s-0.2-1.5-0.6-2c-0.4-0.5-1-0.8-1.7-0.8s-1.3,0.3-1.8,0.8c-0.4,0.5-0.6,1.2-0.6,2
			c0,0.8,0.2,1.5,0.6,2.1c0.4,0.5,1,0.8,1.7,0.8S423.9,580.2,424.3,579.6z"/>
		<path class="st1" d="M442.9,583.9h-3.9v-6.7c0-0.7-0.1-1.3-0.4-1.7c-0.3-0.4-0.7-0.6-1.3-0.6c-0.6,0-1.1,0.2-1.5,0.6
			c-0.4,0.4-0.6,0.9-0.7,1.4v6.8h-3.8v-11.9h3.6l0.2,1.8c1-1.4,2.2-2.1,3.7-2.1c2.7,0,4,1.5,4,4.6V583.9z"/>
		<path class="st1" d="M456.5,578.9h-7.9c0,0.8,0.3,1.4,0.9,1.8s1.2,0.6,2,0.6c0.7,0,1.3-0.1,2-0.4s1.1-0.5,1.4-0.7l1.3,2.2
			c0,0-0.1,0.1-0.2,0.2c-0.1,0.1-0.3,0.2-0.6,0.4c-0.3,0.2-0.7,0.4-1,0.5c-0.4,0.2-0.9,0.3-1.5,0.4c-0.6,0.1-1.3,0.2-1.9,0.2
			c-1.9,0-3.4-0.5-4.5-1.6c-1.2-1.1-1.7-2.6-1.7-4.5c0-2,0.6-3.5,1.7-4.6c1.1-1.1,2.6-1.6,4.5-1.6c1.8,0,3.1,0.6,4.1,1.7
			c1,1.1,1.5,2.6,1.5,4.4V578.9z M452.9,576.6c0-0.7-0.2-1.2-0.5-1.6c-0.4-0.4-0.9-0.7-1.6-0.7c-0.7,0-1.2,0.2-1.6,0.7
			s-0.6,1-0.7,1.6H452.9z"/>
		<path class="st1" d="M466.6,571.9l-0.4,3.6c-0.3-0.1-0.7-0.2-1.1-0.2c-0.5,0-1,0.1-1.4,0.4c-0.7,0.5-1.2,1.2-1.4,2.2v6h-3.8v-11.9
			h3.6l0.2,2c0.3-0.6,0.7-1.1,1.3-1.6s1.3-0.7,2-0.7c0.2,0,0.4,0,0.5,0C466.3,571.9,466.4,571.9,466.6,571.9L466.6,571.9z"/>
		<path class="st1" d="M477.2,580.2c0,1.2-0.5,2.2-1.3,2.9c-0.9,0.8-2.3,1.2-4,1.2c-1.1,0-2.1-0.2-3-0.6c-0.9-0.4-1.6-0.8-2.1-1.3
			l1.5-2.4c0.5,0.5,1.1,0.8,1.9,1.1c0.7,0.3,1.3,0.4,1.8,0.4c1.1,0,1.6-0.3,1.6-0.8c0-0.4-0.6-0.8-1.7-1.1c-0.1,0-0.1,0-0.2,0
			c-0.9-0.3-1.6-0.5-2-0.6c-0.3-0.1-0.5-0.2-0.7-0.3c-0.1-0.1-0.4-0.3-0.7-0.5c-0.3-0.3-0.6-0.6-0.8-1c-0.2-0.4-0.3-0.9-0.3-1.4
			c0-1.2,0.5-2.1,1.4-2.8c0.9-0.7,2.1-1.1,3.7-1.1c0.9,0,1.8,0.1,2.6,0.4c0.8,0.3,1.4,0.5,1.7,0.8l0.5,0.4l-1.3,2.3
			c-1-0.8-2.2-1.2-3.3-1.2c-1,0-1.6,0.3-1.6,0.8c0,0.1,0,0.1,0,0.2c0,0.1,0.1,0.1,0.1,0.2s0.1,0.1,0.2,0.2s0.1,0.1,0.2,0.1
			c0.1,0,0.2,0.1,0.2,0.1s0.2,0.1,0.3,0.1s0.2,0.1,0.3,0.1c0.1,0,0.2,0.1,0.3,0.1c0.1,0,0.2,0.1,0.3,0.1c0.8,0.2,1.5,0.5,2,0.7
			C476.5,577.6,477.2,578.7,477.2,580.2z"/>
		<path class="st1" d="M490.4,581l0.3,2.7c-0.9,0.3-1.8,0.4-3,0.4c-1.3,0-2.3-0.3-2.9-0.9c-0.6-0.6-1-1.6-1-3v-5.5h-1.6v-2.8h1.6
			l0.2-3h3.6v3h2.9v2.8h-2.9v4.6c0,0.7,0.1,1.2,0.3,1.3c0.2,0.3,0.6,0.4,1.1,0.4C489.6,581.2,490.1,581.2,490.4,581z"/>
		<path class="st1" d="M502.5,573.5c1.1,1.1,1.7,2.6,1.7,4.5s-0.6,3.4-1.7,4.5c-1.1,1.1-2.7,1.7-4.6,1.7c-1.9,0-3.4-0.6-4.6-1.7
			c-1.2-1.1-1.7-2.6-1.7-4.5c0-1.9,0.6-3.4,1.7-4.5c1.1-1.1,2.7-1.7,4.6-1.7C499.8,571.8,501.3,572.4,502.5,573.5z M500.3,578
			c0-1-0.2-1.8-0.6-2.4c-0.4-0.6-1-0.9-1.8-0.9c-0.8,0-1.4,0.3-1.8,0.9s-0.6,1.4-0.6,2.4c0,1,0.2,1.8,0.6,2.4s1,0.9,1.8,0.9
			c0.8,0,1.4-0.3,1.8-0.9C500.1,579.8,500.3,579,500.3,578z"/>
		<path class="st1" d="M521.4,583.9h-4c-0.2-0.4-0.3-0.9-0.3-1.3c-1,1-2.1,1.5-3.5,1.5c-1.1,0-2-0.3-2.8-0.9s-1.2-1.5-1.2-2.8
			c0-1.9,1.2-3.1,3.7-3.7c1-0.2,2.3-0.3,3.7-0.3v-0.4c0-1.1-0.7-1.6-2.2-1.6c-1.3,0-2.5,0.4-3.6,1.1l-1-2.6c1.5-0.8,3.2-1.2,5-1.2
			c1.8,0,3.2,0.4,4.2,1.2c1,0.8,1.5,2,1.5,3.7v4.5C520.8,582.3,521,583.3,521.4,583.9z M517,580.4v-1.8c-0.6,0-1.2,0-1.8,0.2
			c-1.1,0.2-1.7,0.7-1.7,1.4c0,0.5,0.1,0.8,0.4,1.1c0.3,0.2,0.6,0.4,1.1,0.4C515.9,581.7,516.6,581.2,517,580.4z"/>
		<path class="st1" d="M535.1,583.9h-3.5l-0.3-1.5l-0.1,0.1c-0.1,0.1-0.1,0.2-0.2,0.2c0,0-0.1,0.1-0.2,0.3c-0.1,0.1-0.2,0.2-0.3,0.3
			c-0.1,0.1-0.2,0.2-0.4,0.3c-0.1,0.1-0.3,0.2-0.5,0.3c-0.2,0.1-0.3,0.1-0.5,0.2s-0.4,0.1-0.6,0.1c-0.2,0-0.5,0-0.7,0
			c-1.5,0-2.8-0.6-3.7-1.7c-1-1.2-1.4-2.6-1.4-4.5s0.5-3.3,1.4-4.5c0.9-1.1,2.2-1.7,3.7-1.7c0.7,0,1.3,0.1,1.9,0.4
			c0.6,0.3,0.9,0.5,1.2,0.8c0.2,0.2,0.4,0.4,0.5,0.7v-6.1h3.8V583.9z M530.7,580.3c0.4-0.6,0.7-1.4,0.7-2.3s-0.2-1.7-0.6-2.3
			c-0.4-0.6-1-0.9-1.8-0.9c-0.8,0-1.4,0.3-1.8,0.9c-0.4,0.6-0.6,1.4-0.6,2.3s0.2,1.7,0.6,2.3c0.4,0.6,1,0.9,1.8,0.9
			S530.3,580.9,530.7,580.3z"/>
		<path class="st1" d="M549.6,583.9h-3.5l-0.3-1.5l-0.1,0.1c-0.1,0.1-0.1,0.2-0.2,0.2c0,0-0.1,0.1-0.2,0.3c-0.1,0.1-0.2,0.2-0.3,0.3
			c-0.1,0.1-0.2,0.2-0.4,0.3c-0.1,0.1-0.3,0.2-0.5,0.3c-0.2,0.1-0.3,0.1-0.5,0.2s-0.4,0.1-0.6,0.1c-0.2,0-0.5,0-0.7,0
			c-1.5,0-2.8-0.6-3.7-1.7c-1-1.2-1.4-2.6-1.4-4.5s0.5-3.3,1.4-4.5c0.9-1.1,2.2-1.7,3.7-1.7c0.7,0,1.3,0.1,1.9,0.4
			c0.6,0.3,0.9,0.5,1.2,0.8c0.2,0.2,0.4,0.4,0.5,0.7v-6.1h3.8V583.9z M545.2,580.3c0.4-0.6,0.7-1.4,0.7-2.3s-0.2-1.7-0.6-2.3
			c-0.4-0.6-1-0.9-1.8-0.9c-0.8,0-1.4,0.3-1.8,0.9c-0.4,0.6-0.6,1.4-0.6,2.3s0.2,1.7,0.6,2.3c0.4,0.6,1,0.9,1.8,0.9
			S544.8,580.9,545.2,580.3z"/>
		<path class="st1" d="M184.5,602.1l-4.5,11.9h-4l-4.5-11.9h4.1l2.4,8l2.4-8H184.5z"/>
		<path class="st1" d="M196.5,613.9h-4c-0.2-0.4-0.3-0.9-0.3-1.3c-1,1-2.1,1.5-3.5,1.5c-1.1,0-2-0.3-2.8-0.9s-1.2-1.5-1.2-2.8
			c0-1.9,1.2-3.1,3.7-3.7c1-0.2,2.3-0.3,3.7-0.3v-0.4c0-1.1-0.7-1.6-2.2-1.6c-1.3,0-2.5,0.4-3.6,1.1l-1-2.6c1.5-0.8,3.2-1.2,5-1.2
			c1.8,0,3.2,0.4,4.2,1.2c1,0.8,1.5,2,1.5,3.7v4.5C196,612.3,196.1,613.3,196.5,613.9z M192.1,610.4v-1.8c-0.6,0-1.2,0-1.8,0.2
			c-1.1,0.2-1.7,0.7-1.7,1.4c0,0.5,0.1,0.8,0.4,1.1c0.3,0.2,0.6,0.4,1.1,0.4C191,611.7,191.7,611.2,192.1,610.4z"/>
		<path class="st1" d="M202.3,613.9h-3.8v-16.3h3.8V613.9z"/>
		<path class="st1" d="M216.4,613.9h-3.6l-0.2-1.8c-1,1.4-2.2,2.1-3.5,2.1c-2.7,0-4-1.5-4-4.6v-7.5h3.8v6.8c0,1.4,0.6,2.2,1.8,2.2
			c0.6,0,1-0.2,1.4-0.6c0.3-0.4,0.5-0.9,0.6-1.4v-6.9h3.9V613.9z"/>
		<path class="st1" d="M230.2,608.9h-7.9c0,0.8,0.3,1.4,0.9,1.8s1.2,0.6,2,0.6c0.7,0,1.3-0.1,2-0.4s1.1-0.5,1.4-0.7l1.3,2.2
			c0,0-0.1,0.1-0.2,0.2c-0.1,0.1-0.3,0.2-0.6,0.4c-0.3,0.2-0.7,0.4-1,0.5c-0.4,0.2-0.9,0.3-1.5,0.4c-0.6,0.1-1.3,0.2-1.9,0.2
			c-1.9,0-3.4-0.5-4.5-1.6c-1.2-1.1-1.7-2.6-1.7-4.5c0-2,0.6-3.5,1.7-4.6c1.1-1.1,2.6-1.6,4.5-1.6c1.8,0,3.1,0.6,4.1,1.7
			c1,1.1,1.5,2.6,1.5,4.4V608.9z M226.5,606.6c0-0.7-0.2-1.2-0.5-1.6c-0.4-0.4-0.9-0.7-1.6-0.7c-0.7,0-1.2,0.2-1.6,0.7
			s-0.6,1-0.7,1.6H226.5z"/>
		<path class="st1" d="M243.3,611l0.3,2.7c-0.9,0.3-1.8,0.4-3,0.4c-1.3,0-2.3-0.3-2.9-0.9c-0.6-0.6-1-1.6-1-3v-5.5h-1.6v-2.8h1.6
			l0.2-3h3.6v3h2.9v2.8h-2.9v4.6c0,0.7,0.1,1.2,0.3,1.3c0.2,0.3,0.6,0.4,1.1,0.4C242.6,611.2,243,611.2,243.3,611z"/>
		<path class="st1" d="M256.9,613.9h-3.9v-6.7c0-0.7-0.1-1.3-0.4-1.7c-0.3-0.4-0.7-0.6-1.3-0.6c-0.6,0-1.1,0.2-1.5,0.6
			c-0.4,0.4-0.6,0.9-0.7,1.4v6.8h-3.8v-16.3h3.8v6.3c1-1.4,2.2-2.1,3.7-2.1c2.7,0,4,1.5,4,4.6V613.9z"/>
		<path class="st1" d="M267.7,601.9l-0.4,3.6c-0.3-0.1-0.7-0.2-1.1-0.2c-0.5,0-1,0.1-1.4,0.4c-0.7,0.5-1.2,1.2-1.4,2.2v6h-3.8v-11.9
			h3.6l0.2,2c0.3-0.6,0.7-1.1,1.3-1.6s1.3-0.7,2-0.7c0.2,0,0.4,0,0.5,0C267.4,601.9,267.5,601.9,267.7,601.9L267.7,601.9z"/>
		<path class="st1" d="M278.8,603.5c1.1,1.1,1.7,2.6,1.7,4.5s-0.6,3.4-1.7,4.5c-1.1,1.1-2.7,1.7-4.6,1.7c-1.9,0-3.4-0.6-4.6-1.7
			c-1.2-1.1-1.7-2.6-1.7-4.5c0-1.9,0.6-3.4,1.7-4.5c1.1-1.1,2.7-1.7,4.6-1.7C276.1,601.8,277.7,602.4,278.8,603.5z M276.6,608
			c0-1-0.2-1.8-0.6-2.4c-0.4-0.6-1-0.9-1.8-0.9c-0.8,0-1.4,0.3-1.8,0.9s-0.6,1.4-0.6,2.4c0,1,0.2,1.8,0.6,2.4s1,0.9,1.8,0.9
			c0.8,0,1.4-0.3,1.8-0.9C276.4,609.8,276.6,609,276.6,608z"/>
		<path class="st1" d="M293.8,613.9h-3.6l-0.2-1.8c-1,1.4-2.2,2.1-3.5,2.1c-2.7,0-4-1.5-4-4.6v-7.5h3.8v6.8c0,1.4,0.6,2.2,1.8,2.2
			c0.6,0,1-0.2,1.4-0.6c0.3-0.4,0.5-0.9,0.6-1.4v-6.9h3.9V613.9z"/>
		<path class="st1" d="M308.2,611.2c0,2.4-0.5,4.1-1.5,5.2c-1.2,1.3-2.9,1.9-5.1,1.9c-1.1,0-2.1-0.1-3.1-0.4s-1.7-0.6-2.3-0.9
			l1.2-2.7c1.3,0.7,2.7,1.1,4,1.1c1.1,0,1.9-0.3,2.4-0.8c0.5-0.4,0.7-1.1,0.7-2v-0.9c-0.1,0.2-0.3,0.4-0.5,0.7
			c-0.2,0.2-0.6,0.5-1.2,0.7c-0.5,0.3-1.1,0.4-1.8,0.4c-1.6,0-2.8-0.5-3.8-1.6s-1.4-2.5-1.4-4.2c0-1.7,0.5-3.1,1.4-4.2
			c0.9-1.1,2.2-1.6,3.8-1.6c0.5,0,1,0.1,1.4,0.2c0.4,0.2,0.8,0.3,1,0.6c0.3,0.2,0.4,0.4,0.6,0.6c0.1,0.2,0.2,0.3,0.3,0.4l0.3-1.6
			h3.6V611.2z M303.8,609.6c0.4-0.5,0.6-1.2,0.6-2s-0.2-1.5-0.6-2c-0.4-0.5-1-0.8-1.7-0.8s-1.3,0.3-1.8,0.8c-0.4,0.5-0.6,1.2-0.6,2
			c0,0.8,0.2,1.5,0.6,2.1c0.4,0.5,1,0.8,1.7,0.8S303.4,610.2,303.8,609.6z"/>
		<path class="st1" d="M322.5,613.9h-3.9v-6.7c0-0.7-0.1-1.3-0.4-1.7c-0.3-0.4-0.7-0.6-1.3-0.6c-0.6,0-1.1,0.2-1.5,0.6
			c-0.4,0.4-0.6,0.9-0.7,1.4v6.8h-3.8v-16.3h3.8v6.3c1-1.4,2.2-2.1,3.7-2.1c2.7,0,4,1.5,4,4.6V613.9z"/>
		<path class="st1" d="M332.8,597.4c0.4,0.4,0.6,0.8,0.6,1.4s-0.2,1.1-0.6,1.5c-0.4,0.4-0.9,0.6-1.5,0.6s-1.1-0.2-1.5-0.6
			c-0.4-0.4-0.6-0.8-0.6-1.4s0.2-1.1,0.6-1.5c0.4-0.4,0.9-0.6,1.5-0.6S332.4,597,332.8,597.4z M333.2,613.9h-3.8v-11.9h3.8V613.9z"
			/>
		<path class="st1" d="M347.5,613.9h-3.9v-6.7c0-0.7-0.1-1.3-0.4-1.7c-0.3-0.4-0.7-0.6-1.3-0.6c-0.6,0-1.1,0.2-1.5,0.6
			c-0.4,0.4-0.6,0.9-0.7,1.4v6.8h-3.8v-11.9h3.6l0.2,1.8c1-1.4,2.2-2.1,3.7-2.1c2.7,0,4,1.5,4,4.6V613.9z"/>
		<path class="st1" d="M361.7,613.9h-3.9v-6.7c0-0.7-0.1-1.3-0.4-1.7c-0.3-0.4-0.7-0.6-1.3-0.6c-0.6,0-1.1,0.2-1.5,0.6
			c-0.4,0.4-0.6,0.9-0.7,1.4v6.8h-3.8v-11.9h3.6l0.2,1.8c1-1.4,2.2-2.1,3.7-2.1c2.7,0,4,1.5,4,4.6V613.9z"/>
		<path class="st1" d="M374.4,603.5c1.1,1.1,1.7,2.6,1.7,4.5s-0.6,3.4-1.7,4.5c-1.1,1.1-2.7,1.7-4.6,1.7c-1.9,0-3.4-0.6-4.6-1.7
			c-1.2-1.1-1.7-2.6-1.7-4.5c0-1.9,0.6-3.4,1.7-4.5c1.1-1.1,2.7-1.7,4.6-1.7C371.7,601.8,373.3,602.4,374.4,603.5z M372.2,608
			c0-1-0.2-1.8-0.6-2.4c-0.4-0.6-1-0.9-1.8-0.9c-0.8,0-1.4,0.3-1.8,0.9s-0.6,1.4-0.6,2.4c0,1,0.2,1.8,0.6,2.4s1,0.9,1.8,0.9
			c0.8,0,1.4-0.3,1.8-0.9C372,609.8,372.2,609,372.2,608z"/>
		<path class="st1" d="M389.5,602.1l-4.5,11.9h-4l-4.5-11.9h4.1l2.4,8l2.4-8H389.5z"/>
		<path class="st1" d="M401.5,613.9h-4c-0.2-0.4-0.3-0.9-0.3-1.3c-1,1-2.1,1.5-3.5,1.5c-1.1,0-2-0.3-2.8-0.9s-1.2-1.5-1.2-2.8
			c0-1.9,1.2-3.1,3.7-3.7c1-0.2,2.3-0.3,3.7-0.3v-0.4c0-1.1-0.7-1.6-2.2-1.6c-1.3,0-2.5,0.4-3.6,1.1l-1-2.6c1.5-0.8,3.2-1.2,5-1.2
			c1.8,0,3.2,0.4,4.2,1.2c1,0.8,1.5,2,1.5,3.7v4.5C400.9,612.3,401.1,613.3,401.5,613.9z M397.1,610.4v-1.8c-0.6,0-1.2,0-1.8,0.2
			c-1.1,0.2-1.7,0.7-1.7,1.4c0,0.5,0.1,0.8,0.4,1.1c0.3,0.2,0.6,0.4,1.1,0.4C396,611.7,396.7,611.2,397.1,610.4z"/>
		<path class="st1" d="M410.5,611l0.3,2.7c-0.9,0.3-1.8,0.4-3,0.4c-1.3,0-2.3-0.3-2.9-0.9c-0.6-0.6-1-1.6-1-3v-5.5h-1.6v-2.8h1.6
			l0.2-3h3.6v3h2.9v2.8h-2.9v4.6c0,0.7,0.1,1.2,0.3,1.3c0.2,0.3,0.6,0.4,1.1,0.4C409.7,611.2,410.2,611.2,410.5,611z"/>
		<path class="st1" d="M416,597.4c0.4,0.4,0.6,0.8,0.6,1.4s-0.2,1.1-0.6,1.5c-0.4,0.4-0.9,0.6-1.5,0.6s-1.1-0.2-1.5-0.6
			c-0.4-0.4-0.6-0.8-0.6-1.4s0.2-1.1,0.6-1.5c0.4-0.4,0.9-0.6,1.5-0.6S415.6,597,416,597.4z M416.4,613.9h-3.8v-11.9h3.8V613.9z"/>
		<path class="st1" d="M429.2,603.5c1.1,1.1,1.7,2.6,1.7,4.5s-0.6,3.4-1.7,4.5c-1.1,1.1-2.7,1.7-4.6,1.7c-1.9,0-3.4-0.6-4.6-1.7
			c-1.2-1.1-1.7-2.6-1.7-4.5c0-1.9,0.6-3.4,1.7-4.5c1.1-1.1,2.7-1.7,4.6-1.7C426.5,601.8,428,602.4,429.2,603.5z M427,608
			c0-1-0.2-1.8-0.6-2.4c-0.4-0.6-1-0.9-1.8-0.9c-0.8,0-1.4,0.3-1.8,0.9s-0.6,1.4-0.6,2.4c0,1,0.2,1.8,0.6,2.4s1,0.9,1.8,0.9
			c0.8,0,1.4-0.3,1.8-0.9C426.8,609.8,427,609,427,608z"/>
		<path class="st1" d="M444.5,613.9h-3.9v-6.7c0-0.7-0.1-1.3-0.4-1.7c-0.3-0.4-0.7-0.6-1.3-0.6c-0.6,0-1.1,0.2-1.5,0.6
			c-0.4,0.4-0.6,0.9-0.7,1.4v6.8h-3.8v-11.9h3.6l0.2,1.8c1-1.4,2.2-2.1,3.7-2.1c2.7,0,4,1.5,4,4.6V613.9z"/>
		<path class="st1" d="M451.4,612.1c0,0.6-0.2,1.1-0.6,1.5c-0.4,0.4-0.9,0.6-1.6,0.6c-0.6,0-1.1-0.2-1.5-0.6
			c-0.4-0.4-0.6-0.9-0.6-1.5s0.2-1.1,0.6-1.5s0.9-0.6,1.5-0.6s1.2,0.2,1.6,0.6C451.2,611,451.4,611.5,451.4,612.1z"/>
	</g>
</g>
<g>
	<defs>
		<rect id="SVGID_1_" x="838" y="202" width="1080" height="802.1"/>
	</defs>
	<clipPath id="SVGID_2_">
		<use xlink:href="#SVGID_1_"  style="overflow:visible;"/>
	</clipPath>
	<g style="clip-path:url(#SVGID_2_);">
		
			<image style="overflow:visible;" width="2222" height="1174" xlink:href="6595DBA.jpg"  transform="matrix(0.5832 0 0 0.5832 902.983 226.7473)">
		</image>
	</g>
</g>
<g>
	<image style="overflow:visible;" width="521" height="811" xlink:href="6595DBA.png"  transform="matrix(1 0 0 1 1418 184.9809)">
	</image>
</g>
<linearGradient id="SVGID_3_" gradientUnits="userSpaceOnUse" x1="1805.2292" y1="549.4331" x2="1920.7961" y2="549.4331">
	<stop  offset="0" style="stop-color:#FFFFFF;stop-opacity:0"/>
	<stop  offset="0.1413" style="stop-color:#FFFFFF;stop-opacity:0.1413"/>
	<stop  offset="1" style="stop-color:#FFFFFF"/>
</linearGradient>
<rect x="1805.2" y="115.4" class="st2" width="115.6" height="868.1"/>
</svg>
