<?xml version="1.0" encoding="utf-8"?>
<!-- Generator: Adobe Illustrator 23.0.3, SVG Export Plug-In . SVG Version: 6.00 Build 0)  -->
<svg version="1.1" id="Layer_1" xmlns="http://www.w3.org/2000/svg" xmlns:xlink="http://www.w3.org/1999/xlink" x="0px" y="0px"
	 viewBox="0 0 1920 1080" style="enable-background:new 0 0 1920 1080;" xml:space="preserve">
<style type="text/css">
	.st0{fill:#174EFF;}
	.st1{fill:#FFFFFF;}
</style>
<path class="st0" d="M1124.33,619H793.67c-42.53,0-77.33-34.8-77.33-77.33v-4c0-42.53,34.8-77.33,77.33-77.33h330.67
	c42.53,0,77.33,34.8,77.33,77.33v4C1201.67,584.2,1166.87,619,1124.33,619z"/>
<g>
	<path class="st1" d="M899.89,537.75c0,9.99-3.21,17.76-9.64,23.29c-5.35,4.71-12.86,7.06-22.53,7.06h-21.86v-60.62h21.86
		c9.55,0,17.06,2.36,22.53,7.06C896.68,520.22,899.89,527.95,899.89,537.75z M884.43,537.65c0-6.24-1.59-10.95-4.77-14.13
		c-2.86-2.86-6.97-4.3-12.32-4.3h-6.4v36.76h6.4c5.35,0,9.45-1.43,12.32-4.3C882.84,548.51,884.43,543.83,884.43,537.65z"/>
	<path class="st1" d="M950.11,549.01h-30.26c0.13,3.12,1.24,5.46,3.34,7.02c2.1,1.56,4.71,2.34,7.83,2.34
		c2.61,0,5.16-0.46,7.64-1.38c2.48-0.92,4.3-1.86,5.44-2.82l4.77,8.5c-0.19,0.19-0.45,0.43-0.76,0.72c-0.32,0.29-1.08,0.8-2.29,1.53
		c-1.21,0.73-2.52,1.38-3.92,1.96c-1.4,0.57-3.28,1.08-5.63,1.53c-2.36,0.45-4.81,0.67-7.35,0.67c-7.06,0-12.79-2.08-17.18-6.25
		c-4.39-4.17-6.59-9.94-6.59-17.33c0-7.45,2.2-13.25,6.59-17.42c4.39-4.17,10.09-6.25,17.09-6.25c6.68,0,11.9,2.13,15.66,6.4
		c3.75,4.26,5.63,9.93,5.63,16.99V549.01z M936.27,540.14c0-2.48-0.68-4.55-2.05-6.21c-1.37-1.65-3.36-2.48-5.97-2.48
		c-2.61,0-4.65,0.83-6.11,2.48c-1.46,1.66-2.32,3.72-2.58,6.21H936.27z"/>
	<path class="st1" d="M1028.01,568.11h-14.7v-25.97c0-5.41-1.97-8.11-5.92-8.11c-2.16,0-3.85,0.83-5.06,2.48
		c-1.21,1.66-1.97,3.44-2.29,5.35v26.25h-14.7v-25.97c0-5.41-1.97-8.11-5.92-8.11c-2.16,0-3.85,0.83-5.06,2.48
		c-1.21,1.66-1.97,3.44-2.29,5.35v26.25h-14.7v-45.35h13.84l0.86,6.97c3.44-5.28,7.89-7.92,13.37-7.92c6.68,0,11.04,2.8,13.08,8.4
		c4.07-5.6,9-8.4,14.8-8.4c4.71,0,8.34,1.46,10.88,4.39c2.54,2.93,3.82,7.16,3.82,12.7V568.11z"/>
	<path class="st1" d="M1076.55,528.11c4.36,4.2,6.54,9.96,6.54,17.28c0,7.32-2.18,13.1-6.54,17.33s-10.17,6.35-17.42,6.35
		c-7.25,0-13.08-2.12-17.47-6.35c-4.39-4.23-6.59-10.01-6.59-17.33c0-7.26,2.18-13,6.54-17.23c4.36-4.23,10.17-6.35,17.42-6.35
		C1066.35,521.81,1072.19,523.91,1076.55,528.11z M1068.1,545.39c0-3.69-0.76-6.73-2.29-9.12c-1.53-2.39-3.76-3.58-6.68-3.58
		c-2.99,0-5.25,1.19-6.78,3.58c-1.53,2.39-2.29,5.43-2.29,9.12c0,3.76,0.76,6.83,2.29,9.21c1.53,2.39,3.75,3.58,6.68,3.58
		c2.99,0,5.25-1.19,6.78-3.58C1067.34,552.21,1068.1,549.14,1068.1,545.39z"/>
</g>
</svg>
