<?xml version="1.0" encoding="utf-8"?>
<!-- Generator: Adobe Illustrator 19.0.0, SVG Export Plug-In . SVG Version: 6.00 Build 0)  -->
<svg version="1.1" id="Layer_1" xmlns="http://www.w3.org/2000/svg" xmlns:xlink="http://www.w3.org/1999/xlink" x="0px" y="0px"
	 viewBox="0 0 510.7 419.6" style="enable-background:new 0 0 510.7 419.6;" xml:space="preserve">
<style type="text/css">
	.st0{opacity:0.5;fill:#0050E9;}
	.st1{fill:#FFFFFF;}
	.st2{opacity:0.5;}
	.st3{fill:#0050E9;}
</style>
<g id="XMLID_27_">
	<path id="XMLID_33_" class="st0" d="M289.9,47.5l127.8,127.8c19,19,19,50.1,0,69L289.9,372.1c-19,19-50.1,19-69,0L93.1,244.3
		c-19-19-19-50.1,0-69L220.8,47.5C239.8,28.5,270.9,28.5,289.9,47.5z"/>
	<path id="XMLID_32_" class="st1" d="M289.9,127.7l47.6,47.6c19,19,19,50.1,0,69l-47.6,47.6c-19,19-50.1,19-69,0l-47.6-47.6
		c-19-19-19-50.1,0-69l47.6-47.6C239.8,108.7,270.9,108.7,289.9,127.7z"/>
	<g id="XMLID_28_" class="st2">
		<path id="XMLID_29_" class="st3" d="M255.5,146.1c21.3,0,34.8,14.3,36.5,31.2c1.5,14.2-5.8,30.6-23.7,37.7v8.9
			c0,13.7-21.7,14.5-21.7,0c0-16.4,0-5.6,0-14.7c0-6.1,3.2-9.2,7.3-10.8c10.4-3.8,16.6-7.7,16.6-17.9c0-7.5-7.5-13.3-15-13.3
			c-7.2,0-13.3,2-17.9,9.7c-7.2,10.6-23.6,0-17.9-11.3C225.8,156.5,233.3,146.1,255.5,146.1z M246.6,253.8c0-13.8,22.4-13.7,22.4,0
			v2.9c0,13.7-22.4,13.8-22.4,0V253.8z"/>
	</g>
</g>
</svg>
