<?xml version="1.0" encoding="utf-8"?>
<!-- Generator: Adobe Illustrator 19.0.0, SVG Export Plug-In . SVG Version: 6.00 Build 0)  -->
<svg version="1.1" id="Layer_1" xmlns="http://www.w3.org/2000/svg" xmlns:xlink="http://www.w3.org/1999/xlink" x="0px" y="0px"
	 viewBox="0 0 510.7 419.6" style="enable-background:new 0 0 510.7 419.6;" xml:space="preserve">
<style type="text/css">
	.st0{opacity:0.5;fill:#FFDC2A;}
</style>
<path id="XMLID_34_" class="st0" d="M411.8,175.3L284,47.5c-14.2-14.2-35.1-17.8-52.7-10.8c-5.3,2.1-8.7,7.4-8.7,13.1
	c0,0.2,0,0.5,0,0.7v95.2h-126c-6.6,0-12,5.4-12,12v104c0,6.6,5.4,12,12,12h126v95.9c0,0,0,0.1,0,0.1c0,5.8,3.3,11,8.7,13.1
	c17.6,7,38.5,3.4,52.6-10.8l127.8-127.8C430.8,225.4,430.8,194.3,411.8,175.3z"/>
</svg>
