<?xml version="1.0" encoding="utf-8"?>
<!-- Generator: Adobe Illustrator 19.0.0, SVG Export Plug-In . SVG Version: 6.00 Build 0)  -->
<svg version="1.1" id="Layer_1" xmlns="http://www.w3.org/2000/svg" xmlns:xlink="http://www.w3.org/1999/xlink" x="0px" y="0px"
	 viewBox="0 0 510.7 419.6" style="enable-background:new 0 0 510.7 419.6;" xml:space="preserve">
<style type="text/css">
	.st0{opacity:0.5;fill:#FF0000;}
	.st1{fill:#FFFFFF;}
</style>
<g id="XMLID_27_">
	<path id="XMLID_32_" class="st0" d="M171.4,67.9h180.7c26.9,0,48.8,22,48.8,48.8v180.7c0,26.9-22,48.8-48.8,48.8H171.4
		c-26.9,0-48.8-22-48.8-48.8V116.8C122.6,89.9,144.6,67.9,171.4,67.9z"/>
	<path id="XMLID_31_" class="st1" d="M158.6,106.6h202.6c7.5,0,13.7,6.1,13.7,13.7v0c0,7.5-6.1,13.7-13.7,13.7H158.6
		c-7.5,0-13.7-6.1-13.7-13.7v0C145,112.7,151.1,106.6,158.6,106.6z"/>
	<path id="XMLID_30_" class="st1" d="M165.5,171.2h167.7c5.5,0,10.1,4.5,10.1,10.1v0c0,5.5-4.5,10.1-10.1,10.1H165.5
		c-5.5,0-10.1-4.5-10.1-10.1v0C155.4,175.7,159.9,171.2,165.5,171.2z"/>
	<path id="XMLID_28_" class="st1" d="M165.5,208.7h167.7c5.5,0,10.1,4.5,10.1,10.1v0c0,5.5-4.5,10.1-10.1,10.1H165.5
		c-5.5,0-10.1-4.5-10.1-10.1v0C155.4,213.3,159.9,208.7,165.5,208.7z"/>
	<path id="XMLID_29_" class="st1" d="M165.5,284.8h167.7c5.5,0,10.1,4.5,10.1,10.1v0c0,5.5-4.5,10.1-10.1,10.1H165.5
		c-5.5,0-10.1-4.5-10.1-10.1v0C155.4,289.3,159.9,284.8,165.5,284.8z"/>
</g>
</svg>
