<?xml version="1.0" encoding="utf-8"?>
<!-- Generator: Adobe Illustrator 22.1.0, SVG Export Plug-In . SVG Version: 6.00 Build 0)  -->
<svg version="1.1" id="Layer_1" xmlns="http://www.w3.org/2000/svg" xmlns:xlink="http://www.w3.org/1999/xlink" x="0px" y="0px"
	 viewBox="0 0 510.7 419.6" style="enable-background:new 0 0 510.7 419.6;" xml:space="preserve">
<style type="text/css">
	.st0{opacity:0.5;fill:#606060;}
	.st1{fill:#FFFFFF;}
</style>
<g id="XMLID_27_">
	<path class="st0" d="M373.5,346.2h-222c-11.3,0-20.6-9.2-20.6-20.5V88.4c0-11.3,9.2-20.5,20.6-20.5h222c11.3,0,20.5,9.2,20.5,20.5
		v237.2C394,337,384.8,346.2,373.5,346.2z"/>
	<path class="st1" d="M340.7,98.3h-50h-70.2h-50c-4.4,0-8.1,3.7-8.1,8.3c0,4.6,3.7,8.3,8.1,8.3h50h70.2h50c4.5,0,8.1-3.8,8.1-8.3
		C348.9,102,345.2,98.3,340.7,98.3z"/>
	<path class="st1" d="M324.6,152.6H250h-6.7h-74.6c-2.7,0-4.9,2.6-4.9,5.9s2.2,5.9,4.9,5.9h74.6h6.7h74.6c2.7,0,4.9-2.7,4.9-5.9
		C329.5,155.3,327.3,152.6,324.6,152.6z"/>
	<path class="st1" d="M324.6,178.6H250h-6.7h-74.6c-2.7,0-4.9,2.6-4.9,5.9s2.2,5.9,4.9,5.9h74.6h6.7h74.6c2.7,0,4.9-2.7,4.9-5.9
		C329.5,181.3,327.3,178.6,324.6,178.6z"/>
	<path class="st1" d="M324.6,223.6H250h-6.7h-74.6c-2.7,0-4.9,2.6-4.9,5.9s2.2,5.9,4.9,5.9h74.6h6.7h74.6c2.7,0,4.9-2.7,4.9-5.9
		C329.5,226.3,327.3,223.6,324.6,223.6z"/>
	<path class="st1" d="M324.6,249.6H250h-6.7h-74.6c-2.7,0-4.9,2.6-4.9,5.9s2.2,5.9,4.9,5.9h74.6h6.7h74.6c2.7,0,4.9-2.7,4.9-5.9
		C329.5,252.3,327.3,249.6,324.6,249.6z"/>
	<path class="st1" d="M324.6,301.2H250h-6.7h-74.6c-2.7,0-4.9,2.6-4.9,5.9s2.2,5.9,4.9,5.9h74.6h6.7h74.6c2.7,0,4.9-2.7,4.9-5.9
		C329.5,303.9,327.3,301.2,324.6,301.2z"/>
</g>
</svg>
