<?xml version="1.0" encoding="utf-8"?>
<!-- Generator: Adobe Illustrator 22.1.0, SVG Export Plug-In . SVG Version: 6.00 Build 0)  -->
<svg version="1.1" id="Layer_1" xmlns="http://www.w3.org/2000/svg" xmlns:xlink="http://www.w3.org/1999/xlink" x="0px" y="0px"
	 viewBox="0 0 510.7 419.6" style="enable-background:new 0 0 510.7 419.6;" xml:space="preserve">
<style type="text/css">
	.st0{opacity:0.5;fill:#606060;enable-background:new    ;}
</style>
<g id="XMLID_30_">
	<path id="XMLID_39_" class="st0" d="M241.6,43.8l127.8,127.8c19,19,19,50.1,0,69L241.6,368.4c-19,19-50.1,19-69,0L44.8,240.6
		c-19-19-19-50.1,0-69L172.6,43.8C191.6,24.8,222.7,24.8,241.6,43.8z"/>
	<path id="XMLID_38_" class="st0" d="M350.5,43.8l127.8,127.8c19,19,19,50.1,0,69L350.5,368.4c-19,19-50.1,19-69,0L153.6,240.6
		c-19-19-19-50.1,0-69L281.4,43.8C300.4,24.8,331.5,24.8,350.5,43.8z"/>
	<path id="XMLID_37_" class="st0" d="M296.1,43.8l127.8,127.8c19,19,19,50.1,0,69L296.1,368.4c-19,19-50.1,19-69,0L99.2,240.6
		c-19-19-19-50.1,0-69L227,43.8C246,24.8,277.1,24.8,296.1,43.8z"/>
</g>
</svg>
